M48
; DRILL file {KiCad 5.1.0-rc2-unknown-036be7d~80~ubuntu16.04.1} date 25.02.2022 (пт) 15:10:03 EET
; FORMAT={-:-/ absolute / inch / decimal}
; #@! TF.CreationDate,2022-02-25T15:10:03+02:00*
; #@! TF.GenerationSoftware,Kicad,Pcbnew,5.1.0-rc2-unknown-036be7d~80~ubuntu16.04.1
; #@! TF.FileFunction,Plated,1,4,PTH
FMAT,2
INCH
T1C0.0157
T2C0.0236
T3C0.0354
%
G90
G05
T1
X5.0215Y-2.8665
X5.0216Y-2.8154
X5.0219Y-3.0201
X5.022Y-2.499
X5.022Y-2.538
X5.022Y-2.575
X5.022Y-2.61
X5.022Y-2.662
X5.022Y-2.766
X5.022Y-2.918
X5.022Y-3.072
X5.022Y-3.275
X5.0221Y-2.9689
X5.025Y-3.415
X5.025Y-3.45
X5.025Y-3.485
X5.025Y-3.52
X5.035Y-2.335
X5.045Y-3.69
X5.068Y-2.335
X5.08Y-3.69
X5.0882Y-3.5103
X5.101Y-2.3347
X5.105Y-2.37
X5.111Y-3.569
X5.115Y-3.69
X5.118Y-3.533
X5.13Y-2.145
X5.14Y-3.63
X5.14Y-3.665
X5.155Y-2.485
X5.155Y-2.515
X5.155Y-2.58
X5.155Y-3.29
X5.1575Y-3.05
X5.1595Y-2.8227
X5.16Y-2.045
X5.16Y-2.725
X5.16Y-2.775
X5.16Y-2.8837
X5.16Y-2.9163
X5.16Y-2.9837
X5.16Y-3.0163
X5.165Y-3.11
X5.165Y-3.19
X5.171Y-2.416
X5.175Y-2.155
X5.175Y-2.61
X5.175Y-2.645
X5.18Y-3.215
X5.185Y-2.34
X5.185Y-2.95
X5.185Y-3.735
X5.185Y-3.7825
X5.1875Y-2.485
X5.1875Y-2.515
X5.189Y-2.857
X5.2Y-3.235
X5.2Y-3.97
X5.205Y-3.075
X5.2094Y-2.6429
X5.215Y-2.154
X5.2202Y-2.34
X5.2202Y-2.4362
X5.2225Y-2.485
X5.235Y-3.91
X5.235Y-3.97
X5.236Y-2.082
X5.255Y-2.157
X5.255Y-2.34
X5.2552Y-2.4362
X5.2575Y-2.485
X5.27Y-3.91
X5.27Y-3.97
X5.29Y-2.34
X5.295Y-2.485
X5.305Y-2.416
X5.305Y-3.6875
X5.305Y-3.7175
X5.31Y-2.215
X5.315Y-2.03
X5.315Y-2.08
X5.32Y-3.285
X5.3225Y-2.34
X5.329Y-3.34
X5.329Y-3.405
X5.33Y-3.45
X5.335Y-3.6875
X5.335Y-3.7175
X5.3425Y-2.815
X5.345Y-3.075
X5.345Y-3.79
X5.345Y-3.83
X5.3475Y-2.71
X5.3498Y-3.2303
X5.3498Y-3.2603
X5.3498Y-3.2903
X5.35Y-2.775
X5.35Y-2.985
X5.36Y-3.1437
X5.36Y-3.1763
X5.3602Y-3.7508
X5.37Y-2.34
X5.37Y-2.37
X5.37Y-2.435
X5.37Y-2.465
X5.37Y-3.455
X5.3729Y-2.8519
X5.3765Y-2.9462
X5.3788Y-3.21
X5.38Y-2.71
X5.38Y-2.775
X5.3825Y-3.7725
X5.385Y-2.03
X5.385Y-2.5
X5.385Y-2.99
X5.385Y-3.614
X5.385Y-3.647
X5.388Y-3.299
X5.405Y-3.75
X5.405Y-3.795
X5.405Y-3.834
X5.407Y-3.4088
X5.4075Y-3.455
X5.414Y-3.659
X5.415Y-2.775
X5.425Y-2.03
X5.425Y-2.07
X5.441Y-3.675
X5.4476Y-2.775
X5.455Y-2.64
X5.458Y-3.584
X5.46Y-2.515
X5.4646Y-2.1204
X5.465Y-2.375
X5.465Y-2.42
X5.4806Y-2.7744
X5.485Y-3.43
X5.4934Y-3.3726
X5.5Y-2.435
X5.5Y-2.475
X5.5Y-3.59
X5.5Y-3.625
X5.505Y-2.03
X5.505Y-3.97
X5.5054Y-2.0746
X5.51Y-2.64
X5.5294Y-3.3
X5.535Y-2.725
X5.535Y-3.07
X5.535Y-3.115
X5.535Y-3.225
X5.54Y-3.2649
X5.541Y-2.03
X5.541Y-2.075
X5.542Y-2.948
X5.545Y-2.14
X5.545Y-3.97
X5.5574Y-2.9876
X5.56Y-2.77
X5.56Y-2.815
X5.5648Y-3.4118
X5.565Y-2.47
X5.565Y-3.59
X5.565Y-3.625
X5.565Y-3.66
X5.57Y-3.07
X5.57Y-3.115
X5.57Y-3.16
X5.575Y-2.435
X5.575Y-2.7031
X5.579Y-2.949
X5.58Y-2.14
X5.5812Y-2.6388
X5.6Y-3.59
X5.605Y-2.395
X5.61Y-2.47
X5.61Y-2.77
X5.61Y-2.815
X5.61Y-2.985
X5.62Y-2.64
X5.62Y-3.16
X5.62Y-3.285
X5.622Y-2.948
X5.63Y-2.03
X5.63Y-2.075
X5.635Y-3.5825
X5.635Y-3.6325
X5.635Y-3.6625
X5.6435Y-3.4362
X5.65Y-3.6075
X5.6513Y-3.4016
X5.66Y-2.42
X5.66Y-2.47
X5.66Y-2.77
X5.66Y-2.815
X5.66Y-2.9475
X5.66Y-2.985
X5.66Y-3.6475
X5.665Y-3.5825
X5.67Y-3.71
X5.67Y-3.7412
X5.675Y-3.16
X5.7037Y-3.645
X5.71Y-2.12
X5.71Y-2.42
X5.71Y-2.47
X5.71Y-2.77
X5.71Y-2.815
X5.71Y-2.9475
X5.71Y-2.985
X5.7218Y-2.7232
X5.725Y-2.64
X5.7255Y-3.4445
X5.73Y-3.403
X5.7363Y-3.645
X5.743Y-2.029
X5.755Y-2.12
X5.755Y-2.16
X5.755Y-2.2
X5.756Y-3.2587
X5.756Y-3.2913
X5.7579Y-3.1821
X5.76Y-2.42
X5.76Y-2.47
X5.76Y-2.77
X5.76Y-2.815
X5.765Y-2.64
X5.765Y-2.7231
X5.777Y-3.459
X5.7809Y-3.1591
X5.7824Y-3.8551
X5.7825Y-3.9688
X5.785Y-3.775
X5.79Y-2.355
X5.79Y-3.605
X5.795Y-2.12
X5.795Y-2.16
X5.795Y-2.2
X5.795Y-3.03
X5.795Y-3.82
X5.809Y-3.403
X5.81Y-2.42
X5.81Y-2.47
X5.81Y-2.77
X5.815Y-2.52
X5.82Y-3.97
X5.825Y-2.64
X5.83Y-3.16
X5.835Y-2.355
X5.835Y-3.03
X5.84Y-2.12
X5.84Y-2.16
X5.84Y-2.2
X5.845Y-3.6
X5.85Y-2.505
X5.86Y-2.77
X5.86Y-3.785
X5.86Y-3.8175
X5.87Y-2.64
X5.87Y-3.93
X5.875Y-2.2
X5.875Y-3.03
X5.88Y-2.03
X5.885Y-3.6
X5.8872Y-3.4026
X5.9078Y-2.77
X5.9078Y-2.815
X5.92Y-2.03
X5.92Y-2.995
X5.925Y-2.61
X5.925Y-2.65
X5.925Y-2.685
X5.925Y-2.72
X5.93Y-2.96
X5.935Y-2.41
X5.935Y-2.45
X5.9394Y-3.235
X5.94Y-2.575
X5.94Y-3.15
X5.94Y-3.2
X5.94Y-3.69
X5.94Y-3.72
X5.94Y-3.75
X5.94Y-3.2712
X5.945Y-2.93
X5.945Y-3.1
X5.945Y-3.83
X5.945Y-3.87
X5.955Y-3.581
X5.9578Y-2.77
X5.9578Y-2.815
X5.96Y-2.12
X5.9662Y-3.4518
X5.97Y-3.69
X5.9713Y-2.9021
X5.985Y-2.2
X5.985Y-3.025
X5.985Y-3.79
X5.985Y-3.83
X5.985Y-3.87
X5.995Y-2.45
X6.0Y-2.03
X6.0Y-2.075
X6.0Y-2.12
X6.0135Y-3.5885
X6.025Y-3.79
X6.025Y-3.83
X6.025Y-3.87
X6.03Y-2.45
X6.04Y-2.03
X6.04Y-2.075
X6.04Y-2.12
X6.04Y-2.2
X6.045Y-3.45
X6.045Y-3.625
X6.045Y-3.665
X6.05Y-2.5
X6.052Y-3.588
X6.06Y-3.79
X6.065Y-2.45
X6.065Y-3.83
X6.065Y-3.87
X6.08Y-2.03
X6.08Y-2.12
X6.08Y-2.2
X6.08Y-3.625
X6.08Y-3.665
X6.09Y-3.588
X6.1012Y-2.4611
X6.105Y-3.69
X6.105Y-3.72
X6.105Y-3.75
X6.105Y-3.83
X6.105Y-3.87
X6.11Y-2.635
X6.11Y-2.685
X6.11Y-2.735
X6.114Y-3.225
X6.116Y-2.588
X6.119Y-2.851
X6.12Y-2.03
X6.12Y-2.075
X6.12Y-2.12
X6.12Y-2.2
X6.12Y-3.075
X6.12Y-3.125
X6.125Y-3.175
X6.125Y-3.405
X6.135Y-2.47
X6.135Y-3.275
X6.135Y-3.375
X6.135Y-3.59
X6.136Y-3.331
X6.14Y-2.816
X6.145Y-2.51
X6.145Y-2.62
X6.145Y-2.67
X6.145Y-2.72
X6.145Y-2.775
X6.1488Y-2.8738
X6.1488Y-2.9238
X6.1488Y-2.9738
X6.1488Y-3.0238
X6.15Y-3.425
X6.17Y-2.075
X6.17Y-2.2
X6.185Y-3.45
X6.185Y-3.505
X6.185Y-3.535
X6.21Y-3.645
X6.215Y-2.03
X6.215Y-2.075
X6.215Y-2.12
X6.215Y-2.2
X6.22Y-2.235
X6.22Y-2.305
X6.22Y-2.34
X6.22Y-2.375
X6.25Y-3.645
X6.255Y-2.125
X6.255Y-3.435
X6.255Y-3.475
X6.255Y-3.515
X6.2725Y-3.26
X6.2725Y-3.29
X6.2725Y-3.3275
X6.273Y-3.174
X6.275Y-3.415
X6.275Y-3.455
X6.275Y-3.495
X6.275Y-3.535
T2
X5.145Y-3.735
X5.145Y-3.775
X5.175Y-3.695
X5.2Y-3.84
X5.2Y-3.89
X5.215Y-3.695
X5.31Y-3.7602
X5.345Y-2.6
X5.46Y-3.965
X5.5949Y-3.834
X5.618Y-3.7
X5.645Y-3.834
X5.825Y-3.775
X5.8325Y-3.855
X5.8325Y-3.895
X5.8325Y-3.935
T3
X5.6506Y-3.9393
X5.7305Y-3.9392
T2
G00X5.8833Y-3.7214
M15
G01X5.8833Y-3.745
M16
G05
G00X5.8833Y-3.858
M15
G01X5.8833Y-3.8817
M16
G05
G00X6.1667Y-3.7214
M15
G01X6.1667Y-3.745
M16
G05
G00X6.1667Y-3.858
M15
G01X6.1667Y-3.8817
M16
G05
T0
M30
