G04 #@! TF.GenerationSoftware,KiCad,Pcbnew,5.1.0-rc2-unknown-036be7d~80~ubuntu16.04.1*
G04 #@! TF.CreationDate,2022-02-25T15:09:56+02:00*
G04 #@! TF.ProjectId,USB-gLINK_Rev_D,5553422d-674c-4494-9e4b-5f5265765f44,D*
G04 #@! TF.SameCoordinates,Original*
G04 #@! TF.FileFunction,Soldermask,Bot*
G04 #@! TF.FilePolarity,Negative*
%FSLAX46Y46*%
G04 Gerber Fmt 4.6, Leading zero omitted, Abs format (unit mm)*
G04 Created by KiCad (PCBNEW 5.1.0-rc2-unknown-036be7d~80~ubuntu16.04.1) date 2022-02-25 15:09:56*
%MOMM*%
%LPD*%
G04 APERTURE LIST*
%ADD10C,0.100000*%
%ADD11C,0.801600*%
%ADD12R,1.901600X0.801600*%
%ADD13R,2.101600X1.801600*%
%ADD14R,1.101600X1.501600*%
%ADD15R,1.501600X1.101600*%
%ADD16R,1.625600X1.371600*%
%ADD17R,0.601600X0.651600*%
%ADD18C,0.701600*%
%ADD19O,1.301600X1.901600*%
%ADD20R,0.651600X0.601600*%
%ADD21R,1.801600X2.101600*%
%ADD22R,1.117600X1.117600*%
%ADD23C,1.501600*%
%ADD24R,1.501600X1.501600*%
%ADD25C,1.254000*%
%ADD26R,1.301600X0.651600*%
%ADD27R,0.863600X0.609600*%
%ADD28R,0.609600X0.863600*%
%ADD29R,1.001600X1.201600*%
%ADD30R,1.101600X3.391600*%
%ADD31C,1.101600*%
%ADD32C,0.901600*%
G04 APERTURE END LIST*
D10*
G36*
X160147000Y-98806000D02*
G01*
X158877000Y-98806000D01*
X158877000Y-93599000D01*
X160147000Y-93599000D01*
X160147000Y-98806000D01*
G37*
X160147000Y-98806000D02*
X158877000Y-98806000D01*
X158877000Y-93599000D01*
X160147000Y-93599000D01*
X160147000Y-98806000D01*
D11*
X155575000Y-87630000D03*
D12*
X153543000Y-76835000D03*
X157607000Y-76835000D03*
X153543000Y-78105000D03*
X157607000Y-78105000D03*
X153543000Y-79375000D03*
X157607000Y-79375000D03*
X153543000Y-80645000D03*
X157607000Y-80645000D03*
X153543000Y-81915000D03*
X157607000Y-81915000D03*
X153543000Y-83185000D03*
X157607000Y-83185000D03*
X153543000Y-84455000D03*
X157607000Y-84455000D03*
X153543000Y-85725000D03*
X157607000Y-85725000D03*
X153543000Y-86995000D03*
X157607000Y-86995000D03*
X153543000Y-88265000D03*
X157607000Y-88265000D03*
X157607000Y-75565000D03*
X153543000Y-75565000D03*
X157607000Y-74295000D03*
X153543000Y-74295000D03*
X157607000Y-73025000D03*
X153543000Y-73025000D03*
X157607000Y-71755000D03*
X153543000Y-71755000D03*
X157607000Y-70485000D03*
X153543000Y-70485000D03*
X157607000Y-69215000D03*
X153543000Y-69215000D03*
X157607000Y-67945000D03*
X153543000Y-67945000D03*
X157607000Y-66675000D03*
X153543000Y-66675000D03*
X157607000Y-65405000D03*
X153543000Y-65405000D03*
X157607000Y-64135000D03*
X153543000Y-64135000D03*
D11*
X155575000Y-64770000D03*
X131445000Y-87630000D03*
D12*
X129413000Y-76835000D03*
X133477000Y-76835000D03*
X129413000Y-78105000D03*
X133477000Y-78105000D03*
X129413000Y-79375000D03*
X133477000Y-79375000D03*
X129413000Y-80645000D03*
X133477000Y-80645000D03*
X129413000Y-81915000D03*
X133477000Y-81915000D03*
X129413000Y-83185000D03*
X133477000Y-83185000D03*
X129413000Y-84455000D03*
X133477000Y-84455000D03*
X129413000Y-85725000D03*
X133477000Y-85725000D03*
X129413000Y-86995000D03*
X133477000Y-86995000D03*
X129413000Y-88265000D03*
X133477000Y-88265000D03*
X133477000Y-75565000D03*
X129413000Y-75565000D03*
X133477000Y-74295000D03*
X129413000Y-74295000D03*
X133477000Y-73025000D03*
X129413000Y-73025000D03*
X133477000Y-71755000D03*
X129413000Y-71755000D03*
X133477000Y-70485000D03*
X129413000Y-70485000D03*
X133477000Y-69215000D03*
X129413000Y-69215000D03*
X133477000Y-67945000D03*
X129413000Y-67945000D03*
X133477000Y-66675000D03*
X129413000Y-66675000D03*
X133477000Y-65405000D03*
X129413000Y-65405000D03*
X133477000Y-64135000D03*
X129413000Y-64135000D03*
D11*
X131445000Y-64770000D03*
D13*
X133945000Y-92075000D03*
X128945000Y-92075000D03*
D11*
X156654501Y-53605000D03*
X156654501Y-51805000D03*
X144526000Y-93483000D03*
X144526000Y-91683000D03*
D14*
X137220960Y-55082440D03*
X135318500Y-55082440D03*
X136273540Y-52872640D03*
D15*
X130469640Y-52829460D03*
X132679440Y-53784500D03*
X132679440Y-51882040D03*
D14*
X130235960Y-58130440D03*
X128333500Y-58130440D03*
X129288540Y-55920640D03*
D16*
X130682999Y-62230000D03*
X130682999Y-60198000D03*
D17*
X130429000Y-55499000D03*
X131445000Y-55499000D03*
D18*
X151035000Y-96144000D03*
X155035000Y-96144000D03*
D19*
X149435000Y-98294000D03*
X149435000Y-94824000D03*
X156635000Y-94824000D03*
X156635000Y-98294000D03*
D20*
X134112000Y-52324000D03*
X134112000Y-53340000D03*
D17*
X136779000Y-56515000D03*
X135763000Y-56515000D03*
D21*
X139573000Y-93893000D03*
X139573000Y-98893000D03*
D20*
X133921501Y-61595000D03*
X133921501Y-62611000D03*
D22*
X132461000Y-100076000D03*
X130683000Y-100076000D03*
X135636000Y-100076000D03*
X133858000Y-100076000D03*
D23*
X143525240Y-100058220D03*
D24*
X145554700Y-100055680D03*
D14*
X146052540Y-96901000D03*
X147955000Y-96901000D03*
X146999960Y-99110800D03*
D17*
X131699000Y-95377000D03*
X132715000Y-95377000D03*
D22*
X134747000Y-96647000D03*
X136525000Y-96647000D03*
X144780000Y-94869000D03*
X143002000Y-94869000D03*
D20*
X145923000Y-66167000D03*
X145923000Y-65151000D03*
X144780000Y-66167000D03*
X144780000Y-65151000D03*
X141859000Y-66167000D03*
X141859000Y-65151000D03*
X133032501Y-61595000D03*
X133032501Y-62611000D03*
X132143500Y-61595000D03*
X132143500Y-62611000D03*
D16*
X128650999Y-60198000D03*
X128650999Y-62230000D03*
D20*
X133032501Y-59817001D03*
X133032501Y-60833001D03*
X133921499Y-59817000D03*
X133921499Y-60833000D03*
D14*
X135702040Y-91856560D03*
X137604500Y-91856560D03*
X136649460Y-94066360D03*
D25*
X127889000Y-51943000D03*
X158750000Y-100330000D03*
D20*
X133858000Y-94361000D03*
X133858000Y-95377000D03*
X141986000Y-99314000D03*
X141986000Y-100330000D03*
X141732000Y-94615000D03*
X141732000Y-95631000D03*
X134112000Y-55753000D03*
X134112000Y-54737000D03*
D17*
X128651000Y-54292500D03*
X129667000Y-54292500D03*
D20*
X157734000Y-90932000D03*
X157734000Y-91948000D03*
D17*
X148844000Y-66040000D03*
X147828000Y-66040000D03*
D20*
X146812000Y-65151000D03*
X146812000Y-66167000D03*
X143891000Y-65151000D03*
X143891000Y-66167000D03*
X142748000Y-65151000D03*
X142748000Y-66167000D03*
D14*
X133537960Y-58130440D03*
X131635500Y-58130440D03*
X132590540Y-55920640D03*
D26*
X144683000Y-96456500D03*
X144683000Y-97406500D03*
X144683000Y-98356500D03*
X142083000Y-96456500D03*
X142083000Y-98356500D03*
D27*
X159131000Y-91059000D03*
X159131000Y-91821000D03*
D20*
X137033000Y-100330000D03*
X137033000Y-99314000D03*
D22*
X147955000Y-94869000D03*
X146177000Y-94869000D03*
D17*
X150495000Y-53086000D03*
X151511000Y-53086000D03*
D16*
X137414000Y-62230000D03*
X137414000Y-60198000D03*
X135382000Y-60198000D03*
X135382000Y-62230000D03*
D20*
X132143502Y-60833000D03*
X132143502Y-59817000D03*
D22*
X136906000Y-98298000D03*
X135128000Y-98298000D03*
D25*
X127889000Y-100330000D03*
D20*
X139700000Y-83820000D03*
X139700000Y-84836000D03*
D17*
X144271999Y-83629500D03*
X145287999Y-83629500D03*
X144272000Y-82740501D03*
X145288000Y-82740501D03*
D20*
X136271000Y-86995000D03*
X136271000Y-85979000D03*
D17*
X128079500Y-90043000D03*
X129095500Y-90043000D03*
X157734000Y-62611000D03*
X158750000Y-62611000D03*
D20*
X148526500Y-82677000D03*
X148526500Y-83693000D03*
D17*
X136398000Y-90297000D03*
X137414000Y-90297000D03*
D20*
X150876000Y-63627000D03*
X150876000Y-64643000D03*
X149860000Y-64897000D03*
X149860000Y-65913000D03*
D22*
X153543000Y-60960000D03*
X153543000Y-59182000D03*
D14*
X153294000Y-57150000D03*
X157094000Y-57150000D03*
X155953460Y-61427360D03*
X156908500Y-59217560D03*
X155006040Y-59217560D03*
D17*
X157734000Y-61722000D03*
X158750000Y-61722000D03*
D20*
X152019000Y-58166000D03*
X152019000Y-57150000D03*
D28*
X151511000Y-61214000D03*
X152273000Y-61214000D03*
D29*
X146812000Y-51942000D03*
X144272000Y-51942000D03*
X141732000Y-51942000D03*
X146812000Y-63892000D03*
X141732000Y-63892000D03*
X144272000Y-63892000D03*
D30*
X149630000Y-57912000D03*
X138887000Y-57912000D03*
D31*
X139932000Y-53762000D03*
D32*
X148932000Y-62062000D03*
D20*
X137668000Y-64135000D03*
X137668000Y-65151000D03*
X137414000Y-67183000D03*
X137414000Y-66167000D03*
X135636000Y-64135000D03*
X135636000Y-65151000D03*
X136652000Y-64135000D03*
X136652000Y-65151000D03*
X138684000Y-65532000D03*
X138684000Y-64516000D03*
X136525000Y-67183000D03*
X136525000Y-66167000D03*
D26*
X133380100Y-96586000D03*
X133380100Y-97536000D03*
X133380100Y-98486000D03*
X130779900Y-98486000D03*
X130779900Y-97536000D03*
X130779900Y-96586000D03*
M02*
