G04 #@! TF.GenerationSoftware,KiCad,Pcbnew,5.1.0-rc2-unknown-036be7d~80~ubuntu16.04.1*
G04 #@! TF.CreationDate,2022-02-25T15:09:56+02:00*
G04 #@! TF.ProjectId,USB-gLINK_Rev_D,5553422d-674c-4494-9e4b-5f5265765f44,D*
G04 #@! TF.SameCoordinates,Original*
G04 #@! TF.FileFunction,Paste,Top*
G04 #@! TF.FilePolarity,Positive*
%FSLAX46Y46*%
G04 Gerber Fmt 4.6, Leading zero omitted, Abs format (unit mm)*
G04 Created by KiCad (PCBNEW 5.1.0-rc2-unknown-036be7d~80~ubuntu16.04.1) date 2022-02-25 15:09:56*
%MOMM*%
%LPD*%
G04 APERTURE LIST*
%ADD10R,2.700000X3.600000*%
%ADD11R,1.327000X1.754000*%
%ADD12R,0.500000X1.650000*%
%ADD13R,0.396120X1.721120*%
%ADD14R,1.354000X1.254000*%
%ADD15R,0.550000X0.500000*%
%ADD16C,2.000000*%
%ADD17C,0.100000*%
%ADD18C,1.100000*%
%ADD19C,0.800000*%
%ADD20R,0.800000X0.800000*%
%ADD21R,0.500000X0.550000*%
%ADD22R,1.202400X2.352400*%
%ADD23R,1.202400X1.202400*%
G04 APERTURE END LIST*
D10*
X138905000Y-96393000D03*
X128905000Y-96393000D03*
D11*
X154264501Y-52705000D03*
X159044501Y-52705000D03*
X142136000Y-92583000D03*
X146916000Y-92583000D03*
D12*
X151647500Y-94894000D03*
D13*
X152385000Y-94894000D03*
X153035000Y-94894000D03*
X153685000Y-94894000D03*
D12*
X154422500Y-94894000D03*
D14*
X151535000Y-99444000D03*
X154535000Y-99444000D03*
D15*
X140843000Y-55880000D03*
X140843000Y-54864000D03*
X141732000Y-54864000D03*
X141732000Y-55880000D03*
X142621000Y-54864000D03*
X142621000Y-55880000D03*
D16*
X143446500Y-68660000D03*
D17*
G36*
X141946500Y-67660000D02*
G01*
X144946500Y-67660000D01*
X144946500Y-69660000D01*
X141946500Y-69660000D01*
X141946500Y-67660000D01*
X141946500Y-67660000D01*
G37*
D16*
X143446500Y-65460000D03*
D17*
G36*
X141946500Y-64460000D02*
G01*
X144946500Y-64460000D01*
X144946500Y-66460000D01*
X141946500Y-66460000D01*
X141946500Y-64460000D01*
X141946500Y-64460000D01*
G37*
D16*
X138646500Y-65460000D03*
D17*
G36*
X137146500Y-64460000D02*
G01*
X140146500Y-64460000D01*
X140146500Y-66460000D01*
X137146500Y-66460000D01*
X137146500Y-64460000D01*
X137146500Y-64460000D01*
G37*
D16*
X153046500Y-68660000D03*
D17*
G36*
X151546500Y-67660000D02*
G01*
X154546500Y-67660000D01*
X154546500Y-69660000D01*
X151546500Y-69660000D01*
X151546500Y-67660000D01*
X151546500Y-67660000D01*
G37*
D16*
X148246500Y-68660000D03*
D17*
G36*
X146746500Y-67660000D02*
G01*
X149746500Y-67660000D01*
X149746500Y-69660000D01*
X146746500Y-69660000D01*
X146746500Y-67660000D01*
X146746500Y-67660000D01*
G37*
D16*
X153046500Y-65460000D03*
D17*
G36*
X151546500Y-64460000D02*
G01*
X154546500Y-64460000D01*
X154546500Y-66460000D01*
X151546500Y-66460000D01*
X151546500Y-64460000D01*
X151546500Y-64460000D01*
G37*
D16*
X138646500Y-68660000D03*
D17*
G36*
X137146500Y-67660000D02*
G01*
X140146500Y-67660000D01*
X140146500Y-69660000D01*
X137146500Y-69660000D01*
X137146500Y-67660000D01*
X137146500Y-67660000D01*
G37*
D16*
X148246500Y-65460000D03*
D17*
G36*
X146746500Y-64460000D02*
G01*
X149746500Y-64460000D01*
X149746500Y-66460000D01*
X146746500Y-66460000D01*
X146746500Y-64460000D01*
X146746500Y-64460000D01*
G37*
D16*
X133846500Y-65460000D03*
D17*
G36*
X132346500Y-64460000D02*
G01*
X135346500Y-64460000D01*
X135346500Y-66460000D01*
X132346500Y-66460000D01*
X132346500Y-64460000D01*
X132346500Y-64460000D01*
G37*
D16*
X133846500Y-68660000D03*
D17*
G36*
X132346500Y-67660000D02*
G01*
X135346500Y-67660000D01*
X135346500Y-69660000D01*
X132346500Y-69660000D01*
X132346500Y-67660000D01*
X132346500Y-67660000D01*
G37*
D16*
X148246500Y-75260000D03*
D17*
G36*
X146746500Y-74260000D02*
G01*
X149746500Y-74260000D01*
X149746500Y-76260000D01*
X146746500Y-76260000D01*
X146746500Y-74260000D01*
X146746500Y-74260000D01*
G37*
D16*
X148246500Y-72060000D03*
D17*
G36*
X146746500Y-71060000D02*
G01*
X149746500Y-71060000D01*
X149746500Y-73060000D01*
X146746500Y-73060000D01*
X146746500Y-71060000D01*
X146746500Y-71060000D01*
G37*
D16*
X138646500Y-72060000D03*
D17*
G36*
X137146500Y-71060000D02*
G01*
X140146500Y-71060000D01*
X140146500Y-73060000D01*
X137146500Y-73060000D01*
X137146500Y-71060000D01*
X137146500Y-71060000D01*
G37*
D16*
X153046500Y-75260000D03*
D17*
G36*
X151546500Y-74260000D02*
G01*
X154546500Y-74260000D01*
X154546500Y-76260000D01*
X151546500Y-76260000D01*
X151546500Y-74260000D01*
X151546500Y-74260000D01*
G37*
D16*
X153046500Y-72060000D03*
D17*
G36*
X151546500Y-71060000D02*
G01*
X154546500Y-71060000D01*
X154546500Y-73060000D01*
X151546500Y-73060000D01*
X151546500Y-71060000D01*
X151546500Y-71060000D01*
G37*
D16*
X138646500Y-75260000D03*
D17*
G36*
X137146500Y-74260000D02*
G01*
X140146500Y-74260000D01*
X140146500Y-76260000D01*
X137146500Y-76260000D01*
X137146500Y-74260000D01*
X137146500Y-74260000D01*
G37*
D16*
X133846500Y-72060000D03*
D17*
G36*
X132346500Y-71060000D02*
G01*
X135346500Y-71060000D01*
X135346500Y-73060000D01*
X132346500Y-73060000D01*
X132346500Y-71060000D01*
X132346500Y-71060000D01*
G37*
D16*
X133846500Y-75260000D03*
D17*
G36*
X132346500Y-74260000D02*
G01*
X135346500Y-74260000D01*
X135346500Y-76260000D01*
X132346500Y-76260000D01*
X132346500Y-74260000D01*
X132346500Y-74260000D01*
G37*
D16*
X143446500Y-78660000D03*
D17*
G36*
X141946500Y-77660000D02*
G01*
X144946500Y-77660000D01*
X144946500Y-79660000D01*
X141946500Y-79660000D01*
X141946500Y-77660000D01*
X141946500Y-77660000D01*
G37*
D16*
X148246500Y-78660000D03*
D17*
G36*
X146746500Y-77660000D02*
G01*
X149746500Y-77660000D01*
X149746500Y-79660000D01*
X146746500Y-79660000D01*
X146746500Y-77660000D01*
X146746500Y-77660000D01*
G37*
D16*
X153046500Y-78660000D03*
D17*
G36*
X151546500Y-77660000D02*
G01*
X154546500Y-77660000D01*
X154546500Y-79660000D01*
X151546500Y-79660000D01*
X151546500Y-77660000D01*
X151546500Y-77660000D01*
G37*
D16*
X138646500Y-78660000D03*
D17*
G36*
X137146500Y-77660000D02*
G01*
X140146500Y-77660000D01*
X140146500Y-79660000D01*
X137146500Y-79660000D01*
X137146500Y-77660000D01*
X137146500Y-77660000D01*
G37*
D16*
X133846500Y-78660000D03*
D17*
G36*
X132346500Y-77660000D02*
G01*
X135346500Y-77660000D01*
X135346500Y-79660000D01*
X132346500Y-79660000D01*
X132346500Y-77660000D01*
X132346500Y-77660000D01*
G37*
D16*
X153046500Y-81860000D03*
D17*
G36*
X151546500Y-80860000D02*
G01*
X154546500Y-80860000D01*
X154546500Y-82860000D01*
X151546500Y-82860000D01*
X151546500Y-80860000D01*
X151546500Y-80860000D01*
G37*
D16*
X148246500Y-81860000D03*
D17*
G36*
X146746500Y-80860000D02*
G01*
X149746500Y-80860000D01*
X149746500Y-82860000D01*
X146746500Y-82860000D01*
X146746500Y-80860000D01*
X146746500Y-80860000D01*
G37*
D16*
X143446500Y-81860000D03*
D17*
G36*
X141946500Y-80860000D02*
G01*
X144946500Y-80860000D01*
X144946500Y-82860000D01*
X141946500Y-82860000D01*
X141946500Y-80860000D01*
X141946500Y-80860000D01*
G37*
D16*
X138646500Y-81860000D03*
D17*
G36*
X137146500Y-80860000D02*
G01*
X140146500Y-80860000D01*
X140146500Y-82860000D01*
X137146500Y-82860000D01*
X137146500Y-80860000D01*
X137146500Y-80860000D01*
G37*
D16*
X133846500Y-81860000D03*
D17*
G36*
X132346500Y-80860000D02*
G01*
X135346500Y-80860000D01*
X135346500Y-82860000D01*
X132346500Y-82860000D01*
X132346500Y-80860000D01*
X132346500Y-80860000D01*
G37*
D18*
X144446500Y-84660000D03*
D17*
G36*
X143896500Y-84110000D02*
G01*
X144996500Y-84110000D01*
X144996500Y-85210000D01*
X143896500Y-85210000D01*
X143896500Y-84110000D01*
X143896500Y-84110000D01*
G37*
D18*
X150446500Y-86660000D03*
D17*
G36*
X149896500Y-86110000D02*
G01*
X150996500Y-86110000D01*
X150996500Y-87210000D01*
X149896500Y-87210000D01*
X149896500Y-86110000D01*
X149896500Y-86110000D01*
G37*
D18*
X146446500Y-84660000D03*
D17*
G36*
X145896500Y-84110000D02*
G01*
X146996500Y-84110000D01*
X146996500Y-85210000D01*
X145896500Y-85210000D01*
X145896500Y-84110000D01*
X145896500Y-84110000D01*
G37*
D18*
X152446500Y-84660000D03*
D17*
G36*
X151896500Y-84110000D02*
G01*
X152996500Y-84110000D01*
X152996500Y-85210000D01*
X151896500Y-85210000D01*
X151896500Y-84110000D01*
X151896500Y-84110000D01*
G37*
D18*
X150446500Y-84660000D03*
D17*
G36*
X149896500Y-84110000D02*
G01*
X150996500Y-84110000D01*
X150996500Y-85210000D01*
X149896500Y-85210000D01*
X149896500Y-84110000D01*
X149896500Y-84110000D01*
G37*
D18*
X144446500Y-86660000D03*
D17*
G36*
X143896500Y-86110000D02*
G01*
X144996500Y-86110000D01*
X144996500Y-87210000D01*
X143896500Y-87210000D01*
X143896500Y-86110000D01*
X143896500Y-86110000D01*
G37*
D18*
X148446500Y-84660000D03*
D17*
G36*
X147896500Y-84110000D02*
G01*
X148996500Y-84110000D01*
X148996500Y-85210000D01*
X147896500Y-85210000D01*
X147896500Y-84110000D01*
X147896500Y-84110000D01*
G37*
D18*
X148446500Y-86660000D03*
D17*
G36*
X147896500Y-86110000D02*
G01*
X148996500Y-86110000D01*
X148996500Y-87210000D01*
X147896500Y-87210000D01*
X147896500Y-86110000D01*
X147896500Y-86110000D01*
G37*
D18*
X154446500Y-84660000D03*
D17*
G36*
X153896500Y-84110000D02*
G01*
X154996500Y-84110000D01*
X154996500Y-85210000D01*
X153896500Y-85210000D01*
X153896500Y-84110000D01*
X153896500Y-84110000D01*
G37*
D18*
X154446500Y-86660000D03*
D17*
G36*
X153896500Y-86110000D02*
G01*
X154996500Y-86110000D01*
X154996500Y-87210000D01*
X153896500Y-87210000D01*
X153896500Y-86110000D01*
X153896500Y-86110000D01*
G37*
D18*
X146446500Y-86660000D03*
D17*
G36*
X145896500Y-86110000D02*
G01*
X146996500Y-86110000D01*
X146996500Y-87210000D01*
X145896500Y-87210000D01*
X145896500Y-86110000D01*
X145896500Y-86110000D01*
G37*
D18*
X152446500Y-86660000D03*
D17*
G36*
X151896500Y-86110000D02*
G01*
X152996500Y-86110000D01*
X152996500Y-87210000D01*
X151896500Y-87210000D01*
X151896500Y-86110000D01*
X151896500Y-86110000D01*
G37*
D18*
X142446500Y-84660000D03*
D17*
G36*
X141896500Y-84110000D02*
G01*
X142996500Y-84110000D01*
X142996500Y-85210000D01*
X141896500Y-85210000D01*
X141896500Y-84110000D01*
X141896500Y-84110000D01*
G37*
D18*
X142446500Y-86660000D03*
D17*
G36*
X141896500Y-86110000D02*
G01*
X142996500Y-86110000D01*
X142996500Y-87210000D01*
X141896500Y-87210000D01*
X141896500Y-86110000D01*
X141896500Y-86110000D01*
G37*
D18*
X140446500Y-86660000D03*
D17*
G36*
X139896500Y-86110000D02*
G01*
X140996500Y-86110000D01*
X140996500Y-87210000D01*
X139896500Y-87210000D01*
X139896500Y-86110000D01*
X139896500Y-86110000D01*
G37*
D18*
X140446500Y-84660000D03*
D17*
G36*
X139896500Y-84110000D02*
G01*
X140996500Y-84110000D01*
X140996500Y-85210000D01*
X139896500Y-85210000D01*
X139896500Y-84110000D01*
X139896500Y-84110000D01*
G37*
D18*
X138446500Y-84660000D03*
D17*
G36*
X137896500Y-84110000D02*
G01*
X138996500Y-84110000D01*
X138996500Y-85210000D01*
X137896500Y-85210000D01*
X137896500Y-84110000D01*
X137896500Y-84110000D01*
G37*
D18*
X138446500Y-86660000D03*
D17*
G36*
X137896500Y-86110000D02*
G01*
X138996500Y-86110000D01*
X138996500Y-87210000D01*
X137896500Y-87210000D01*
X137896500Y-86110000D01*
X137896500Y-86110000D01*
G37*
D18*
X136446500Y-84660000D03*
D17*
G36*
X135896500Y-84110000D02*
G01*
X136996500Y-84110000D01*
X136996500Y-85210000D01*
X135896500Y-85210000D01*
X135896500Y-84110000D01*
X135896500Y-84110000D01*
G37*
D18*
X136446500Y-86660000D03*
D17*
G36*
X135896500Y-86110000D02*
G01*
X136996500Y-86110000D01*
X136996500Y-87210000D01*
X135896500Y-87210000D01*
X135896500Y-86110000D01*
X135896500Y-86110000D01*
G37*
D18*
X134446500Y-84660000D03*
D17*
G36*
X133896500Y-84110000D02*
G01*
X134996500Y-84110000D01*
X134996500Y-85210000D01*
X133896500Y-85210000D01*
X133896500Y-84110000D01*
X133896500Y-84110000D01*
G37*
D18*
X134446500Y-86660000D03*
D17*
G36*
X133896500Y-86110000D02*
G01*
X134996500Y-86110000D01*
X134996500Y-87210000D01*
X133896500Y-87210000D01*
X133896500Y-86110000D01*
X133896500Y-86110000D01*
G37*
D18*
X132446500Y-84660000D03*
D17*
G36*
X131896500Y-84110000D02*
G01*
X132996500Y-84110000D01*
X132996500Y-85210000D01*
X131896500Y-85210000D01*
X131896500Y-84110000D01*
X131896500Y-84110000D01*
G37*
D18*
X132446500Y-86660000D03*
D17*
G36*
X131896500Y-86110000D02*
G01*
X132996500Y-86110000D01*
X132996500Y-87210000D01*
X131896500Y-87210000D01*
X131896500Y-86110000D01*
X131896500Y-86110000D01*
G37*
D19*
X129196500Y-70210000D03*
D17*
G36*
X127946500Y-70610000D02*
G01*
X127946500Y-69810000D01*
X130446500Y-69810000D01*
X130446500Y-70610000D01*
X127946500Y-70610000D01*
X127946500Y-70610000D01*
G37*
D19*
X129196500Y-67610000D03*
D17*
G36*
X127946500Y-68010000D02*
G01*
X127946500Y-67210000D01*
X130446500Y-67210000D01*
X130446500Y-68010000D01*
X127946500Y-68010000D01*
X127946500Y-68010000D01*
G37*
D19*
X129196500Y-80610000D03*
D17*
G36*
X127946500Y-81010000D02*
G01*
X127946500Y-80210000D01*
X130446500Y-80210000D01*
X130446500Y-81010000D01*
X127946500Y-81010000D01*
X127946500Y-81010000D01*
G37*
D19*
X129196500Y-78010000D03*
D17*
G36*
X127946500Y-78410000D02*
G01*
X127946500Y-77610000D01*
X130446500Y-77610000D01*
X130446500Y-78410000D01*
X127946500Y-78410000D01*
X127946500Y-78410000D01*
G37*
D19*
X129196500Y-71510000D03*
D17*
G36*
X127946500Y-71910000D02*
G01*
X127946500Y-71110000D01*
X130446500Y-71110000D01*
X130446500Y-71910000D01*
X127946500Y-71910000D01*
X127946500Y-71910000D01*
G37*
D19*
X129196500Y-74110000D03*
D17*
G36*
X127946500Y-74510000D02*
G01*
X127946500Y-73710000D01*
X130446500Y-73710000D01*
X130446500Y-74510000D01*
X127946500Y-74510000D01*
X127946500Y-74510000D01*
G37*
D19*
X129196500Y-75410000D03*
D17*
G36*
X127946500Y-75810000D02*
G01*
X127946500Y-75010000D01*
X130446500Y-75010000D01*
X130446500Y-75810000D01*
X127946500Y-75810000D01*
X127946500Y-75810000D01*
G37*
D19*
X129196500Y-66310000D03*
D17*
G36*
X127946500Y-66710000D02*
G01*
X127946500Y-65910000D01*
X130446500Y-65910000D01*
X130446500Y-66710000D01*
X127946500Y-66710000D01*
X127946500Y-66710000D01*
G37*
D19*
X129196500Y-76710000D03*
D17*
G36*
X127946500Y-77110000D02*
G01*
X127946500Y-76310000D01*
X130446500Y-76310000D01*
X130446500Y-77110000D01*
X127946500Y-77110000D01*
X127946500Y-77110000D01*
G37*
D19*
X129196500Y-84510000D03*
D17*
G36*
X127946500Y-84910000D02*
G01*
X127946500Y-84110000D01*
X130446500Y-84110000D01*
X130446500Y-84910000D01*
X127946500Y-84910000D01*
X127946500Y-84910000D01*
G37*
D19*
X129196500Y-68910000D03*
D17*
G36*
X127946500Y-69310000D02*
G01*
X127946500Y-68510000D01*
X130446500Y-68510000D01*
X130446500Y-69310000D01*
X127946500Y-69310000D01*
X127946500Y-69310000D01*
G37*
D19*
X129196500Y-63710000D03*
D17*
G36*
X127946500Y-64110000D02*
G01*
X127946500Y-63310000D01*
X130446500Y-63310000D01*
X130446500Y-64110000D01*
X127946500Y-64110000D01*
X127946500Y-64110000D01*
G37*
D19*
X129196500Y-83210000D03*
D17*
G36*
X127946500Y-83610000D02*
G01*
X127946500Y-82810000D01*
X130446500Y-82810000D01*
X130446500Y-83610000D01*
X127946500Y-83610000D01*
X127946500Y-83610000D01*
G37*
D19*
X129196500Y-61110000D03*
D17*
G36*
X127946500Y-61510000D02*
G01*
X127946500Y-60710000D01*
X130446500Y-60710000D01*
X130446500Y-61510000D01*
X127946500Y-61510000D01*
X127946500Y-61510000D01*
G37*
D19*
X129196500Y-81910000D03*
D17*
G36*
X127946500Y-82310000D02*
G01*
X127946500Y-81510000D01*
X130446500Y-81510000D01*
X130446500Y-82310000D01*
X127946500Y-82310000D01*
X127946500Y-82310000D01*
G37*
D19*
X129196500Y-72810000D03*
D17*
G36*
X127946500Y-73210000D02*
G01*
X127946500Y-72410000D01*
X130446500Y-72410000D01*
X130446500Y-73210000D01*
X127946500Y-73210000D01*
X127946500Y-73210000D01*
G37*
D19*
X129196500Y-85810000D03*
D17*
G36*
X127946500Y-86210000D02*
G01*
X127946500Y-85410000D01*
X130446500Y-85410000D01*
X130446500Y-86210000D01*
X127946500Y-86210000D01*
X127946500Y-86210000D01*
G37*
D19*
X129196500Y-79310000D03*
D17*
G36*
X127946500Y-79710000D02*
G01*
X127946500Y-78910000D01*
X130446500Y-78910000D01*
X130446500Y-79710000D01*
X127946500Y-79710000D01*
X127946500Y-79710000D01*
G37*
D19*
X129196500Y-62410000D03*
D17*
G36*
X127946500Y-62810000D02*
G01*
X127946500Y-62010000D01*
X130446500Y-62010000D01*
X130446500Y-62810000D01*
X127946500Y-62810000D01*
X127946500Y-62810000D01*
G37*
D19*
X129196500Y-65010000D03*
D17*
G36*
X127946500Y-65410000D02*
G01*
X127946500Y-64610000D01*
X130446500Y-64610000D01*
X130446500Y-65410000D01*
X127946500Y-65410000D01*
X127946500Y-65410000D01*
G37*
D19*
X157696500Y-67610000D03*
D17*
G36*
X156446500Y-68010000D02*
G01*
X156446500Y-67210000D01*
X158946500Y-67210000D01*
X158946500Y-68010000D01*
X156446500Y-68010000D01*
X156446500Y-68010000D01*
G37*
D19*
X157696500Y-65010000D03*
D17*
G36*
X156446500Y-65410000D02*
G01*
X156446500Y-64610000D01*
X158946500Y-64610000D01*
X158946500Y-65410000D01*
X156446500Y-65410000D01*
X156446500Y-65410000D01*
G37*
D19*
X157696500Y-61110000D03*
D17*
G36*
X156446500Y-61510000D02*
G01*
X156446500Y-60710000D01*
X158946500Y-60710000D01*
X158946500Y-61510000D01*
X156446500Y-61510000D01*
X156446500Y-61510000D01*
G37*
D19*
X157696500Y-62410000D03*
D17*
G36*
X156446500Y-62810000D02*
G01*
X156446500Y-62010000D01*
X158946500Y-62010000D01*
X158946500Y-62810000D01*
X156446500Y-62810000D01*
X156446500Y-62810000D01*
G37*
D19*
X157696500Y-63710000D03*
D17*
G36*
X156446500Y-64110000D02*
G01*
X156446500Y-63310000D01*
X158946500Y-63310000D01*
X158946500Y-64110000D01*
X156446500Y-64110000D01*
X156446500Y-64110000D01*
G37*
D19*
X157696500Y-71510000D03*
D17*
G36*
X156446500Y-71910000D02*
G01*
X156446500Y-71110000D01*
X158946500Y-71110000D01*
X158946500Y-71910000D01*
X156446500Y-71910000D01*
X156446500Y-71910000D01*
G37*
D19*
X157696500Y-70210000D03*
D17*
G36*
X156446500Y-70610000D02*
G01*
X156446500Y-69810000D01*
X158946500Y-69810000D01*
X158946500Y-70610000D01*
X156446500Y-70610000D01*
X156446500Y-70610000D01*
G37*
D19*
X157696500Y-68910000D03*
D17*
G36*
X156446500Y-69310000D02*
G01*
X156446500Y-68510000D01*
X158946500Y-68510000D01*
X158946500Y-69310000D01*
X156446500Y-69310000D01*
X156446500Y-69310000D01*
G37*
D19*
X157696500Y-72810000D03*
D17*
G36*
X156446500Y-73210000D02*
G01*
X156446500Y-72410000D01*
X158946500Y-72410000D01*
X158946500Y-73210000D01*
X156446500Y-73210000D01*
X156446500Y-73210000D01*
G37*
D19*
X157696500Y-66310000D03*
D17*
G36*
X156446500Y-66710000D02*
G01*
X156446500Y-65910000D01*
X158946500Y-65910000D01*
X158946500Y-66710000D01*
X156446500Y-66710000D01*
X156446500Y-66710000D01*
G37*
D19*
X157696500Y-74110000D03*
D17*
G36*
X156446500Y-74510000D02*
G01*
X156446500Y-73710000D01*
X158946500Y-73710000D01*
X158946500Y-74510000D01*
X156446500Y-74510000D01*
X156446500Y-74510000D01*
G37*
D19*
X157696500Y-75410000D03*
D17*
G36*
X156446500Y-75810000D02*
G01*
X156446500Y-75010000D01*
X158946500Y-75010000D01*
X158946500Y-75810000D01*
X156446500Y-75810000D01*
X156446500Y-75810000D01*
G37*
D19*
X157696500Y-76710000D03*
D17*
G36*
X156446500Y-77110000D02*
G01*
X156446500Y-76310000D01*
X158946500Y-76310000D01*
X158946500Y-77110000D01*
X156446500Y-77110000D01*
X156446500Y-77110000D01*
G37*
D19*
X157696500Y-78010000D03*
D17*
G36*
X156446500Y-78410000D02*
G01*
X156446500Y-77610000D01*
X158946500Y-77610000D01*
X158946500Y-78410000D01*
X156446500Y-78410000D01*
X156446500Y-78410000D01*
G37*
D19*
X157696500Y-79310000D03*
D17*
G36*
X156446500Y-79710000D02*
G01*
X156446500Y-78910000D01*
X158946500Y-78910000D01*
X158946500Y-79710000D01*
X156446500Y-79710000D01*
X156446500Y-79710000D01*
G37*
D19*
X157696500Y-80610000D03*
D17*
G36*
X156446500Y-81010000D02*
G01*
X156446500Y-80210000D01*
X158946500Y-80210000D01*
X158946500Y-81010000D01*
X156446500Y-81010000D01*
X156446500Y-81010000D01*
G37*
D19*
X157696500Y-81910000D03*
D17*
G36*
X156446500Y-82310000D02*
G01*
X156446500Y-81510000D01*
X158946500Y-81510000D01*
X158946500Y-82310000D01*
X156446500Y-82310000D01*
X156446500Y-82310000D01*
G37*
D19*
X157696500Y-83210000D03*
D17*
G36*
X156446500Y-83610000D02*
G01*
X156446500Y-82810000D01*
X158946500Y-82810000D01*
X158946500Y-83610000D01*
X156446500Y-83610000D01*
X156446500Y-83610000D01*
G37*
D19*
X157696500Y-84510000D03*
D17*
G36*
X156446500Y-84910000D02*
G01*
X156446500Y-84110000D01*
X158946500Y-84110000D01*
X158946500Y-84910000D01*
X156446500Y-84910000D01*
X156446500Y-84910000D01*
G37*
D19*
X157696500Y-85810000D03*
D17*
G36*
X156446500Y-86210000D02*
G01*
X156446500Y-85410000D01*
X158946500Y-85410000D01*
X158946500Y-86210000D01*
X156446500Y-86210000D01*
X156446500Y-86210000D01*
G37*
D19*
X136046500Y-57910000D03*
D17*
G36*
X135646500Y-56660000D02*
G01*
X136446500Y-56660000D01*
X136446500Y-59160000D01*
X135646500Y-59160000D01*
X135646500Y-56660000D01*
X135646500Y-56660000D01*
G37*
D19*
X140446500Y-57910000D03*
D17*
G36*
X140046500Y-56660000D02*
G01*
X140846500Y-56660000D01*
X140846500Y-59160000D01*
X140046500Y-59160000D01*
X140046500Y-56660000D01*
X140046500Y-56660000D01*
G37*
D19*
X141746500Y-57910000D03*
D17*
G36*
X141346500Y-56660000D02*
G01*
X142146500Y-56660000D01*
X142146500Y-59160000D01*
X141346500Y-59160000D01*
X141346500Y-56660000D01*
X141346500Y-56660000D01*
G37*
D19*
X133446500Y-57910000D03*
D17*
G36*
X133046500Y-56660000D02*
G01*
X133846500Y-56660000D01*
X133846500Y-59160000D01*
X133046500Y-59160000D01*
X133046500Y-56660000D01*
X133046500Y-56660000D01*
G37*
D19*
X150846500Y-57910000D03*
D17*
G36*
X150446500Y-56660000D02*
G01*
X151246500Y-56660000D01*
X151246500Y-59160000D01*
X150446500Y-59160000D01*
X150446500Y-56660000D01*
X150446500Y-56660000D01*
G37*
D19*
X148246500Y-57910000D03*
D17*
G36*
X147846500Y-56660000D02*
G01*
X148646500Y-56660000D01*
X148646500Y-59160000D01*
X147846500Y-59160000D01*
X147846500Y-56660000D01*
X147846500Y-56660000D01*
G37*
D19*
X143046500Y-57910000D03*
D17*
G36*
X142646500Y-56660000D02*
G01*
X143446500Y-56660000D01*
X143446500Y-59160000D01*
X142646500Y-59160000D01*
X142646500Y-56660000D01*
X142646500Y-56660000D01*
G37*
D19*
X144346500Y-57910000D03*
D17*
G36*
X143946500Y-56660000D02*
G01*
X144746500Y-56660000D01*
X144746500Y-59160000D01*
X143946500Y-59160000D01*
X143946500Y-56660000D01*
X143946500Y-56660000D01*
G37*
D19*
X137346500Y-57910000D03*
D17*
G36*
X136946500Y-56660000D02*
G01*
X137746500Y-56660000D01*
X137746500Y-59160000D01*
X136946500Y-59160000D01*
X136946500Y-56660000D01*
X136946500Y-56660000D01*
G37*
D19*
X134746500Y-57910000D03*
D17*
G36*
X134346500Y-56660000D02*
G01*
X135146500Y-56660000D01*
X135146500Y-59160000D01*
X134346500Y-59160000D01*
X134346500Y-56660000D01*
X134346500Y-56660000D01*
G37*
D19*
X154746500Y-57910000D03*
D17*
G36*
X154346500Y-56660000D02*
G01*
X155146500Y-56660000D01*
X155146500Y-59160000D01*
X154346500Y-59160000D01*
X154346500Y-56660000D01*
X154346500Y-56660000D01*
G37*
D19*
X156046500Y-57910000D03*
D17*
G36*
X155646500Y-56660000D02*
G01*
X156446500Y-56660000D01*
X156446500Y-59160000D01*
X155646500Y-59160000D01*
X155646500Y-56660000D01*
X155646500Y-56660000D01*
G37*
D19*
X130846500Y-57910000D03*
D17*
G36*
X130446500Y-56660000D02*
G01*
X131246500Y-56660000D01*
X131246500Y-59160000D01*
X130446500Y-59160000D01*
X130446500Y-56660000D01*
X130446500Y-56660000D01*
G37*
D19*
X145646500Y-57910000D03*
D17*
G36*
X145246500Y-56660000D02*
G01*
X146046500Y-56660000D01*
X146046500Y-59160000D01*
X145246500Y-59160000D01*
X145246500Y-56660000D01*
X145246500Y-56660000D01*
G37*
D19*
X132146500Y-57910000D03*
D17*
G36*
X131746500Y-56660000D02*
G01*
X132546500Y-56660000D01*
X132546500Y-59160000D01*
X131746500Y-59160000D01*
X131746500Y-56660000D01*
X131746500Y-56660000D01*
G37*
D19*
X149546500Y-57910000D03*
D17*
G36*
X149146500Y-56660000D02*
G01*
X149946500Y-56660000D01*
X149946500Y-59160000D01*
X149146500Y-59160000D01*
X149146500Y-56660000D01*
X149146500Y-56660000D01*
G37*
D19*
X138646500Y-57910000D03*
D17*
G36*
X138246500Y-56660000D02*
G01*
X139046500Y-56660000D01*
X139046500Y-59160000D01*
X138246500Y-59160000D01*
X138246500Y-56660000D01*
X138246500Y-56660000D01*
G37*
D19*
X152146500Y-57910000D03*
D17*
G36*
X151746500Y-56660000D02*
G01*
X152546500Y-56660000D01*
X152546500Y-59160000D01*
X151746500Y-59160000D01*
X151746500Y-56660000D01*
X151746500Y-56660000D01*
G37*
D19*
X146946500Y-57910000D03*
D17*
G36*
X146546500Y-56660000D02*
G01*
X147346500Y-56660000D01*
X147346500Y-59160000D01*
X146546500Y-59160000D01*
X146546500Y-56660000D01*
X146546500Y-56660000D01*
G37*
D19*
X153446500Y-57910000D03*
D17*
G36*
X153046500Y-56660000D02*
G01*
X153846500Y-56660000D01*
X153846500Y-59160000D01*
X153046500Y-59160000D01*
X153046500Y-56660000D01*
X153046500Y-56660000D01*
G37*
D19*
X156046500Y-89410000D03*
D17*
G36*
X155646500Y-88160000D02*
G01*
X156446500Y-88160000D01*
X156446500Y-90660000D01*
X155646500Y-90660000D01*
X155646500Y-88160000D01*
X155646500Y-88160000D01*
G37*
D19*
X154746500Y-89410000D03*
D17*
G36*
X154346500Y-88160000D02*
G01*
X155146500Y-88160000D01*
X155146500Y-90660000D01*
X154346500Y-90660000D01*
X154346500Y-88160000D01*
X154346500Y-88160000D01*
G37*
D19*
X153446500Y-89410000D03*
D17*
G36*
X153046500Y-88160000D02*
G01*
X153846500Y-88160000D01*
X153846500Y-90660000D01*
X153046500Y-90660000D01*
X153046500Y-88160000D01*
X153046500Y-88160000D01*
G37*
D19*
X152146500Y-89410000D03*
D17*
G36*
X151746500Y-88160000D02*
G01*
X152546500Y-88160000D01*
X152546500Y-90660000D01*
X151746500Y-90660000D01*
X151746500Y-88160000D01*
X151746500Y-88160000D01*
G37*
D19*
X150846500Y-89410000D03*
D17*
G36*
X150446500Y-88160000D02*
G01*
X151246500Y-88160000D01*
X151246500Y-90660000D01*
X150446500Y-90660000D01*
X150446500Y-88160000D01*
X150446500Y-88160000D01*
G37*
D19*
X149546500Y-89410000D03*
D17*
G36*
X149146500Y-88160000D02*
G01*
X149946500Y-88160000D01*
X149946500Y-90660000D01*
X149146500Y-90660000D01*
X149146500Y-88160000D01*
X149146500Y-88160000D01*
G37*
D19*
X148246500Y-89410000D03*
D17*
G36*
X147846500Y-88160000D02*
G01*
X148646500Y-88160000D01*
X148646500Y-90660000D01*
X147846500Y-90660000D01*
X147846500Y-88160000D01*
X147846500Y-88160000D01*
G37*
D19*
X146946500Y-89410000D03*
D17*
G36*
X146546500Y-88160000D02*
G01*
X147346500Y-88160000D01*
X147346500Y-90660000D01*
X146546500Y-90660000D01*
X146546500Y-88160000D01*
X146546500Y-88160000D01*
G37*
D19*
X145646500Y-89410000D03*
D17*
G36*
X145246500Y-88160000D02*
G01*
X146046500Y-88160000D01*
X146046500Y-90660000D01*
X145246500Y-90660000D01*
X145246500Y-88160000D01*
X145246500Y-88160000D01*
G37*
D19*
X144346500Y-89410000D03*
D17*
G36*
X143946500Y-88160000D02*
G01*
X144746500Y-88160000D01*
X144746500Y-90660000D01*
X143946500Y-90660000D01*
X143946500Y-88160000D01*
X143946500Y-88160000D01*
G37*
D19*
X143046500Y-89410000D03*
D17*
G36*
X142646500Y-88160000D02*
G01*
X143446500Y-88160000D01*
X143446500Y-90660000D01*
X142646500Y-90660000D01*
X142646500Y-88160000D01*
X142646500Y-88160000D01*
G37*
D19*
X141746500Y-89410000D03*
D17*
G36*
X141346500Y-88160000D02*
G01*
X142146500Y-88160000D01*
X142146500Y-90660000D01*
X141346500Y-90660000D01*
X141346500Y-88160000D01*
X141346500Y-88160000D01*
G37*
D19*
X140446500Y-89410000D03*
D17*
G36*
X140046500Y-88160000D02*
G01*
X140846500Y-88160000D01*
X140846500Y-90660000D01*
X140046500Y-90660000D01*
X140046500Y-88160000D01*
X140046500Y-88160000D01*
G37*
D19*
X138646500Y-89410000D03*
D17*
G36*
X138246500Y-88160000D02*
G01*
X139046500Y-88160000D01*
X139046500Y-90660000D01*
X138246500Y-90660000D01*
X138246500Y-88160000D01*
X138246500Y-88160000D01*
G37*
D19*
X137346500Y-89410000D03*
D17*
G36*
X136946500Y-88160000D02*
G01*
X137746500Y-88160000D01*
X137746500Y-90660000D01*
X136946500Y-90660000D01*
X136946500Y-88160000D01*
X136946500Y-88160000D01*
G37*
D19*
X136046500Y-89410000D03*
D17*
G36*
X135646500Y-88160000D02*
G01*
X136446500Y-88160000D01*
X136446500Y-90660000D01*
X135646500Y-90660000D01*
X135646500Y-88160000D01*
X135646500Y-88160000D01*
G37*
D19*
X134746500Y-89410000D03*
D17*
G36*
X134346500Y-88160000D02*
G01*
X135146500Y-88160000D01*
X135146500Y-90660000D01*
X134346500Y-90660000D01*
X134346500Y-88160000D01*
X134346500Y-88160000D01*
G37*
D19*
X133446500Y-89410000D03*
D17*
G36*
X133046500Y-88160000D02*
G01*
X133846500Y-88160000D01*
X133846500Y-90660000D01*
X133046500Y-90660000D01*
X133046500Y-88160000D01*
X133046500Y-88160000D01*
G37*
D19*
X132146500Y-89410000D03*
D17*
G36*
X131746500Y-88160000D02*
G01*
X132546500Y-88160000D01*
X132546500Y-90660000D01*
X131746500Y-90660000D01*
X131746500Y-88160000D01*
X131746500Y-88160000D01*
G37*
D19*
X130846500Y-89410000D03*
D17*
G36*
X130446500Y-88160000D02*
G01*
X131246500Y-88160000D01*
X131246500Y-90660000D01*
X130446500Y-90660000D01*
X130446500Y-88160000D01*
X130446500Y-88160000D01*
G37*
D20*
X130302000Y-53735899D03*
X130302000Y-52211899D03*
D21*
X155067000Y-92075000D03*
X156083000Y-92075000D03*
X138176000Y-55880000D03*
X139192000Y-55880000D03*
X138176000Y-54864000D03*
X139192000Y-54864000D03*
X144399000Y-55880000D03*
X145415000Y-55880000D03*
X145415000Y-54864000D03*
X144399000Y-54864000D03*
D20*
X143891000Y-96139000D03*
X142367000Y-96139000D03*
D21*
X146304000Y-96139000D03*
X145288000Y-96139000D03*
X155067000Y-93091000D03*
X156083000Y-93091000D03*
X151765000Y-92888500D03*
X150749000Y-92888500D03*
X151765000Y-92011500D03*
X150749000Y-92011500D03*
D15*
X137287000Y-55880000D03*
X137287000Y-54864000D03*
D22*
X142010000Y-52324000D03*
X145010000Y-52324000D03*
D23*
X143510000Y-53824000D03*
X137287000Y-53824000D03*
D22*
X138787000Y-52324000D03*
X135787000Y-52324000D03*
D20*
X132207000Y-52211899D03*
X132207000Y-53735899D03*
X134112000Y-52211899D03*
X134112000Y-53735899D03*
D22*
X148360000Y-52324000D03*
X151360000Y-52324000D03*
D23*
X149860000Y-53824000D03*
D15*
X152654000Y-54864000D03*
X152654000Y-55880000D03*
X149860000Y-55880000D03*
X149860000Y-54864000D03*
D21*
X150749000Y-54864000D03*
X151765000Y-54864000D03*
D15*
X143510000Y-55880000D03*
X143510000Y-54864000D03*
D21*
X127762000Y-90424000D03*
X128778000Y-90424000D03*
M02*
