G04 #@! TF.GenerationSoftware,KiCad,Pcbnew,5.1.0-rc2-unknown-036be7d~80~ubuntu16.04.1*
G04 #@! TF.CreationDate,2022-02-25T15:09:56+02:00*
G04 #@! TF.ProjectId,USB-gLINK_Rev_D,5553422d-674c-4494-9e4b-5f5265765f44,D*
G04 #@! TF.SameCoordinates,Original*
G04 #@! TF.FileFunction,Legend,Top*
G04 #@! TF.FilePolarity,Positive*
%FSLAX46Y46*%
G04 Gerber Fmt 4.6, Leading zero omitted, Abs format (unit mm)*
G04 Created by KiCad (PCBNEW 5.1.0-rc2-unknown-036be7d~80~ubuntu16.04.1) date 2022-02-25 15:09:56*
%MOMM*%
%LPD*%
G04 APERTURE LIST*
%ADD10C,0.127000*%
%ADD11C,0.158750*%
%ADD12C,0.203200*%
%ADD13C,0.190500*%
%ADD14C,0.139700*%
%ADD15C,0.254000*%
%ADD16C,0.100000*%
%ADD17C,0.050000*%
%ADD18C,0.222250*%
%ADD19C,0.508000*%
%ADD20C,0.114300*%
G04 APERTURE END LIST*
D10*
X144208500Y-54356000D02*
X144335501Y-54356000D01*
X144208500Y-54229000D02*
X144208500Y-54356000D01*
X144526000Y-54038500D02*
X144208500Y-54356000D01*
D11*
X159926261Y-86084833D02*
X159926261Y-86447690D01*
X159926261Y-86266261D02*
X159291261Y-86266261D01*
X159381976Y-86326738D01*
X159442452Y-86387214D01*
X159472690Y-86447690D01*
X159926261Y-85480071D02*
X159926261Y-85842928D01*
X159926261Y-85661500D02*
X159291261Y-85661500D01*
X159381976Y-85721976D01*
X159442452Y-85782452D01*
X159472690Y-85842928D01*
X159291261Y-84935785D02*
X159291261Y-85056738D01*
X159321500Y-85117214D01*
X159351738Y-85147452D01*
X159442452Y-85207928D01*
X159563404Y-85238166D01*
X159805309Y-85238166D01*
X159865785Y-85207928D01*
X159896023Y-85177690D01*
X159926261Y-85117214D01*
X159926261Y-84996261D01*
X159896023Y-84935785D01*
X159865785Y-84905547D01*
X159805309Y-84875309D01*
X159654119Y-84875309D01*
X159593642Y-84905547D01*
X159563404Y-84935785D01*
X159533166Y-84996261D01*
X159533166Y-85117214D01*
X159563404Y-85177690D01*
X159593642Y-85207928D01*
X159654119Y-85238166D01*
D12*
X150241000Y-90932000D02*
X147447000Y-90932000D01*
X150241000Y-93726000D02*
X150241000Y-90932000D01*
X147447000Y-93726000D02*
X150241000Y-93726000D01*
X147447000Y-90932000D02*
X147447000Y-93726000D01*
D13*
X127580571Y-59526714D02*
X127217714Y-59526714D01*
X127181428Y-59889571D01*
X127217714Y-59853285D01*
X127290285Y-59817000D01*
X127471714Y-59817000D01*
X127544285Y-59853285D01*
X127580571Y-59889571D01*
X127616857Y-59962142D01*
X127616857Y-60143571D01*
X127580571Y-60216142D01*
X127544285Y-60252428D01*
X127471714Y-60288714D01*
X127290285Y-60288714D01*
X127217714Y-60252428D01*
X127181428Y-60216142D01*
X128306285Y-59526714D02*
X127943428Y-59526714D01*
X127907142Y-59889571D01*
X127943428Y-59853285D01*
X128016000Y-59817000D01*
X128197428Y-59817000D01*
X128270000Y-59853285D01*
X128306285Y-59889571D01*
X128342571Y-59962142D01*
X128342571Y-60143571D01*
X128306285Y-60216142D01*
X128270000Y-60252428D01*
X128197428Y-60288714D01*
X128016000Y-60288714D01*
X127943428Y-60252428D01*
X127907142Y-60216142D01*
X128215571Y-56478714D02*
X127852714Y-56478714D01*
X127816428Y-56841571D01*
X127852714Y-56805285D01*
X127925285Y-56769000D01*
X128106714Y-56769000D01*
X128179285Y-56805285D01*
X128215571Y-56841571D01*
X128251857Y-56914142D01*
X128251857Y-57095571D01*
X128215571Y-57168142D01*
X128179285Y-57204428D01*
X128106714Y-57240714D01*
X127925285Y-57240714D01*
X127852714Y-57204428D01*
X127816428Y-57168142D01*
X128905000Y-56732714D02*
X128905000Y-57240714D01*
X128723571Y-56442428D02*
X128542142Y-56986714D01*
X129013857Y-56986714D01*
X157244142Y-56415214D02*
X157715857Y-56415214D01*
X157461857Y-56705500D01*
X157570714Y-56705500D01*
X157643285Y-56741785D01*
X157679571Y-56778071D01*
X157715857Y-56850642D01*
X157715857Y-57032071D01*
X157679571Y-57104642D01*
X157643285Y-57140928D01*
X157570714Y-57177214D01*
X157353000Y-57177214D01*
X157280428Y-57140928D01*
X157244142Y-57104642D01*
X157969857Y-56415214D02*
X158477857Y-56415214D01*
X158151285Y-57177214D01*
X158387142Y-59653714D02*
X158858857Y-59653714D01*
X158604857Y-59944000D01*
X158713714Y-59944000D01*
X158786285Y-59980285D01*
X158822571Y-60016571D01*
X158858857Y-60089142D01*
X158858857Y-60270571D01*
X158822571Y-60343142D01*
X158786285Y-60379428D01*
X158713714Y-60415714D01*
X158496000Y-60415714D01*
X158423428Y-60379428D01*
X158387142Y-60343142D01*
X159512000Y-59653714D02*
X159366857Y-59653714D01*
X159294285Y-59690000D01*
X159258000Y-59726285D01*
X159185428Y-59835142D01*
X159149142Y-59980285D01*
X159149142Y-60270571D01*
X159185428Y-60343142D01*
X159221714Y-60379428D01*
X159294285Y-60415714D01*
X159439428Y-60415714D01*
X159512000Y-60379428D01*
X159548285Y-60343142D01*
X159584571Y-60270571D01*
X159584571Y-60089142D01*
X159548285Y-60016571D01*
X159512000Y-59980285D01*
X159439428Y-59944000D01*
X159294285Y-59944000D01*
X159221714Y-59980285D01*
X159185428Y-60016571D01*
X159149142Y-60089142D01*
D14*
X147792923Y-91661040D02*
X147792923Y-92113402D01*
X147819533Y-92166621D01*
X147846142Y-92193230D01*
X147899361Y-92219840D01*
X148005800Y-92219840D01*
X148059019Y-92193230D01*
X148085628Y-92166621D01*
X148112238Y-92113402D01*
X148112238Y-91661040D01*
X148351723Y-92193230D02*
X148431552Y-92219840D01*
X148564600Y-92219840D01*
X148617819Y-92193230D01*
X148644428Y-92166621D01*
X148671038Y-92113402D01*
X148671038Y-92060183D01*
X148644428Y-92006964D01*
X148617819Y-91980354D01*
X148564600Y-91953745D01*
X148458161Y-91927135D01*
X148404942Y-91900526D01*
X148378333Y-91873916D01*
X148351723Y-91820697D01*
X148351723Y-91767478D01*
X148378333Y-91714259D01*
X148404942Y-91687650D01*
X148458161Y-91661040D01*
X148591209Y-91661040D01*
X148671038Y-91687650D01*
X149096790Y-91927135D02*
X149176619Y-91953745D01*
X149203228Y-91980354D01*
X149229838Y-92033573D01*
X149229838Y-92113402D01*
X149203228Y-92166621D01*
X149176619Y-92193230D01*
X149123400Y-92219840D01*
X148910523Y-92219840D01*
X148910523Y-91661040D01*
X149096790Y-91661040D01*
X149150009Y-91687650D01*
X149176619Y-91714259D01*
X149203228Y-91767478D01*
X149203228Y-91820697D01*
X149176619Y-91873916D01*
X149150009Y-91900526D01*
X149096790Y-91927135D01*
X148910523Y-91927135D01*
X149469323Y-92006964D02*
X149895076Y-92006964D01*
X148032409Y-92825207D02*
X148032409Y-93277569D01*
X148005800Y-93330788D01*
X147979190Y-93357397D01*
X147925971Y-93384007D01*
X147846142Y-93384007D01*
X147792923Y-93357397D01*
X148032409Y-93171130D02*
X147979190Y-93197740D01*
X147872752Y-93197740D01*
X147819533Y-93171130D01*
X147792923Y-93144521D01*
X147766314Y-93091302D01*
X147766314Y-92931645D01*
X147792923Y-92878426D01*
X147819533Y-92851816D01*
X147872752Y-92825207D01*
X147979190Y-92825207D01*
X148032409Y-92851816D01*
X148564600Y-93197740D02*
X148298504Y-93197740D01*
X148298504Y-92638940D01*
X148750866Y-93197740D02*
X148750866Y-92638940D01*
X149016961Y-93197740D02*
X149016961Y-92638940D01*
X149336276Y-93197740D01*
X149336276Y-92638940D01*
X149602371Y-93197740D02*
X149602371Y-92638940D01*
X149921685Y-93197740D02*
X149682200Y-92878426D01*
X149921685Y-92638940D02*
X149602371Y-92958254D01*
D15*
X147885452Y-100529571D02*
X148659547Y-100529571D01*
X148272500Y-100916619D02*
X148272500Y-100142523D01*
X140392452Y-100339071D02*
X141166547Y-100339071D01*
X141852952Y-100910571D02*
X142627047Y-100910571D01*
X146424952Y-100910571D02*
X147199047Y-100910571D01*
X146812000Y-101297619D02*
X146812000Y-100523523D01*
D13*
X157207857Y-91022714D02*
X156772428Y-91022714D01*
X156990142Y-91022714D02*
X156990142Y-90260714D01*
X156917571Y-90369571D01*
X156845000Y-90442142D01*
X156772428Y-90478428D01*
X157643285Y-90587285D02*
X157570714Y-90551000D01*
X157534428Y-90514714D01*
X157498142Y-90442142D01*
X157498142Y-90405857D01*
X157534428Y-90333285D01*
X157570714Y-90297000D01*
X157643285Y-90260714D01*
X157788428Y-90260714D01*
X157861000Y-90297000D01*
X157897285Y-90333285D01*
X157933571Y-90405857D01*
X157933571Y-90442142D01*
X157897285Y-90514714D01*
X157861000Y-90551000D01*
X157788428Y-90587285D01*
X157643285Y-90587285D01*
X157570714Y-90623571D01*
X157534428Y-90659857D01*
X157498142Y-90732428D01*
X157498142Y-90877571D01*
X157534428Y-90950142D01*
X157570714Y-90986428D01*
X157643285Y-91022714D01*
X157788428Y-91022714D01*
X157861000Y-90986428D01*
X157897285Y-90950142D01*
X157933571Y-90877571D01*
X157933571Y-90732428D01*
X157897285Y-90659857D01*
X157861000Y-90623571D01*
X157788428Y-90587285D01*
D15*
X139505000Y-101593000D02*
X139505000Y-98693000D01*
X139505000Y-91193000D02*
X139505000Y-94093000D01*
X128305000Y-91193000D02*
X128305000Y-94093000D01*
X139505000Y-101593000D02*
X131111000Y-101593000D01*
X128305000Y-91193000D02*
X139505000Y-91193000D01*
D10*
X157494239Y-52705000D02*
G75*
G03X157494239Y-52705000I-839738J0D01*
G01*
X158654501Y-51766000D02*
X158654501Y-51207200D01*
X158654501Y-54202800D02*
X158654501Y-53593200D01*
X154654501Y-51766000D02*
X154654501Y-51207200D01*
X154654501Y-54202000D02*
X154654501Y-53643200D01*
X158654501Y-51205000D02*
X154654501Y-51205000D01*
X158654501Y-54205000D02*
X154654501Y-54205000D01*
X145365738Y-92583000D02*
G75*
G03X145365738Y-92583000I-839738J0D01*
G01*
X146526000Y-91644000D02*
X146526000Y-91085200D01*
X146526000Y-94080800D02*
X146526000Y-93471200D01*
X142526000Y-91644000D02*
X142526000Y-91085200D01*
X142526000Y-94080000D02*
X142526000Y-93521200D01*
X146526000Y-91083000D02*
X142526000Y-91083000D01*
X146526000Y-94083000D02*
X142526000Y-94083000D01*
D15*
X148971000Y-101473000D02*
X149352000Y-100457000D01*
X157099000Y-101473000D02*
X156718000Y-100457000D01*
X156735000Y-95944000D02*
X156735000Y-97144000D01*
X149335000Y-100444000D02*
X149335000Y-99444000D01*
X157099000Y-101544000D02*
X148971000Y-101544000D01*
X156735000Y-99444000D02*
X156735000Y-100444000D01*
X155835000Y-94444000D02*
X154835000Y-94444000D01*
X151235000Y-94444000D02*
X150235000Y-94444000D01*
X149335000Y-95944000D02*
X149335000Y-97144000D01*
X156735000Y-100444000D02*
X149335000Y-100444000D01*
X140398500Y-55372000D02*
X140398500Y-55118000D01*
X140398500Y-55372000D02*
X140398500Y-55626000D01*
X141287500Y-55372000D02*
X141287500Y-55626000D01*
X141287500Y-55372000D02*
X141287500Y-55118000D01*
X142176500Y-55372000D02*
X142176500Y-55626000D01*
X142176500Y-55372000D02*
X142176500Y-55118000D01*
X141287500Y-55372000D02*
X141287500Y-55118000D01*
X141287500Y-55372000D02*
X141287500Y-55626000D01*
X143065500Y-55372000D02*
X143065500Y-55626000D01*
X143065500Y-55372000D02*
X143065500Y-55118000D01*
X142176500Y-55372000D02*
X142176500Y-55118000D01*
X142176500Y-55372000D02*
X142176500Y-55626000D01*
D12*
X149346500Y-63660000D02*
X149346500Y-61960000D01*
X149346500Y-61960000D02*
X137546500Y-61960000D01*
X137546500Y-63660000D02*
X137546500Y-61960000D01*
X149346500Y-63660000D02*
X137546500Y-63660000D01*
X145846500Y-69910000D02*
X145596500Y-69410000D01*
X145846500Y-69910000D02*
X146096500Y-69410000D01*
X145846500Y-63660000D02*
X145846500Y-69910000D01*
X141046500Y-69910000D02*
X141296500Y-69410000D01*
X141046500Y-69910000D02*
X140796500Y-69410000D01*
X141046500Y-63660000D02*
X141046500Y-69910000D01*
D16*
G36*
X140646500Y-77160000D02*
G01*
X140646500Y-70160000D01*
X146246500Y-70160000D01*
X146246500Y-77160000D01*
X140646500Y-77160000D01*
G37*
D15*
X129696500Y-89660000D02*
X128946500Y-88910000D01*
X128946500Y-58410000D02*
X128946500Y-60160000D01*
X129696500Y-89660000D02*
X129946500Y-89660000D01*
X129696500Y-57660000D02*
X129946500Y-57660000D01*
X157946500Y-88910000D02*
X157946500Y-86660000D01*
X157196500Y-89660000D02*
X156946500Y-89660000D01*
X157946500Y-58410000D02*
X157946500Y-60160000D01*
X157196500Y-57660000D02*
X156946500Y-57660000D01*
X128946500Y-86410000D02*
X128946500Y-88910000D01*
D10*
X129717800Y-54370899D02*
X129717800Y-53354899D01*
X130937000Y-53354899D02*
X130937000Y-54370899D01*
D16*
X130302000Y-52713899D02*
X130302000Y-53233899D01*
X130412000Y-52883899D02*
X130192000Y-52883899D01*
X130412000Y-52883899D02*
X130312000Y-52993899D01*
X130192000Y-52883899D02*
X130292000Y-52983899D01*
X130412000Y-53073899D02*
X130192000Y-53073899D01*
D17*
X130056400Y-53151699D02*
X129946400Y-53021699D01*
X129947400Y-53020099D02*
X129957400Y-53100099D01*
X129947400Y-53020099D02*
X130027400Y-53020099D01*
X129947400Y-52804699D02*
X130027400Y-52804699D01*
X129947400Y-52804699D02*
X129957400Y-52884699D01*
X130077400Y-52944699D02*
X129967400Y-52814699D01*
D15*
X130873500Y-54383599D02*
X130746500Y-54535999D01*
X129781300Y-54383599D02*
X129908300Y-54523299D01*
X130746500Y-54535999D02*
X129921000Y-54535999D01*
X129819400Y-54370899D02*
X130860800Y-54370899D01*
X147543520Y-101645720D02*
X147543520Y-97152460D01*
X141508480Y-101645720D02*
X147543520Y-101645720D01*
X141508480Y-97129600D02*
X141508480Y-101645720D01*
X147556220Y-97129600D02*
X141508480Y-97129600D01*
X155575000Y-91630500D02*
X155829000Y-91630500D01*
X155575000Y-91630500D02*
X155321000Y-91630500D01*
X155575000Y-92519500D02*
X155321000Y-92519500D01*
X155575000Y-92519500D02*
X155829000Y-92519500D01*
X138684000Y-55435500D02*
X138938000Y-55435500D01*
X138684000Y-55435500D02*
X138430000Y-55435500D01*
X138684000Y-56324500D02*
X138430000Y-56324500D01*
X138684000Y-56324500D02*
X138938000Y-56324500D01*
X138684000Y-54419500D02*
X138938000Y-54419500D01*
X138684000Y-54419500D02*
X138430000Y-54419500D01*
X138684000Y-55308500D02*
X138430000Y-55308500D01*
X138684000Y-55308500D02*
X138938000Y-55308500D01*
X144907000Y-55435500D02*
X145161000Y-55435500D01*
X144907000Y-55435500D02*
X144653000Y-55435500D01*
X144907000Y-56324500D02*
X144653000Y-56324500D01*
X144907000Y-56324500D02*
X145161000Y-56324500D01*
X144907000Y-55308500D02*
X145161000Y-55308500D01*
X144907000Y-55308500D02*
X144653000Y-55308500D01*
X144907000Y-54419500D02*
X144653000Y-54419500D01*
X144907000Y-54419500D02*
X145161000Y-54419500D01*
D10*
X144526000Y-96723200D02*
X143510000Y-96723200D01*
X143510000Y-95504000D02*
X144526000Y-95504000D01*
D16*
X142869000Y-96139000D02*
X143389000Y-96139000D01*
X143039000Y-96029000D02*
X143039000Y-96249000D01*
X143039000Y-96029000D02*
X143149000Y-96129000D01*
X143039000Y-96249000D02*
X143139000Y-96149000D01*
X143229000Y-96029000D02*
X143229000Y-96249000D01*
D17*
X143306800Y-96384600D02*
X143176800Y-96494600D01*
X143175200Y-96493600D02*
X143255200Y-96483600D01*
X143175200Y-96493600D02*
X143175200Y-96413600D01*
X142959800Y-96493600D02*
X142959800Y-96413600D01*
X142959800Y-96493600D02*
X143039800Y-96483600D01*
X143099800Y-96363600D02*
X142969800Y-96473600D01*
D15*
X144538700Y-95567500D02*
X144691100Y-95694500D01*
X144538700Y-96659700D02*
X144678400Y-96532700D01*
X144691100Y-95694500D02*
X144691100Y-96520000D01*
X144526000Y-96621600D02*
X144526000Y-95580200D01*
X145796000Y-96583500D02*
X145542000Y-96583500D01*
X145796000Y-96583500D02*
X146050000Y-96583500D01*
X145796000Y-95694500D02*
X146050000Y-95694500D01*
X145796000Y-95694500D02*
X145542000Y-95694500D01*
X155575000Y-92646500D02*
X155829000Y-92646500D01*
X155575000Y-92646500D02*
X155321000Y-92646500D01*
X155575000Y-93535500D02*
X155321000Y-93535500D01*
X155575000Y-93535500D02*
X155829000Y-93535500D01*
X151257000Y-93333000D02*
X151003000Y-93333000D01*
X151257000Y-93333000D02*
X151511000Y-93333000D01*
X151257000Y-92444000D02*
X151511000Y-92444000D01*
X151257000Y-92444000D02*
X151003000Y-92444000D01*
X151257000Y-92456000D02*
X151003000Y-92456000D01*
X151257000Y-92456000D02*
X151511000Y-92456000D01*
X151257000Y-91567000D02*
X151511000Y-91567000D01*
X151257000Y-91567000D02*
X151003000Y-91567000D01*
X136842500Y-55372000D02*
X136842500Y-55118000D01*
X136842500Y-55372000D02*
X136842500Y-55626000D01*
X137731500Y-55372000D02*
X137731500Y-55626000D01*
X137731500Y-55372000D02*
X137731500Y-55118000D01*
X131724400Y-54370899D02*
X132765800Y-54370899D01*
X132651500Y-54535999D02*
X131826000Y-54535999D01*
X131686300Y-54383599D02*
X131813300Y-54523299D01*
X132778500Y-54383599D02*
X132651500Y-54535999D01*
D17*
X131982400Y-52944699D02*
X131872400Y-52814699D01*
X131852400Y-52804699D02*
X131862400Y-52884699D01*
X131852400Y-52804699D02*
X131932400Y-52804699D01*
X131852400Y-53020099D02*
X131932400Y-53020099D01*
X131852400Y-53020099D02*
X131862400Y-53100099D01*
X131961400Y-53151699D02*
X131851400Y-53021699D01*
D16*
X132317000Y-53073899D02*
X132097000Y-53073899D01*
X132097000Y-52883899D02*
X132197000Y-52983899D01*
X132317000Y-52883899D02*
X132217000Y-52993899D01*
X132317000Y-52883899D02*
X132097000Y-52883899D01*
X132207000Y-52713899D02*
X132207000Y-53233899D01*
D10*
X132842000Y-53354899D02*
X132842000Y-54370899D01*
X131622800Y-54370899D02*
X131622800Y-53354899D01*
D15*
X133629400Y-54370899D02*
X134670800Y-54370899D01*
X134556500Y-54535999D02*
X133731000Y-54535999D01*
X133591300Y-54383599D02*
X133718300Y-54523299D01*
X134683500Y-54383599D02*
X134556500Y-54535999D01*
D17*
X133887400Y-52944699D02*
X133777400Y-52814699D01*
X133757400Y-52804699D02*
X133767400Y-52884699D01*
X133757400Y-52804699D02*
X133837400Y-52804699D01*
X133757400Y-53020099D02*
X133837400Y-53020099D01*
X133757400Y-53020099D02*
X133767400Y-53100099D01*
X133866400Y-53151699D02*
X133756400Y-53021699D01*
D16*
X134222000Y-53073899D02*
X134002000Y-53073899D01*
X134002000Y-52883899D02*
X134102000Y-52983899D01*
X134222000Y-52883899D02*
X134122000Y-52993899D01*
X134222000Y-52883899D02*
X134002000Y-52883899D01*
X134112000Y-52713899D02*
X134112000Y-53233899D01*
D10*
X134747000Y-53354899D02*
X134747000Y-54370899D01*
X133527800Y-54370899D02*
X133527800Y-53354899D01*
D15*
X153098500Y-55372000D02*
X153098500Y-55626000D01*
X153098500Y-55372000D02*
X153098500Y-55118000D01*
X152209500Y-55372000D02*
X152209500Y-55118000D01*
X152209500Y-55372000D02*
X152209500Y-55626000D01*
X149415500Y-55372000D02*
X149415500Y-55626000D01*
X149415500Y-55372000D02*
X149415500Y-55118000D01*
X150304500Y-55372000D02*
X150304500Y-55118000D01*
X150304500Y-55372000D02*
X150304500Y-55626000D01*
X151257000Y-54419500D02*
X151003000Y-54419500D01*
X151257000Y-54419500D02*
X151511000Y-54419500D01*
X151257000Y-55308500D02*
X151511000Y-55308500D01*
X151257000Y-55308500D02*
X151003000Y-55308500D01*
X143065500Y-55372000D02*
X143065500Y-55626000D01*
X143065500Y-55372000D02*
X143065500Y-55118000D01*
X143954500Y-55372000D02*
X143954500Y-55118000D01*
X143954500Y-55372000D02*
X143954500Y-55626000D01*
X128270000Y-89979500D02*
X128016000Y-89979500D01*
X128270000Y-89979500D02*
X128524000Y-89979500D01*
X128270000Y-90868500D02*
X128524000Y-90868500D01*
X128270000Y-90868500D02*
X128016000Y-90868500D01*
D13*
X127471714Y-99060000D02*
X127471714Y-99422857D01*
X126709714Y-99422857D01*
X127471714Y-98406857D02*
X127471714Y-98842285D01*
X127471714Y-98624571D02*
X126709714Y-98624571D01*
X126818571Y-98697142D01*
X126891142Y-98769714D01*
X126927428Y-98842285D01*
D18*
X130111500Y-100541666D02*
X130111500Y-99652666D01*
X130111500Y-100076000D02*
X130619500Y-100076000D01*
X130619500Y-100541666D02*
X130619500Y-99652666D01*
X131000500Y-100499333D02*
X131127500Y-100541666D01*
X131339166Y-100541666D01*
X131423833Y-100499333D01*
X131466166Y-100457000D01*
X131508500Y-100372333D01*
X131508500Y-100287666D01*
X131466166Y-100203000D01*
X131423833Y-100160666D01*
X131339166Y-100118333D01*
X131169833Y-100076000D01*
X131085166Y-100033666D01*
X131042833Y-99991333D01*
X131000500Y-99906666D01*
X131000500Y-99822000D01*
X131042833Y-99737333D01*
X131085166Y-99695000D01*
X131169833Y-99652666D01*
X131381500Y-99652666D01*
X131508500Y-99695000D01*
X131889500Y-100541666D02*
X131889500Y-99652666D01*
X132185833Y-100287666D01*
X132482166Y-99652666D01*
X132482166Y-100541666D01*
X133413500Y-100541666D02*
X133117166Y-100118333D01*
X132905500Y-100541666D02*
X132905500Y-99652666D01*
X133244166Y-99652666D01*
X133328833Y-99695000D01*
X133371166Y-99737333D01*
X133413500Y-99822000D01*
X133413500Y-99949000D01*
X133371166Y-100033666D01*
X133328833Y-100076000D01*
X133244166Y-100118333D01*
X132905500Y-100118333D01*
X133794500Y-100541666D02*
X133794500Y-99652666D01*
X133794500Y-100076000D02*
X134302500Y-100076000D01*
X134302500Y-100541666D02*
X134302500Y-99652666D01*
X135191500Y-100541666D02*
X134683500Y-100541666D01*
X134937500Y-100541666D02*
X134937500Y-99652666D01*
X134852833Y-99779666D01*
X134768166Y-99864333D01*
X134683500Y-99906666D01*
X135741833Y-99652666D02*
X135826500Y-99652666D01*
X135911166Y-99695000D01*
X135953500Y-99737333D01*
X135995833Y-99822000D01*
X136038166Y-99991333D01*
X136038166Y-100203000D01*
X135995833Y-100372333D01*
X135953500Y-100457000D01*
X135911166Y-100499333D01*
X135826500Y-100541666D01*
X135741833Y-100541666D01*
X135657166Y-100499333D01*
X135614833Y-100457000D01*
X135572500Y-100372333D01*
X135530166Y-100203000D01*
X135530166Y-99991333D01*
X135572500Y-99822000D01*
X135614833Y-99737333D01*
X135657166Y-99695000D01*
X135741833Y-99652666D01*
X136334500Y-99652666D02*
X136884833Y-99652666D01*
X136588500Y-99991333D01*
X136715500Y-99991333D01*
X136800166Y-100033666D01*
X136842500Y-100076000D01*
X136884833Y-100160666D01*
X136884833Y-100372333D01*
X136842500Y-100457000D01*
X136800166Y-100499333D01*
X136715500Y-100541666D01*
X136461500Y-100541666D01*
X136376833Y-100499333D01*
X136334500Y-100457000D01*
X137773833Y-100541666D02*
X137477500Y-100118333D01*
X137265833Y-100541666D02*
X137265833Y-99652666D01*
X137604500Y-99652666D01*
X137689166Y-99695000D01*
X137731500Y-99737333D01*
X137773833Y-99822000D01*
X137773833Y-99949000D01*
X137731500Y-100033666D01*
X137689166Y-100076000D01*
X137604500Y-100118333D01*
X137265833Y-100118333D01*
D13*
X154631571Y-55335714D02*
X154631571Y-54573714D01*
X154921857Y-54573714D01*
X154994428Y-54610000D01*
X155030714Y-54646285D01*
X155067000Y-54718857D01*
X155067000Y-54827714D01*
X155030714Y-54900285D01*
X154994428Y-54936571D01*
X154921857Y-54972857D01*
X154631571Y-54972857D01*
X155321000Y-54573714D02*
X155502428Y-55335714D01*
X155647571Y-54791428D01*
X155792714Y-55335714D01*
X155974142Y-54573714D01*
X156699857Y-55335714D02*
X156445857Y-54972857D01*
X156264428Y-55335714D02*
X156264428Y-54573714D01*
X156554714Y-54573714D01*
X156627285Y-54610000D01*
X156663571Y-54646285D01*
X156699857Y-54718857D01*
X156699857Y-54827714D01*
X156663571Y-54900285D01*
X156627285Y-54936571D01*
X156554714Y-54972857D01*
X156264428Y-54972857D01*
X156845000Y-55408285D02*
X157425571Y-55408285D01*
X157607000Y-55335714D02*
X157607000Y-54573714D01*
X158042428Y-55335714D02*
X157715857Y-54900285D01*
X158042428Y-54573714D02*
X157607000Y-55009142D01*
X158369000Y-54936571D02*
X158623000Y-54936571D01*
X158731857Y-55335714D02*
X158369000Y-55335714D01*
X158369000Y-54573714D01*
X158731857Y-54573714D01*
X159203571Y-54972857D02*
X159203571Y-55335714D01*
X158949571Y-54573714D02*
X159203571Y-54972857D01*
X159457571Y-54573714D01*
X160110714Y-55335714D02*
X159675285Y-55335714D01*
X159893000Y-55335714D02*
X159893000Y-54573714D01*
X159820428Y-54682571D01*
X159747857Y-54755142D01*
X159675285Y-54791428D01*
X142339785Y-95277214D02*
X142085785Y-94914357D01*
X141904357Y-95277214D02*
X141904357Y-94515214D01*
X142194642Y-94515214D01*
X142267214Y-94551500D01*
X142303500Y-94587785D01*
X142339785Y-94660357D01*
X142339785Y-94769214D01*
X142303500Y-94841785D01*
X142267214Y-94878071D01*
X142194642Y-94914357D01*
X141904357Y-94914357D01*
X142630071Y-95240928D02*
X142738928Y-95277214D01*
X142920357Y-95277214D01*
X142992928Y-95240928D01*
X143029214Y-95204642D01*
X143065500Y-95132071D01*
X143065500Y-95059500D01*
X143029214Y-94986928D01*
X142992928Y-94950642D01*
X142920357Y-94914357D01*
X142775214Y-94878071D01*
X142702642Y-94841785D01*
X142666357Y-94805500D01*
X142630071Y-94732928D01*
X142630071Y-94660357D01*
X142666357Y-94587785D01*
X142702642Y-94551500D01*
X142775214Y-94515214D01*
X142956642Y-94515214D01*
X143065500Y-94551500D01*
X143283214Y-94515214D02*
X143718642Y-94515214D01*
X143500928Y-95277214D02*
X143500928Y-94515214D01*
X143791214Y-95349785D02*
X144371785Y-95349785D01*
X144553214Y-95277214D02*
X144553214Y-94515214D01*
X144988642Y-95277214D02*
X144662071Y-94841785D01*
X144988642Y-94515214D02*
X144553214Y-94950642D01*
X145315214Y-94878071D02*
X145569214Y-94878071D01*
X145678071Y-95277214D02*
X145315214Y-95277214D01*
X145315214Y-94515214D01*
X145678071Y-94515214D01*
X146149785Y-94914357D02*
X146149785Y-95277214D01*
X145895785Y-94515214D02*
X146149785Y-94914357D01*
X146403785Y-94515214D01*
X147056928Y-95277214D02*
X146621500Y-95277214D01*
X146839214Y-95277214D02*
X146839214Y-94515214D01*
X146766642Y-94624071D01*
X146694071Y-94696642D01*
X146621500Y-94732928D01*
X157570714Y-99368428D02*
X158187571Y-99368428D01*
X158260142Y-99332142D01*
X158296428Y-99295857D01*
X158332714Y-99223285D01*
X158332714Y-99078142D01*
X158296428Y-99005571D01*
X158260142Y-98969285D01*
X158187571Y-98933000D01*
X157570714Y-98933000D01*
X158296428Y-98606428D02*
X158332714Y-98497571D01*
X158332714Y-98316142D01*
X158296428Y-98243571D01*
X158260142Y-98207285D01*
X158187571Y-98171000D01*
X158115000Y-98171000D01*
X158042428Y-98207285D01*
X158006142Y-98243571D01*
X157969857Y-98316142D01*
X157933571Y-98461285D01*
X157897285Y-98533857D01*
X157861000Y-98570142D01*
X157788428Y-98606428D01*
X157715857Y-98606428D01*
X157643285Y-98570142D01*
X157607000Y-98533857D01*
X157570714Y-98461285D01*
X157570714Y-98279857D01*
X157607000Y-98171000D01*
X157933571Y-97590428D02*
X157969857Y-97481571D01*
X158006142Y-97445285D01*
X158078714Y-97409000D01*
X158187571Y-97409000D01*
X158260142Y-97445285D01*
X158296428Y-97481571D01*
X158332714Y-97554142D01*
X158332714Y-97844428D01*
X157570714Y-97844428D01*
X157570714Y-97590428D01*
X157607000Y-97517857D01*
X157643285Y-97481571D01*
X157715857Y-97445285D01*
X157788428Y-97445285D01*
X157861000Y-97481571D01*
X157897285Y-97517857D01*
X157933571Y-97590428D01*
X157933571Y-97844428D01*
X158042428Y-97082428D02*
X158042428Y-96501857D01*
X158332714Y-96139000D02*
X157570714Y-96139000D01*
X157570714Y-95957571D01*
X157607000Y-95848714D01*
X157679571Y-95776142D01*
X157752142Y-95739857D01*
X157897285Y-95703571D01*
X158006142Y-95703571D01*
X158151285Y-95739857D01*
X158223857Y-95776142D01*
X158296428Y-95848714D01*
X158332714Y-95957571D01*
X158332714Y-96139000D01*
X157933571Y-95377000D02*
X157933571Y-95123000D01*
X158332714Y-95014142D02*
X158332714Y-95377000D01*
X157570714Y-95377000D01*
X157570714Y-95014142D01*
X157570714Y-94796428D02*
X158332714Y-94542428D01*
X157570714Y-94288428D01*
X158332714Y-93635285D02*
X158332714Y-94070714D01*
X158332714Y-93853000D02*
X157570714Y-93853000D01*
X157679571Y-93925571D01*
X157752142Y-93998142D01*
X157788428Y-94070714D01*
D10*
X150089809Y-97260833D02*
X150597809Y-97091500D01*
X150089809Y-96922166D01*
X150331714Y-96583500D02*
X150355904Y-96510928D01*
X150380095Y-96486738D01*
X150428476Y-96462547D01*
X150501047Y-96462547D01*
X150549428Y-96486738D01*
X150573619Y-96510928D01*
X150597809Y-96559309D01*
X150597809Y-96752833D01*
X150089809Y-96752833D01*
X150089809Y-96583500D01*
X150114000Y-96535119D01*
X150138190Y-96510928D01*
X150186571Y-96486738D01*
X150234952Y-96486738D01*
X150283333Y-96510928D01*
X150307523Y-96535119D01*
X150331714Y-96583500D01*
X150331714Y-96752833D01*
X150089809Y-96244833D02*
X150501047Y-96244833D01*
X150549428Y-96220642D01*
X150573619Y-96196452D01*
X150597809Y-96148071D01*
X150597809Y-96051309D01*
X150573619Y-96002928D01*
X150549428Y-95978738D01*
X150501047Y-95954547D01*
X150089809Y-95954547D01*
X150573619Y-95736833D02*
X150597809Y-95664261D01*
X150597809Y-95543309D01*
X150573619Y-95494928D01*
X150549428Y-95470738D01*
X150501047Y-95446547D01*
X150452666Y-95446547D01*
X150404285Y-95470738D01*
X150380095Y-95494928D01*
X150355904Y-95543309D01*
X150331714Y-95640071D01*
X150307523Y-95688452D01*
X150283333Y-95712642D01*
X150234952Y-95736833D01*
X150186571Y-95736833D01*
X150138190Y-95712642D01*
X150114000Y-95688452D01*
X150089809Y-95640071D01*
X150089809Y-95519119D01*
X150114000Y-95446547D01*
X151698476Y-97003809D02*
X151698476Y-96495809D01*
X151819428Y-96495809D01*
X151892000Y-96520000D01*
X151940380Y-96568380D01*
X151964571Y-96616761D01*
X151988761Y-96713523D01*
X151988761Y-96786095D01*
X151964571Y-96882857D01*
X151940380Y-96931238D01*
X151892000Y-96979619D01*
X151819428Y-97003809D01*
X151698476Y-97003809D01*
X152206476Y-96810285D02*
X152593523Y-96810285D01*
X152587476Y-98083309D02*
X152587476Y-97575309D01*
X152708428Y-97575309D01*
X152781000Y-97599500D01*
X152829380Y-97647880D01*
X152853571Y-97696261D01*
X152877761Y-97793023D01*
X152877761Y-97865595D01*
X152853571Y-97962357D01*
X152829380Y-98010738D01*
X152781000Y-98059119D01*
X152708428Y-98083309D01*
X152587476Y-98083309D01*
X153095476Y-97889785D02*
X153482523Y-97889785D01*
X153289000Y-98083309D02*
X153289000Y-97696261D01*
X153416000Y-97023809D02*
X153416000Y-96515809D01*
X153657904Y-97023809D02*
X153657904Y-96515809D01*
X153778857Y-96515809D01*
X153851428Y-96540000D01*
X153899809Y-96588380D01*
X153924000Y-96636761D01*
X153948190Y-96733523D01*
X153948190Y-96806095D01*
X153924000Y-96902857D01*
X153899809Y-96951238D01*
X153851428Y-96999619D01*
X153778857Y-97023809D01*
X153657904Y-97023809D01*
X155511500Y-96526047D02*
X155487309Y-96574428D01*
X155487309Y-96647000D01*
X155511500Y-96719571D01*
X155559880Y-96767952D01*
X155608261Y-96792142D01*
X155705023Y-96816333D01*
X155777595Y-96816333D01*
X155874357Y-96792142D01*
X155922738Y-96767952D01*
X155971119Y-96719571D01*
X155995309Y-96647000D01*
X155995309Y-96598619D01*
X155971119Y-96526047D01*
X155946928Y-96501857D01*
X155777595Y-96501857D01*
X155777595Y-96598619D01*
X155995309Y-96284142D02*
X155487309Y-96284142D01*
X155995309Y-95993857D01*
X155487309Y-95993857D01*
X155995309Y-95751952D02*
X155487309Y-95751952D01*
X155487309Y-95631000D01*
X155511500Y-95558428D01*
X155559880Y-95510047D01*
X155608261Y-95485857D01*
X155705023Y-95461666D01*
X155777595Y-95461666D01*
X155874357Y-95485857D01*
X155922738Y-95510047D01*
X155971119Y-95558428D01*
X155995309Y-95631000D01*
X155995309Y-95751952D01*
D19*
X96943333Y-131263571D02*
X97306190Y-131384523D01*
X97427142Y-131505476D01*
X97548095Y-131747380D01*
X97548095Y-132110238D01*
X97427142Y-132352142D01*
X97306190Y-132473095D01*
X97064285Y-132594047D01*
X96096666Y-132594047D01*
X96096666Y-130054047D01*
X96943333Y-130054047D01*
X97185238Y-130175000D01*
X97306190Y-130295952D01*
X97427142Y-130537857D01*
X97427142Y-130779761D01*
X97306190Y-131021666D01*
X97185238Y-131142619D01*
X96943333Y-131263571D01*
X96096666Y-131263571D01*
X98636666Y-131747380D02*
X99725238Y-131747380D01*
X98636666Y-130900714D02*
X98636666Y-132594047D01*
X99725238Y-130900714D02*
X99725238Y-132594047D01*
X100934761Y-130900714D02*
X100934761Y-132594047D01*
X102144285Y-130900714D01*
X102144285Y-132594047D01*
X103353809Y-132594047D02*
X103353809Y-130900714D01*
X104079523Y-132231190D01*
X104805238Y-130900714D01*
X104805238Y-132594047D01*
X107103333Y-132594047D02*
X107103333Y-131263571D01*
X106982380Y-131021666D01*
X106740476Y-130900714D01*
X106256666Y-130900714D01*
X106014761Y-131021666D01*
X107103333Y-132473095D02*
X106861428Y-132594047D01*
X106256666Y-132594047D01*
X106014761Y-132473095D01*
X105893809Y-132231190D01*
X105893809Y-131989285D01*
X106014761Y-131747380D01*
X106256666Y-131626428D01*
X106861428Y-131626428D01*
X107103333Y-131505476D01*
X108312857Y-131747380D02*
X109401428Y-131747380D01*
X108312857Y-130900714D02*
X108312857Y-132594047D01*
X109401428Y-130900714D02*
X109401428Y-132594047D01*
X110610952Y-130900714D02*
X110610952Y-132594047D01*
X111820476Y-130900714D01*
X111820476Y-132594047D01*
X113997619Y-132473095D02*
X113755714Y-132594047D01*
X113271904Y-132594047D01*
X113030000Y-132473095D01*
X112909047Y-132231190D01*
X112909047Y-131263571D01*
X113030000Y-131021666D01*
X113271904Y-130900714D01*
X113755714Y-130900714D01*
X113997619Y-131021666D01*
X114118571Y-131263571D01*
X114118571Y-131505476D01*
X112909047Y-131747380D01*
X115207142Y-132352142D02*
X115328095Y-132473095D01*
X115207142Y-132594047D01*
X115086190Y-132473095D01*
X115207142Y-132352142D01*
X115207142Y-132594047D01*
X115207142Y-131626428D02*
X115086190Y-130175000D01*
X115207142Y-130054047D01*
X115328095Y-130175000D01*
X115207142Y-131626428D01*
X115207142Y-130054047D01*
X118351904Y-130054047D02*
X118351904Y-132594047D01*
X119803333Y-130054047D01*
X119803333Y-132594047D01*
X121012857Y-132594047D02*
X121012857Y-130900714D01*
X121738571Y-132231190D01*
X122464285Y-130900714D01*
X122464285Y-132594047D01*
X124762380Y-132594047D02*
X124762380Y-131263571D01*
X124641428Y-131021666D01*
X124399523Y-130900714D01*
X123915714Y-130900714D01*
X123673809Y-131021666D01*
X124762380Y-132473095D02*
X124520476Y-132594047D01*
X123915714Y-132594047D01*
X123673809Y-132473095D01*
X123552857Y-132231190D01*
X123552857Y-131989285D01*
X123673809Y-131747380D01*
X123915714Y-131626428D01*
X124520476Y-131626428D01*
X124762380Y-131505476D01*
X128632857Y-130054047D02*
X128632857Y-133440714D01*
X128390952Y-130900714D02*
X128874761Y-130900714D01*
X129116666Y-131021666D01*
X129358571Y-131263571D01*
X129479523Y-131505476D01*
X129479523Y-131989285D01*
X129358571Y-132231190D01*
X129116666Y-132473095D01*
X128874761Y-132594047D01*
X128390952Y-132594047D01*
X128149047Y-132473095D01*
X127907142Y-132231190D01*
X127786190Y-131989285D01*
X127786190Y-131505476D01*
X127907142Y-131263571D01*
X128149047Y-131021666D01*
X128390952Y-130900714D01*
X130568095Y-130900714D02*
X130568095Y-133440714D01*
X130568095Y-131021666D02*
X130810000Y-130900714D01*
X131293809Y-130900714D01*
X131535714Y-131021666D01*
X131656666Y-131142619D01*
X131777619Y-131384523D01*
X131777619Y-132110238D01*
X131656666Y-132352142D01*
X131535714Y-132473095D01*
X131293809Y-132594047D01*
X130810000Y-132594047D01*
X130568095Y-132473095D01*
X133833809Y-132473095D02*
X133591904Y-132594047D01*
X133108095Y-132594047D01*
X132866190Y-132473095D01*
X132745238Y-132231190D01*
X132745238Y-131263571D01*
X132866190Y-131021666D01*
X133108095Y-130900714D01*
X133591904Y-130900714D01*
X133833809Y-131021666D01*
X133954761Y-131263571D01*
X133954761Y-131505476D01*
X132745238Y-131747380D01*
X135285238Y-131747380D02*
X135527142Y-131747380D01*
X134801428Y-131021666D02*
X135043333Y-130900714D01*
X135527142Y-130900714D01*
X135769047Y-131021666D01*
X135890000Y-131263571D01*
X135890000Y-131384523D01*
X135769047Y-131626428D01*
X135527142Y-131747380D01*
X135769047Y-131868333D01*
X135890000Y-132110238D01*
X135890000Y-132231190D01*
X135769047Y-132473095D01*
X135527142Y-132594047D01*
X135043333Y-132594047D01*
X134801428Y-132473095D01*
X137341428Y-132594047D02*
X137099523Y-132473095D01*
X136978571Y-132352142D01*
X136857619Y-132110238D01*
X136857619Y-131384523D01*
X136978571Y-131142619D01*
X137099523Y-131021666D01*
X137341428Y-130900714D01*
X137704285Y-130900714D01*
X137946190Y-131021666D01*
X138067142Y-131142619D01*
X138188095Y-131384523D01*
X138188095Y-132110238D01*
X138067142Y-132352142D01*
X137946190Y-132473095D01*
X137704285Y-132594047D01*
X137341428Y-132594047D01*
X139881428Y-131747380D02*
X140244285Y-131868333D01*
X140365238Y-132110238D01*
X140365238Y-132231190D01*
X140244285Y-132473095D01*
X140002380Y-132594047D01*
X139276666Y-132594047D01*
X139276666Y-130900714D01*
X139881428Y-130900714D01*
X140123333Y-131021666D01*
X140244285Y-131263571D01*
X140244285Y-131384523D01*
X140123333Y-131626428D01*
X139881428Y-131747380D01*
X139276666Y-131747380D01*
X142542380Y-132594047D02*
X142542380Y-131263571D01*
X142421428Y-131021666D01*
X142179523Y-130900714D01*
X141695714Y-130900714D01*
X141453809Y-131021666D01*
X142542380Y-132473095D02*
X142300476Y-132594047D01*
X141695714Y-132594047D01*
X141453809Y-132473095D01*
X141332857Y-132231190D01*
X141332857Y-131989285D01*
X141453809Y-131747380D01*
X141695714Y-131626428D01*
X142300476Y-131626428D01*
X142542380Y-131505476D01*
X143751904Y-131747380D02*
X144840476Y-131747380D01*
X143751904Y-130900714D02*
X143751904Y-132594047D01*
X144840476Y-130900714D02*
X144840476Y-132594047D01*
X147017619Y-132473095D02*
X146775714Y-132594047D01*
X146291904Y-132594047D01*
X146050000Y-132473095D01*
X145929047Y-132231190D01*
X145929047Y-131263571D01*
X146050000Y-131021666D01*
X146291904Y-130900714D01*
X146775714Y-130900714D01*
X147017619Y-131021666D01*
X147138571Y-131263571D01*
X147138571Y-131505476D01*
X145929047Y-131747380D01*
X150162380Y-131747380D02*
X151250952Y-131747380D01*
X150162380Y-130900714D02*
X150162380Y-132594047D01*
X151250952Y-130900714D02*
X151250952Y-132594047D01*
X153549047Y-132594047D02*
X153549047Y-131263571D01*
X153428095Y-131021666D01*
X153186190Y-130900714D01*
X152702380Y-130900714D01*
X152460476Y-131021666D01*
X153549047Y-132473095D02*
X153307142Y-132594047D01*
X152702380Y-132594047D01*
X152460476Y-132473095D01*
X152339523Y-132231190D01*
X152339523Y-131989285D01*
X152460476Y-131747380D01*
X152702380Y-131626428D01*
X153307142Y-131626428D01*
X153549047Y-131505476D01*
X154758571Y-132594047D02*
X154758571Y-130900714D01*
X155847142Y-130900714D01*
X155847142Y-132594047D01*
X157056666Y-130900714D02*
X157056666Y-133440714D01*
X157056666Y-131021666D02*
X157298571Y-130900714D01*
X157782380Y-130900714D01*
X158024285Y-131021666D01*
X158145238Y-131142619D01*
X158266190Y-131384523D01*
X158266190Y-132110238D01*
X158145238Y-132352142D01*
X158024285Y-132473095D01*
X157782380Y-132594047D01*
X157298571Y-132594047D01*
X157056666Y-132473095D01*
X160443333Y-132594047D02*
X160443333Y-131263571D01*
X160322380Y-131021666D01*
X160080476Y-130900714D01*
X159596666Y-130900714D01*
X159354761Y-131021666D01*
X160443333Y-132473095D02*
X160201428Y-132594047D01*
X159596666Y-132594047D01*
X159354761Y-132473095D01*
X159233809Y-132231190D01*
X159233809Y-131989285D01*
X159354761Y-131747380D01*
X159596666Y-131626428D01*
X160201428Y-131626428D01*
X160443333Y-131505476D01*
X162257619Y-131747380D02*
X162620476Y-131868333D01*
X162741428Y-132110238D01*
X162741428Y-132231190D01*
X162620476Y-132473095D01*
X162378571Y-132594047D01*
X161652857Y-132594047D01*
X161652857Y-130900714D01*
X162257619Y-130900714D01*
X162499523Y-131021666D01*
X162620476Y-131263571D01*
X162620476Y-131384523D01*
X162499523Y-131626428D01*
X162257619Y-131747380D01*
X161652857Y-131747380D01*
X164797619Y-132473095D02*
X164555714Y-132594047D01*
X164071904Y-132594047D01*
X163830000Y-132473095D01*
X163709047Y-132231190D01*
X163709047Y-131263571D01*
X163830000Y-131021666D01*
X164071904Y-130900714D01*
X164555714Y-130900714D01*
X164797619Y-131021666D01*
X164918571Y-131263571D01*
X164918571Y-131505476D01*
X163709047Y-131747380D01*
X166007142Y-131747380D02*
X167095714Y-131747380D01*
X166007142Y-130900714D02*
X166007142Y-132594047D01*
X167095714Y-130900714D02*
X167095714Y-132594047D01*
X168668095Y-132594047D02*
X168426190Y-132473095D01*
X168305238Y-132352142D01*
X168184285Y-132110238D01*
X168184285Y-131384523D01*
X168305238Y-131142619D01*
X168426190Y-131021666D01*
X168668095Y-130900714D01*
X169030952Y-130900714D01*
X169272857Y-131021666D01*
X169393809Y-131142619D01*
X169514761Y-131384523D01*
X169514761Y-132110238D01*
X169393809Y-132352142D01*
X169272857Y-132473095D01*
X169030952Y-132594047D01*
X168668095Y-132594047D01*
X173627142Y-132473095D02*
X173385238Y-132594047D01*
X172901428Y-132594047D01*
X172659523Y-132473095D01*
X172538571Y-132352142D01*
X172417619Y-132110238D01*
X172417619Y-131384523D01*
X172538571Y-131142619D01*
X172659523Y-131021666D01*
X172901428Y-130900714D01*
X173385238Y-130900714D01*
X173627142Y-131021666D01*
X176650952Y-132594047D02*
X176650952Y-130054047D01*
X177255714Y-130054047D01*
X177618571Y-130175000D01*
X177860476Y-130416904D01*
X177981428Y-130658809D01*
X178102380Y-131142619D01*
X178102380Y-131505476D01*
X177981428Y-131989285D01*
X177860476Y-132231190D01*
X177618571Y-132473095D01*
X177255714Y-132594047D01*
X176650952Y-132594047D01*
X179190952Y-132594047D02*
X179190952Y-130900714D01*
X179190952Y-131384523D02*
X179311904Y-131142619D01*
X179432857Y-131021666D01*
X179674761Y-130900714D01*
X179916666Y-130900714D01*
X180763333Y-132594047D02*
X180763333Y-130900714D01*
X180763333Y-130054047D02*
X180642380Y-130175000D01*
X180763333Y-130295952D01*
X180884285Y-130175000D01*
X180763333Y-130054047D01*
X180763333Y-130295952D01*
X182335714Y-132594047D02*
X182093809Y-132473095D01*
X181972857Y-132231190D01*
X181972857Y-130054047D01*
X183666190Y-132594047D02*
X183424285Y-132473095D01*
X183303333Y-132231190D01*
X183303333Y-130054047D01*
X186448095Y-132473095D02*
X186810952Y-132594047D01*
X187415714Y-132594047D01*
X187657619Y-132473095D01*
X187778571Y-132352142D01*
X187899523Y-132110238D01*
X187899523Y-131868333D01*
X187778571Y-131626428D01*
X187657619Y-131505476D01*
X187415714Y-131384523D01*
X186931904Y-131263571D01*
X186690000Y-131142619D01*
X186569047Y-131021666D01*
X186448095Y-130779761D01*
X186448095Y-130537857D01*
X186569047Y-130295952D01*
X186690000Y-130175000D01*
X186931904Y-130054047D01*
X187536666Y-130054047D01*
X187899523Y-130175000D01*
X189350952Y-132594047D02*
X189109047Y-132473095D01*
X188988095Y-132231190D01*
X188988095Y-130054047D01*
X190681428Y-132594047D02*
X190439523Y-132473095D01*
X190318571Y-132352142D01*
X190197619Y-132110238D01*
X190197619Y-131384523D01*
X190318571Y-131142619D01*
X190439523Y-131021666D01*
X190681428Y-130900714D01*
X191044285Y-130900714D01*
X191286190Y-131021666D01*
X191407142Y-131142619D01*
X191528095Y-131384523D01*
X191528095Y-132110238D01*
X191407142Y-132352142D01*
X191286190Y-132473095D01*
X191044285Y-132594047D01*
X190681428Y-132594047D01*
X192253809Y-130900714D02*
X193221428Y-130900714D01*
X192616666Y-130054047D02*
X192616666Y-132231190D01*
X192737619Y-132473095D01*
X192979523Y-132594047D01*
X193221428Y-132594047D01*
X193947142Y-132473095D02*
X194189047Y-132594047D01*
X194672857Y-132594047D01*
X194914761Y-132473095D01*
X195035714Y-132231190D01*
X195035714Y-132110238D01*
X194914761Y-131868333D01*
X194672857Y-131747380D01*
X194310000Y-131747380D01*
X194068095Y-131626428D01*
X193947142Y-131384523D01*
X193947142Y-131263571D01*
X194068095Y-131021666D01*
X194310000Y-130900714D01*
X194672857Y-130900714D01*
X194914761Y-131021666D01*
X196124285Y-132352142D02*
X196245238Y-132473095D01*
X196124285Y-132594047D01*
X196003333Y-132473095D01*
X196124285Y-132352142D01*
X196124285Y-132594047D01*
X196124285Y-131626428D02*
X196003333Y-130175000D01*
X196124285Y-130054047D01*
X196245238Y-130175000D01*
X196124285Y-131626428D01*
X196124285Y-130054047D01*
X197333809Y-132352142D02*
X197454761Y-132473095D01*
X197333809Y-132594047D01*
X197212857Y-132473095D01*
X197333809Y-132352142D01*
X197333809Y-132594047D01*
X197333809Y-131626428D02*
X197212857Y-130175000D01*
X197333809Y-130054047D01*
X197454761Y-130175000D01*
X197333809Y-131626428D01*
X197333809Y-130054047D01*
X198543333Y-132352142D02*
X198664285Y-132473095D01*
X198543333Y-132594047D01*
X198422380Y-132473095D01*
X198543333Y-132352142D01*
X198543333Y-132594047D01*
X198543333Y-131626428D02*
X198422380Y-130175000D01*
X198543333Y-130054047D01*
X198664285Y-130175000D01*
X198543333Y-131626428D01*
X198543333Y-130054047D01*
D20*
X141057085Y-50963285D02*
X141035314Y-50985057D01*
X140970000Y-51006828D01*
X140926457Y-51006828D01*
X140861142Y-50985057D01*
X140817600Y-50941514D01*
X140795828Y-50897971D01*
X140774057Y-50810885D01*
X140774057Y-50745571D01*
X140795828Y-50658485D01*
X140817600Y-50614942D01*
X140861142Y-50571400D01*
X140926457Y-50549628D01*
X140970000Y-50549628D01*
X141035314Y-50571400D01*
X141057085Y-50593171D01*
X141209485Y-50549628D02*
X141492514Y-50549628D01*
X141340114Y-50723800D01*
X141405428Y-50723800D01*
X141448971Y-50745571D01*
X141470742Y-50767342D01*
X141492514Y-50810885D01*
X141492514Y-50919742D01*
X141470742Y-50963285D01*
X141448971Y-50985057D01*
X141405428Y-51006828D01*
X141274800Y-51006828D01*
X141231257Y-50985057D01*
X141209485Y-50963285D01*
X141884400Y-50702028D02*
X141884400Y-51006828D01*
X141775542Y-50527857D02*
X141666685Y-50854428D01*
X141949714Y-50854428D01*
D10*
X142675428Y-51029809D02*
X142506095Y-50787904D01*
X142385142Y-51029809D02*
X142385142Y-50521809D01*
X142578666Y-50521809D01*
X142627047Y-50546000D01*
X142651238Y-50570190D01*
X142675428Y-50618571D01*
X142675428Y-50691142D01*
X142651238Y-50739523D01*
X142627047Y-50763714D01*
X142578666Y-50787904D01*
X142385142Y-50787904D01*
X142868952Y-50570190D02*
X142893142Y-50546000D01*
X142941523Y-50521809D01*
X143062476Y-50521809D01*
X143110857Y-50546000D01*
X143135047Y-50570190D01*
X143159238Y-50618571D01*
X143159238Y-50666952D01*
X143135047Y-50739523D01*
X142844761Y-51029809D01*
X143159238Y-51029809D01*
X143473714Y-50521809D02*
X143522095Y-50521809D01*
X143570476Y-50546000D01*
X143594666Y-50570190D01*
X143618857Y-50618571D01*
X143643047Y-50715333D01*
X143643047Y-50836285D01*
X143618857Y-50933047D01*
X143594666Y-50981428D01*
X143570476Y-51005619D01*
X143522095Y-51029809D01*
X143473714Y-51029809D01*
X143425333Y-51005619D01*
X143401142Y-50981428D01*
X143376952Y-50933047D01*
X143352761Y-50836285D01*
X143352761Y-50715333D01*
X143376952Y-50618571D01*
X143401142Y-50570190D01*
X143425333Y-50546000D01*
X143473714Y-50521809D01*
X142787309Y-54186666D02*
X142787309Y-54428571D01*
X142279309Y-54428571D01*
X142327690Y-54041523D02*
X142303500Y-54017333D01*
X142279309Y-53968952D01*
X142279309Y-53848000D01*
X142303500Y-53799619D01*
X142327690Y-53775428D01*
X142376071Y-53751238D01*
X142424452Y-53751238D01*
X142497023Y-53775428D01*
X142787309Y-54065714D01*
X142787309Y-53751238D01*
D15*
X126860904Y-86946619D02*
X126860904Y-87769095D01*
X126909285Y-87865857D01*
X126957666Y-87914238D01*
X127054428Y-87962619D01*
X127247952Y-87962619D01*
X127344714Y-87914238D01*
X127393095Y-87865857D01*
X127441476Y-87769095D01*
X127441476Y-86946619D01*
X127828523Y-86946619D02*
X128457476Y-86946619D01*
X128118809Y-87333666D01*
X128263952Y-87333666D01*
X128360714Y-87382047D01*
X128409095Y-87430428D01*
X128457476Y-87527190D01*
X128457476Y-87769095D01*
X128409095Y-87865857D01*
X128360714Y-87914238D01*
X128263952Y-87962619D01*
X127973666Y-87962619D01*
X127876904Y-87914238D01*
X127828523Y-87865857D01*
D12*
X137819190Y-63324619D02*
X137819190Y-62308619D01*
X138399761Y-63324619D02*
X137964333Y-62744047D01*
X138399761Y-62308619D02*
X137819190Y-62889190D01*
X139222238Y-63276238D02*
X139125476Y-63324619D01*
X138931952Y-63324619D01*
X138835190Y-63276238D01*
X138786809Y-63179476D01*
X138786809Y-62792428D01*
X138835190Y-62695666D01*
X138931952Y-62647285D01*
X139125476Y-62647285D01*
X139222238Y-62695666D01*
X139270619Y-62792428D01*
X139270619Y-62889190D01*
X138786809Y-62985952D01*
X140093095Y-63276238D02*
X139996333Y-63324619D01*
X139802809Y-63324619D01*
X139706047Y-63276238D01*
X139657666Y-63179476D01*
X139657666Y-62792428D01*
X139706047Y-62695666D01*
X139802809Y-62647285D01*
X139996333Y-62647285D01*
X140093095Y-62695666D01*
X140141476Y-62792428D01*
X140141476Y-62889190D01*
X139657666Y-62985952D01*
X140576904Y-62647285D02*
X140576904Y-63663285D01*
X140576904Y-62695666D02*
X140673666Y-62647285D01*
X140867190Y-62647285D01*
X140963952Y-62695666D01*
X141012333Y-62744047D01*
X141060714Y-62840809D01*
X141060714Y-63131095D01*
X141012333Y-63227857D01*
X140963952Y-63276238D01*
X140867190Y-63324619D01*
X140673666Y-63324619D01*
X140576904Y-63276238D01*
X141641285Y-63324619D02*
X141544523Y-63276238D01*
X141496142Y-63227857D01*
X141447761Y-63131095D01*
X141447761Y-62840809D01*
X141496142Y-62744047D01*
X141544523Y-62695666D01*
X141641285Y-62647285D01*
X141786428Y-62647285D01*
X141883190Y-62695666D01*
X141931571Y-62744047D01*
X141979952Y-62840809D01*
X141979952Y-63131095D01*
X141931571Y-63227857D01*
X141883190Y-63276238D01*
X141786428Y-63324619D01*
X141641285Y-63324619D01*
X142850809Y-62647285D02*
X142850809Y-63324619D01*
X142415380Y-62647285D02*
X142415380Y-63179476D01*
X142463761Y-63276238D01*
X142560523Y-63324619D01*
X142705666Y-63324619D01*
X142802428Y-63276238D01*
X142850809Y-63227857D01*
X143189476Y-62647285D02*
X143576523Y-62647285D01*
X143334619Y-62308619D02*
X143334619Y-63179476D01*
X143383000Y-63276238D01*
X143479761Y-63324619D01*
X143576523Y-63324619D01*
X144640904Y-63034333D02*
X145124714Y-63034333D01*
X144544142Y-63324619D02*
X144882809Y-62308619D01*
X145221476Y-63324619D01*
X145560142Y-63324619D02*
X145560142Y-62647285D01*
X145560142Y-62840809D02*
X145608523Y-62744047D01*
X145656904Y-62695666D01*
X145753666Y-62647285D01*
X145850428Y-62647285D01*
X146576142Y-63276238D02*
X146479380Y-63324619D01*
X146285857Y-63324619D01*
X146189095Y-63276238D01*
X146140714Y-63179476D01*
X146140714Y-62792428D01*
X146189095Y-62695666D01*
X146285857Y-62647285D01*
X146479380Y-62647285D01*
X146576142Y-62695666D01*
X146624523Y-62792428D01*
X146624523Y-62889190D01*
X146140714Y-62985952D01*
X147495380Y-63324619D02*
X147495380Y-62792428D01*
X147447000Y-62695666D01*
X147350238Y-62647285D01*
X147156714Y-62647285D01*
X147059952Y-62695666D01*
X147495380Y-63276238D02*
X147398619Y-63324619D01*
X147156714Y-63324619D01*
X147059952Y-63276238D01*
X147011571Y-63179476D01*
X147011571Y-63082714D01*
X147059952Y-62985952D01*
X147156714Y-62937571D01*
X147398619Y-62937571D01*
X147495380Y-62889190D01*
X147979190Y-63227857D02*
X148027571Y-63276238D01*
X147979190Y-63324619D01*
X147930809Y-63276238D01*
X147979190Y-63227857D01*
X147979190Y-63324619D01*
X147979190Y-62937571D02*
X147930809Y-62357000D01*
X147979190Y-62308619D01*
X148027571Y-62357000D01*
X147979190Y-62937571D01*
X147979190Y-62308619D01*
X148463000Y-63227857D02*
X148511380Y-63276238D01*
X148463000Y-63324619D01*
X148414619Y-63276238D01*
X148463000Y-63227857D01*
X148463000Y-63324619D01*
X148463000Y-62937571D02*
X148414619Y-62357000D01*
X148463000Y-62308619D01*
X148511380Y-62357000D01*
X148463000Y-62937571D01*
X148463000Y-62308619D01*
X148946809Y-63227857D02*
X148995190Y-63276238D01*
X148946809Y-63324619D01*
X148898428Y-63276238D01*
X148946809Y-63227857D01*
X148946809Y-63324619D01*
X148946809Y-62937571D02*
X148898428Y-62357000D01*
X148946809Y-62308619D01*
X148995190Y-62357000D01*
X148946809Y-62937571D01*
X148946809Y-62308619D01*
D15*
X128324428Y-89550119D02*
X128227666Y-89501738D01*
X128179285Y-89453357D01*
X128130904Y-89356595D01*
X128130904Y-89066309D01*
X128179285Y-88969547D01*
X128227666Y-88921166D01*
X128324428Y-88872785D01*
X128469571Y-88872785D01*
X128566333Y-88921166D01*
X128614714Y-88969547D01*
X128663095Y-89066309D01*
X128663095Y-89356595D01*
X128614714Y-89453357D01*
X128566333Y-89501738D01*
X128469571Y-89550119D01*
X128324428Y-89550119D01*
D18*
X129794000Y-91016666D02*
X129286000Y-91016666D01*
X129540000Y-91016666D02*
X129540000Y-90127666D01*
X129455333Y-90254666D01*
X129370666Y-90339333D01*
X129286000Y-90381666D01*
D11*
X126877619Y-53242869D02*
X127326632Y-52793856D01*
X127155580Y-53264250D01*
X127625974Y-53093198D01*
X127176961Y-53542211D01*
X127454921Y-53820171D02*
X127433540Y-53756026D01*
X127433540Y-53713263D01*
X127454921Y-53649119D01*
X127583211Y-53520829D01*
X127647355Y-53499448D01*
X127690119Y-53499448D01*
X127754263Y-53520829D01*
X127818408Y-53584974D01*
X127839790Y-53649119D01*
X127839790Y-53691882D01*
X127818408Y-53756026D01*
X127690119Y-53884316D01*
X127625974Y-53905697D01*
X127583211Y-53905697D01*
X127519066Y-53884316D01*
X127454921Y-53820171D01*
X127989460Y-54354710D02*
X128438473Y-53905697D01*
X128010842Y-54333329D02*
X127946697Y-54311947D01*
X127861171Y-54226421D01*
X127839790Y-54162276D01*
X127839790Y-54119513D01*
X127861171Y-54055368D01*
X127989460Y-53927079D01*
X128053605Y-53905697D01*
X128096368Y-53905697D01*
X128160513Y-53927079D01*
X128246039Y-54012605D01*
X128267421Y-54076750D01*
X128203276Y-54525763D02*
X128246039Y-54611289D01*
X128352947Y-54718197D01*
X128417092Y-54739578D01*
X128459855Y-54739578D01*
X128524000Y-54718197D01*
X128566763Y-54675434D01*
X128588144Y-54611289D01*
X128588144Y-54568526D01*
X128566763Y-54504381D01*
X128502618Y-54397473D01*
X128481236Y-54333329D01*
X128481236Y-54290565D01*
X128502618Y-54226421D01*
X128545381Y-54183658D01*
X128609526Y-54162276D01*
X128652289Y-54162276D01*
X128716434Y-54183658D01*
X128823341Y-54290565D01*
X128866104Y-54376092D01*
X128866104Y-54632670D02*
X129037157Y-54803723D01*
X129079920Y-54547144D02*
X128695052Y-54932012D01*
X128673670Y-54996157D01*
X128695052Y-55060302D01*
X128737815Y-55103065D01*
X129079920Y-55445170D02*
X129315117Y-55209973D01*
X129336499Y-55145828D01*
X129315117Y-55081683D01*
X129229591Y-54996157D01*
X129165446Y-54974775D01*
X129101302Y-55423788D02*
X129037157Y-55402407D01*
X128930249Y-55295499D01*
X128908868Y-55231354D01*
X128930249Y-55167209D01*
X128973012Y-55124446D01*
X129037157Y-55103065D01*
X129101302Y-55124446D01*
X129208209Y-55231354D01*
X129272354Y-55252736D01*
X129528933Y-55295499D02*
X129699985Y-55466551D01*
X129742749Y-55209973D02*
X129357880Y-55594841D01*
X129336499Y-55658985D01*
X129357880Y-55723130D01*
X129400644Y-55765893D01*
X129785512Y-56150761D02*
X129528933Y-55894183D01*
X129657222Y-56022472D02*
X130106235Y-55573459D01*
X129999327Y-55594841D01*
X129913801Y-55594841D01*
X129849656Y-55573459D01*
D13*
X140788571Y-99413785D02*
X140824857Y-99304928D01*
X140861142Y-99268642D01*
X140933714Y-99232357D01*
X141042571Y-99232357D01*
X141115142Y-99268642D01*
X141151428Y-99304928D01*
X141187714Y-99377500D01*
X141187714Y-99667785D01*
X140425714Y-99667785D01*
X140425714Y-99413785D01*
X140462000Y-99341214D01*
X140498285Y-99304928D01*
X140570857Y-99268642D01*
X140643428Y-99268642D01*
X140716000Y-99304928D01*
X140752285Y-99341214D01*
X140788571Y-99413785D01*
X140788571Y-99667785D01*
X140970000Y-98942071D02*
X140970000Y-98579214D01*
X141187714Y-99014642D02*
X140425714Y-98760642D01*
X141187714Y-98506642D01*
X140425714Y-98361500D02*
X140425714Y-97926071D01*
X141187714Y-98143785D02*
X140425714Y-98143785D01*
X141187714Y-97272928D02*
X141187714Y-97708357D01*
X141187714Y-97490642D02*
X140425714Y-97490642D01*
X140534571Y-97563214D01*
X140607142Y-97635785D01*
X140643428Y-97708357D01*
D15*
X145823265Y-98859119D02*
X145194694Y-98859119D01*
X145508980Y-98859119D02*
X145508980Y-97759119D01*
X145404218Y-97916261D01*
X145299456Y-98021023D01*
X145194694Y-98073404D01*
X143190634Y-97927380D02*
X143243015Y-97875000D01*
X143347777Y-97822619D01*
X143609681Y-97822619D01*
X143714443Y-97875000D01*
X143766824Y-97927380D01*
X143819205Y-98032142D01*
X143819205Y-98136904D01*
X143766824Y-98294047D01*
X143138253Y-98922619D01*
X143819205Y-98922619D01*
D13*
X157244142Y-92093142D02*
X157207857Y-92129428D01*
X157099000Y-92165714D01*
X157026428Y-92165714D01*
X156917571Y-92129428D01*
X156845000Y-92056857D01*
X156808714Y-91984285D01*
X156772428Y-91839142D01*
X156772428Y-91730285D01*
X156808714Y-91585142D01*
X156845000Y-91512571D01*
X156917571Y-91440000D01*
X157026428Y-91403714D01*
X157099000Y-91403714D01*
X157207857Y-91440000D01*
X157244142Y-91476285D01*
X157969857Y-92165714D02*
X157534428Y-92165714D01*
X157752142Y-92165714D02*
X157752142Y-91403714D01*
X157679571Y-91512571D01*
X157607000Y-91585142D01*
X157534428Y-91621428D01*
X158441571Y-91403714D02*
X158514142Y-91403714D01*
X158586714Y-91440000D01*
X158623000Y-91476285D01*
X158659285Y-91548857D01*
X158695571Y-91694000D01*
X158695571Y-91875428D01*
X158659285Y-92020571D01*
X158623000Y-92093142D01*
X158586714Y-92129428D01*
X158514142Y-92165714D01*
X158441571Y-92165714D01*
X158369000Y-92129428D01*
X158332714Y-92093142D01*
X158296428Y-92020571D01*
X158260142Y-91875428D01*
X158260142Y-91694000D01*
X158296428Y-91548857D01*
X158332714Y-91476285D01*
X158369000Y-91440000D01*
X158441571Y-91403714D01*
D20*
X135977085Y-56297285D02*
X135955314Y-56319057D01*
X135890000Y-56340828D01*
X135846457Y-56340828D01*
X135781142Y-56319057D01*
X135737600Y-56275514D01*
X135715828Y-56231971D01*
X135694057Y-56144885D01*
X135694057Y-56079571D01*
X135715828Y-55992485D01*
X135737600Y-55948942D01*
X135781142Y-55905400D01*
X135846457Y-55883628D01*
X135890000Y-55883628D01*
X135955314Y-55905400D01*
X135977085Y-55927171D01*
X136151257Y-55927171D02*
X136173028Y-55905400D01*
X136216571Y-55883628D01*
X136325428Y-55883628D01*
X136368971Y-55905400D01*
X136390742Y-55927171D01*
X136412514Y-55970714D01*
X136412514Y-56014257D01*
X136390742Y-56079571D01*
X136129485Y-56340828D01*
X136412514Y-56340828D01*
X136586685Y-55927171D02*
X136608457Y-55905400D01*
X136652000Y-55883628D01*
X136760857Y-55883628D01*
X136804400Y-55905400D01*
X136826171Y-55927171D01*
X136847942Y-55970714D01*
X136847942Y-56014257D01*
X136826171Y-56079571D01*
X136564914Y-56340828D01*
X136847942Y-56340828D01*
D10*
X135944428Y-55045428D02*
X135920238Y-55069619D01*
X135847666Y-55093809D01*
X135799285Y-55093809D01*
X135726714Y-55069619D01*
X135678333Y-55021238D01*
X135654142Y-54972857D01*
X135629952Y-54876095D01*
X135629952Y-54803523D01*
X135654142Y-54706761D01*
X135678333Y-54658380D01*
X135726714Y-54610000D01*
X135799285Y-54585809D01*
X135847666Y-54585809D01*
X135920238Y-54610000D01*
X135944428Y-54634190D01*
X136137952Y-54634190D02*
X136162142Y-54610000D01*
X136210523Y-54585809D01*
X136331476Y-54585809D01*
X136379857Y-54610000D01*
X136404047Y-54634190D01*
X136428238Y-54682571D01*
X136428238Y-54730952D01*
X136404047Y-54803523D01*
X136113761Y-55093809D01*
X136428238Y-55093809D01*
X136597571Y-54585809D02*
X136912047Y-54585809D01*
X136742714Y-54779333D01*
X136815285Y-54779333D01*
X136863666Y-54803523D01*
X136887857Y-54827714D01*
X136912047Y-54876095D01*
X136912047Y-54997047D01*
X136887857Y-55045428D01*
X136863666Y-55069619D01*
X136815285Y-55093809D01*
X136670142Y-55093809D01*
X136621761Y-55069619D01*
X136597571Y-55045428D01*
X147501428Y-55553428D02*
X147477238Y-55577619D01*
X147404666Y-55601809D01*
X147356285Y-55601809D01*
X147283714Y-55577619D01*
X147235333Y-55529238D01*
X147211142Y-55480857D01*
X147186952Y-55384095D01*
X147186952Y-55311523D01*
X147211142Y-55214761D01*
X147235333Y-55166380D01*
X147283714Y-55118000D01*
X147356285Y-55093809D01*
X147404666Y-55093809D01*
X147477238Y-55118000D01*
X147501428Y-55142190D01*
X147694952Y-55142190D02*
X147719142Y-55118000D01*
X147767523Y-55093809D01*
X147888476Y-55093809D01*
X147936857Y-55118000D01*
X147961047Y-55142190D01*
X147985238Y-55190571D01*
X147985238Y-55238952D01*
X147961047Y-55311523D01*
X147670761Y-55601809D01*
X147985238Y-55601809D01*
X148420666Y-55263142D02*
X148420666Y-55601809D01*
X148299714Y-55069619D02*
X148178761Y-55432476D01*
X148493238Y-55432476D01*
X147501428Y-54537428D02*
X147477238Y-54561619D01*
X147404666Y-54585809D01*
X147356285Y-54585809D01*
X147283714Y-54561619D01*
X147235333Y-54513238D01*
X147211142Y-54464857D01*
X147186952Y-54368095D01*
X147186952Y-54295523D01*
X147211142Y-54198761D01*
X147235333Y-54150380D01*
X147283714Y-54102000D01*
X147356285Y-54077809D01*
X147404666Y-54077809D01*
X147477238Y-54102000D01*
X147501428Y-54126190D01*
X147694952Y-54126190D02*
X147719142Y-54102000D01*
X147767523Y-54077809D01*
X147888476Y-54077809D01*
X147936857Y-54102000D01*
X147961047Y-54126190D01*
X147985238Y-54174571D01*
X147985238Y-54222952D01*
X147961047Y-54295523D01*
X147670761Y-54585809D01*
X147985238Y-54585809D01*
X148444857Y-54077809D02*
X148202952Y-54077809D01*
X148178761Y-54319714D01*
X148202952Y-54295523D01*
X148251333Y-54271333D01*
X148372285Y-54271333D01*
X148420666Y-54295523D01*
X148444857Y-54319714D01*
X148469047Y-54368095D01*
X148469047Y-54489047D01*
X148444857Y-54537428D01*
X148420666Y-54561619D01*
X148372285Y-54585809D01*
X148251333Y-54585809D01*
X148202952Y-54561619D01*
X148178761Y-54537428D01*
D13*
X141178642Y-96284142D02*
X141214928Y-96320428D01*
X141251214Y-96429285D01*
X141251214Y-96501857D01*
X141214928Y-96610714D01*
X141142357Y-96683285D01*
X141069785Y-96719571D01*
X140924642Y-96755857D01*
X140815785Y-96755857D01*
X140670642Y-96719571D01*
X140598071Y-96683285D01*
X140525500Y-96610714D01*
X140489214Y-96501857D01*
X140489214Y-96429285D01*
X140525500Y-96320428D01*
X140561785Y-96284142D01*
X141251214Y-95957571D02*
X140489214Y-95957571D01*
X140852071Y-95957571D02*
X140852071Y-95522142D01*
X141251214Y-95522142D02*
X140489214Y-95522142D01*
X141251214Y-94723857D02*
X140888357Y-94977857D01*
X141251214Y-95159285D02*
X140489214Y-95159285D01*
X140489214Y-94869000D01*
X140525500Y-94796428D01*
X140561785Y-94760142D01*
X140634357Y-94723857D01*
X140743214Y-94723857D01*
X140815785Y-94760142D01*
X140852071Y-94796428D01*
X140888357Y-94869000D01*
X140888357Y-95159285D01*
X140525500Y-93998142D02*
X140489214Y-94070714D01*
X140489214Y-94179571D01*
X140525500Y-94288428D01*
X140598071Y-94361000D01*
X140670642Y-94397285D01*
X140815785Y-94433571D01*
X140924642Y-94433571D01*
X141069785Y-94397285D01*
X141142357Y-94361000D01*
X141214928Y-94288428D01*
X141251214Y-94179571D01*
X141251214Y-94107000D01*
X141214928Y-93998142D01*
X141178642Y-93961857D01*
X140924642Y-93961857D01*
X140924642Y-94107000D01*
X141251214Y-93236142D02*
X141251214Y-93671571D01*
X141251214Y-93453857D02*
X140489214Y-93453857D01*
X140598071Y-93526428D01*
X140670642Y-93599000D01*
X140706928Y-93671571D01*
D11*
X159575500Y-92725119D02*
X159545261Y-92785595D01*
X159545261Y-92876309D01*
X159575500Y-92967023D01*
X159635976Y-93027500D01*
X159696452Y-93057738D01*
X159817404Y-93087976D01*
X159908119Y-93087976D01*
X160029071Y-93057738D01*
X160089547Y-93027500D01*
X160150023Y-92967023D01*
X160180261Y-92876309D01*
X160180261Y-92815833D01*
X160150023Y-92725119D01*
X160119785Y-92694880D01*
X159908119Y-92694880D01*
X159908119Y-92815833D01*
X160180261Y-92422738D02*
X159545261Y-92422738D01*
X160180261Y-92059880D01*
X159545261Y-92059880D01*
X160180261Y-91757500D02*
X159545261Y-91757500D01*
X159545261Y-91606309D01*
X159575500Y-91515595D01*
X159635976Y-91455119D01*
X159696452Y-91424880D01*
X159817404Y-91394642D01*
X159908119Y-91394642D01*
X160029071Y-91424880D01*
X160089547Y-91455119D01*
X160150023Y-91515595D01*
X160180261Y-91606309D01*
X160180261Y-91757500D01*
X160240738Y-91273690D02*
X160240738Y-90789880D01*
X160180261Y-90638690D02*
X159545261Y-90638690D01*
X159545261Y-90396785D01*
X159575500Y-90336309D01*
X159605738Y-90306071D01*
X159666214Y-90275833D01*
X159756928Y-90275833D01*
X159817404Y-90306071D01*
X159847642Y-90336309D01*
X159877880Y-90396785D01*
X159877880Y-90638690D01*
X160180261Y-89731547D02*
X159847642Y-89731547D01*
X159787166Y-89761785D01*
X159756928Y-89822261D01*
X159756928Y-89943214D01*
X159787166Y-90003690D01*
X160150023Y-89731547D02*
X160180261Y-89792023D01*
X160180261Y-89943214D01*
X160150023Y-90003690D01*
X160089547Y-90033928D01*
X160029071Y-90033928D01*
X159968595Y-90003690D01*
X159938357Y-89943214D01*
X159938357Y-89792023D01*
X159908119Y-89731547D01*
X160180261Y-89157023D02*
X159545261Y-89157023D01*
X160150023Y-89157023D02*
X160180261Y-89217500D01*
X160180261Y-89338452D01*
X160150023Y-89398928D01*
X160119785Y-89429166D01*
X160059309Y-89459404D01*
X159877880Y-89459404D01*
X159817404Y-89429166D01*
X159787166Y-89398928D01*
X159756928Y-89338452D01*
X159756928Y-89217500D01*
X159787166Y-89157023D01*
X160180261Y-88522023D02*
X160180261Y-88884880D01*
X160180261Y-88703452D02*
X159545261Y-88703452D01*
X159635976Y-88763928D01*
X159696452Y-88824404D01*
X159726690Y-88884880D01*
D13*
X147701000Y-96737714D02*
X147447000Y-96374857D01*
X147265571Y-96737714D02*
X147265571Y-95975714D01*
X147555857Y-95975714D01*
X147628428Y-96012000D01*
X147664714Y-96048285D01*
X147701000Y-96120857D01*
X147701000Y-96229714D01*
X147664714Y-96302285D01*
X147628428Y-96338571D01*
X147555857Y-96374857D01*
X147265571Y-96374857D01*
X148354142Y-95975714D02*
X148209000Y-95975714D01*
X148136428Y-96012000D01*
X148100142Y-96048285D01*
X148027571Y-96157142D01*
X147991285Y-96302285D01*
X147991285Y-96592571D01*
X148027571Y-96665142D01*
X148063857Y-96701428D01*
X148136428Y-96737714D01*
X148281571Y-96737714D01*
X148354142Y-96701428D01*
X148390428Y-96665142D01*
X148426714Y-96592571D01*
X148426714Y-96411142D01*
X148390428Y-96338571D01*
X148354142Y-96302285D01*
X148281571Y-96266000D01*
X148136428Y-96266000D01*
X148063857Y-96302285D01*
X148027571Y-96338571D01*
X147991285Y-96411142D01*
X157244142Y-93308714D02*
X156990142Y-92945857D01*
X156808714Y-93308714D02*
X156808714Y-92546714D01*
X157099000Y-92546714D01*
X157171571Y-92583000D01*
X157207857Y-92619285D01*
X157244142Y-92691857D01*
X157244142Y-92800714D01*
X157207857Y-92873285D01*
X157171571Y-92909571D01*
X157099000Y-92945857D01*
X156808714Y-92945857D01*
X157969857Y-93308714D02*
X157534428Y-93308714D01*
X157752142Y-93308714D02*
X157752142Y-92546714D01*
X157679571Y-92655571D01*
X157607000Y-92728142D01*
X157534428Y-92764428D01*
X158659285Y-92546714D02*
X158296428Y-92546714D01*
X158260142Y-92909571D01*
X158296428Y-92873285D01*
X158369000Y-92837000D01*
X158550428Y-92837000D01*
X158623000Y-92873285D01*
X158659285Y-92909571D01*
X158695571Y-92982142D01*
X158695571Y-93163571D01*
X158659285Y-93236142D01*
X158623000Y-93272428D01*
X158550428Y-93308714D01*
X158369000Y-93308714D01*
X158296428Y-93272428D01*
X158260142Y-93236142D01*
X152799142Y-93689714D02*
X152545142Y-93326857D01*
X152363714Y-93689714D02*
X152363714Y-92927714D01*
X152654000Y-92927714D01*
X152726571Y-92964000D01*
X152762857Y-93000285D01*
X152799142Y-93072857D01*
X152799142Y-93181714D01*
X152762857Y-93254285D01*
X152726571Y-93290571D01*
X152654000Y-93326857D01*
X152363714Y-93326857D01*
X153524857Y-93689714D02*
X153089428Y-93689714D01*
X153307142Y-93689714D02*
X153307142Y-92927714D01*
X153234571Y-93036571D01*
X153162000Y-93109142D01*
X153089428Y-93145428D01*
X154178000Y-92927714D02*
X154032857Y-92927714D01*
X153960285Y-92964000D01*
X153924000Y-93000285D01*
X153851428Y-93109142D01*
X153815142Y-93254285D01*
X153815142Y-93544571D01*
X153851428Y-93617142D01*
X153887714Y-93653428D01*
X153960285Y-93689714D01*
X154105428Y-93689714D01*
X154178000Y-93653428D01*
X154214285Y-93617142D01*
X154250571Y-93544571D01*
X154250571Y-93363142D01*
X154214285Y-93290571D01*
X154178000Y-93254285D01*
X154105428Y-93218000D01*
X153960285Y-93218000D01*
X153887714Y-93254285D01*
X153851428Y-93290571D01*
X153815142Y-93363142D01*
X152799142Y-92419714D02*
X152545142Y-92056857D01*
X152363714Y-92419714D02*
X152363714Y-91657714D01*
X152654000Y-91657714D01*
X152726571Y-91694000D01*
X152762857Y-91730285D01*
X152799142Y-91802857D01*
X152799142Y-91911714D01*
X152762857Y-91984285D01*
X152726571Y-92020571D01*
X152654000Y-92056857D01*
X152363714Y-92056857D01*
X153524857Y-92419714D02*
X153089428Y-92419714D01*
X153307142Y-92419714D02*
X153307142Y-91657714D01*
X153234571Y-91766571D01*
X153162000Y-91839142D01*
X153089428Y-91875428D01*
X153778857Y-91657714D02*
X154286857Y-91657714D01*
X153960285Y-92419714D01*
D10*
X135357809Y-55444571D02*
X135115904Y-55613904D01*
X135357809Y-55734857D02*
X134849809Y-55734857D01*
X134849809Y-55541333D01*
X134874000Y-55492952D01*
X134898190Y-55468761D01*
X134946571Y-55444571D01*
X135019142Y-55444571D01*
X135067523Y-55468761D01*
X135091714Y-55492952D01*
X135115904Y-55541333D01*
X135115904Y-55734857D01*
X135357809Y-54960761D02*
X135357809Y-55251047D01*
X135357809Y-55105904D02*
X134849809Y-55105904D01*
X134922380Y-55154285D01*
X134970761Y-55202666D01*
X134994952Y-55251047D01*
X135357809Y-54718857D02*
X135357809Y-54622095D01*
X135333619Y-54573714D01*
X135309428Y-54549523D01*
X135236857Y-54501142D01*
X135140095Y-54476952D01*
X134946571Y-54476952D01*
X134898190Y-54501142D01*
X134874000Y-54525333D01*
X134849809Y-54573714D01*
X134849809Y-54670476D01*
X134874000Y-54718857D01*
X134898190Y-54743047D01*
X134946571Y-54767238D01*
X135067523Y-54767238D01*
X135115904Y-54743047D01*
X135140095Y-54718857D01*
X135164285Y-54670476D01*
X135164285Y-54573714D01*
X135140095Y-54525333D01*
X135115904Y-54501142D01*
X135067523Y-54476952D01*
D11*
X146663833Y-55610880D02*
X146663833Y-55308500D01*
X146845261Y-55671357D02*
X146210261Y-55459690D01*
X146845261Y-55248023D01*
X146845261Y-55036357D02*
X146210261Y-55036357D01*
X146845261Y-54673500D01*
X146210261Y-54673500D01*
X146210261Y-54461833D02*
X146210261Y-54098976D01*
X146845261Y-54280404D02*
X146210261Y-54280404D01*
X146905738Y-54038500D02*
X146905738Y-53554690D01*
X146240500Y-53070880D02*
X146210261Y-53131357D01*
X146210261Y-53222071D01*
X146240500Y-53312785D01*
X146300976Y-53373261D01*
X146361452Y-53403500D01*
X146482404Y-53433738D01*
X146573119Y-53433738D01*
X146694071Y-53403500D01*
X146754547Y-53373261D01*
X146815023Y-53312785D01*
X146845261Y-53222071D01*
X146845261Y-53161595D01*
X146815023Y-53070880D01*
X146784785Y-53040642D01*
X146573119Y-53040642D01*
X146573119Y-53161595D01*
X146845261Y-52768500D02*
X146210261Y-52768500D01*
X146845261Y-52405642D01*
X146210261Y-52405642D01*
X146815023Y-52133500D02*
X146845261Y-52042785D01*
X146845261Y-51891595D01*
X146815023Y-51831119D01*
X146784785Y-51800880D01*
X146724309Y-51770642D01*
X146663833Y-51770642D01*
X146603357Y-51800880D01*
X146573119Y-51831119D01*
X146542880Y-51891595D01*
X146512642Y-52012547D01*
X146482404Y-52073023D01*
X146452166Y-52103261D01*
X146391690Y-52133500D01*
X146331214Y-52133500D01*
X146270738Y-52103261D01*
X146240500Y-52073023D01*
X146210261Y-52012547D01*
X146210261Y-51861357D01*
X146240500Y-51770642D01*
X146815023Y-51528738D02*
X146845261Y-51438023D01*
X146845261Y-51286833D01*
X146815023Y-51226357D01*
X146784785Y-51196119D01*
X146724309Y-51165880D01*
X146663833Y-51165880D01*
X146603357Y-51196119D01*
X146573119Y-51226357D01*
X146542880Y-51286833D01*
X146512642Y-51407785D01*
X146482404Y-51468261D01*
X146452166Y-51498500D01*
X146391690Y-51528738D01*
X146331214Y-51528738D01*
X146270738Y-51498500D01*
X146240500Y-51468261D01*
X146210261Y-51407785D01*
X146210261Y-51256595D01*
X146240500Y-51165880D01*
X146845261Y-50561119D02*
X146845261Y-50923976D01*
X146845261Y-50742547D02*
X146210261Y-50742547D01*
X146300976Y-50803023D01*
X146361452Y-50863500D01*
X146391690Y-50923976D01*
X140059833Y-55474809D02*
X140059833Y-55172428D01*
X140241261Y-55535285D02*
X139606261Y-55323619D01*
X140241261Y-55111952D01*
X140241261Y-54900285D02*
X139606261Y-54900285D01*
X140241261Y-54537428D01*
X139606261Y-54537428D01*
X139606261Y-54325761D02*
X139606261Y-53962904D01*
X140241261Y-54144333D02*
X139606261Y-54144333D01*
X140301738Y-53902428D02*
X140301738Y-53418619D01*
X140241261Y-53267428D02*
X139606261Y-53267428D01*
X140059833Y-53055761D01*
X139606261Y-52844095D01*
X140241261Y-52844095D01*
X140059833Y-52571952D02*
X140059833Y-52269571D01*
X140241261Y-52632428D02*
X139606261Y-52420761D01*
X140241261Y-52209095D01*
X140241261Y-51997428D02*
X139606261Y-51997428D01*
X140241261Y-51695047D02*
X139606261Y-51695047D01*
X140241261Y-51332190D01*
X139606261Y-51332190D01*
X140241261Y-50697190D02*
X140241261Y-51060047D01*
X140241261Y-50878619D02*
X139606261Y-50878619D01*
X139696976Y-50939095D01*
X139757452Y-50999571D01*
X139787690Y-51060047D01*
D13*
X129503714Y-51525714D02*
X129503714Y-50763714D01*
X129939142Y-51525714D01*
X129939142Y-50763714D01*
X130592285Y-51489428D02*
X130519714Y-51525714D01*
X130374571Y-51525714D01*
X130302000Y-51489428D01*
X130265714Y-51416857D01*
X130265714Y-51126571D01*
X130302000Y-51054000D01*
X130374571Y-51017714D01*
X130519714Y-51017714D01*
X130592285Y-51054000D01*
X130628571Y-51126571D01*
X130628571Y-51199142D01*
X130265714Y-51271714D01*
X130846285Y-51017714D02*
X131136571Y-51017714D01*
X130955142Y-50763714D02*
X130955142Y-51416857D01*
X130991428Y-51489428D01*
X131064000Y-51525714D01*
X131136571Y-51525714D01*
X131390571Y-51525714D02*
X131390571Y-50763714D01*
X131644571Y-51308000D01*
X131898571Y-50763714D01*
X131898571Y-51525714D01*
X132370285Y-51525714D02*
X132297714Y-51489428D01*
X132261428Y-51453142D01*
X132225142Y-51380571D01*
X132225142Y-51162857D01*
X132261428Y-51090285D01*
X132297714Y-51054000D01*
X132370285Y-51017714D01*
X132479142Y-51017714D01*
X132551714Y-51054000D01*
X132588000Y-51090285D01*
X132624285Y-51162857D01*
X132624285Y-51380571D01*
X132588000Y-51453142D01*
X132551714Y-51489428D01*
X132479142Y-51525714D01*
X132370285Y-51525714D01*
X133277428Y-51525714D02*
X133277428Y-50763714D01*
X133277428Y-51489428D02*
X133204857Y-51525714D01*
X133059714Y-51525714D01*
X132987142Y-51489428D01*
X132950857Y-51453142D01*
X132914571Y-51380571D01*
X132914571Y-51162857D01*
X132950857Y-51090285D01*
X132987142Y-51054000D01*
X133059714Y-51017714D01*
X133204857Y-51017714D01*
X133277428Y-51054000D01*
X133930571Y-51489428D02*
X133858000Y-51525714D01*
X133712857Y-51525714D01*
X133640285Y-51489428D01*
X133604000Y-51416857D01*
X133604000Y-51126571D01*
X133640285Y-51054000D01*
X133712857Y-51017714D01*
X133858000Y-51017714D01*
X133930571Y-51054000D01*
X133966857Y-51126571D01*
X133966857Y-51199142D01*
X133604000Y-51271714D01*
X134692571Y-51525714D02*
X134257142Y-51525714D01*
X134474857Y-51525714D02*
X134474857Y-50763714D01*
X134402285Y-50872571D01*
X134329714Y-50945142D01*
X134257142Y-50981428D01*
D11*
X130698119Y-56040261D02*
X130698119Y-55405261D01*
X131060976Y-56040261D01*
X131060976Y-55405261D01*
X131605261Y-56010023D02*
X131544785Y-56040261D01*
X131423833Y-56040261D01*
X131363357Y-56010023D01*
X131333119Y-55949547D01*
X131333119Y-55707642D01*
X131363357Y-55647166D01*
X131423833Y-55616928D01*
X131544785Y-55616928D01*
X131605261Y-55647166D01*
X131635500Y-55707642D01*
X131635500Y-55768119D01*
X131333119Y-55828595D01*
X131816928Y-55616928D02*
X132058833Y-55616928D01*
X131907642Y-55405261D02*
X131907642Y-55949547D01*
X131937880Y-56010023D01*
X131998357Y-56040261D01*
X132058833Y-56040261D01*
X132240261Y-56010023D02*
X132330976Y-56040261D01*
X132482166Y-56040261D01*
X132542642Y-56010023D01*
X132572880Y-55979785D01*
X132603119Y-55919309D01*
X132603119Y-55858833D01*
X132572880Y-55798357D01*
X132542642Y-55768119D01*
X132482166Y-55737880D01*
X132361214Y-55707642D01*
X132300738Y-55677404D01*
X132270500Y-55647166D01*
X132240261Y-55586690D01*
X132240261Y-55526214D01*
X132270500Y-55465738D01*
X132300738Y-55435500D01*
X132361214Y-55405261D01*
X132512404Y-55405261D01*
X132603119Y-55435500D01*
X132784547Y-55616928D02*
X133026452Y-55616928D01*
X132875261Y-55405261D02*
X132875261Y-55949547D01*
X132905500Y-56010023D01*
X132965976Y-56040261D01*
X133026452Y-56040261D01*
X133510261Y-56040261D02*
X133510261Y-55707642D01*
X133480023Y-55647166D01*
X133419547Y-55616928D01*
X133298595Y-55616928D01*
X133238119Y-55647166D01*
X133510261Y-56010023D02*
X133449785Y-56040261D01*
X133298595Y-56040261D01*
X133238119Y-56010023D01*
X133207880Y-55949547D01*
X133207880Y-55889071D01*
X133238119Y-55828595D01*
X133298595Y-55798357D01*
X133449785Y-55798357D01*
X133510261Y-55768119D01*
X133721928Y-55616928D02*
X133963833Y-55616928D01*
X133812642Y-55405261D02*
X133812642Y-55949547D01*
X133842880Y-56010023D01*
X133903357Y-56040261D01*
X133963833Y-56040261D01*
X134508119Y-56040261D02*
X134145261Y-56040261D01*
X134326690Y-56040261D02*
X134326690Y-55405261D01*
X134266214Y-55495976D01*
X134205738Y-55556452D01*
X134145261Y-55586690D01*
X153521833Y-54588833D02*
X153521833Y-54286452D01*
X153703261Y-54649309D02*
X153068261Y-54437642D01*
X153703261Y-54225976D01*
X153703261Y-54014309D02*
X153068261Y-54014309D01*
X153703261Y-53651452D01*
X153068261Y-53651452D01*
X153068261Y-53439785D02*
X153068261Y-53076928D01*
X153703261Y-53258357D02*
X153068261Y-53258357D01*
X153763738Y-53016452D02*
X153763738Y-52532642D01*
X153703261Y-52381452D02*
X153068261Y-52381452D01*
X153068261Y-52230261D01*
X153098500Y-52139547D01*
X153158976Y-52079071D01*
X153219452Y-52048833D01*
X153340404Y-52018595D01*
X153431119Y-52018595D01*
X153552071Y-52048833D01*
X153612547Y-52079071D01*
X153673023Y-52139547D01*
X153703261Y-52230261D01*
X153703261Y-52381452D01*
X153703261Y-51746452D02*
X153068261Y-51746452D01*
X153068261Y-51534785D02*
X153703261Y-51323119D01*
X153068261Y-51111452D01*
X153703261Y-50567166D02*
X153703261Y-50930023D01*
X153703261Y-50748595D02*
X153068261Y-50748595D01*
X153158976Y-50809071D01*
X153219452Y-50869547D01*
X153249690Y-50930023D01*
D10*
X154105428Y-55952571D02*
X154129619Y-55976761D01*
X154153809Y-56049333D01*
X154153809Y-56097714D01*
X154129619Y-56170285D01*
X154081238Y-56218666D01*
X154032857Y-56242857D01*
X153936095Y-56267047D01*
X153863523Y-56267047D01*
X153766761Y-56242857D01*
X153718380Y-56218666D01*
X153670000Y-56170285D01*
X153645809Y-56097714D01*
X153645809Y-56049333D01*
X153670000Y-55976761D01*
X153694190Y-55952571D01*
X153694190Y-55759047D02*
X153670000Y-55734857D01*
X153645809Y-55686476D01*
X153645809Y-55565523D01*
X153670000Y-55517142D01*
X153694190Y-55492952D01*
X153742571Y-55468761D01*
X153790952Y-55468761D01*
X153863523Y-55492952D01*
X154153809Y-55783238D01*
X154153809Y-55468761D01*
X153645809Y-55033333D02*
X153645809Y-55130095D01*
X153670000Y-55178476D01*
X153694190Y-55202666D01*
X153766761Y-55251047D01*
X153863523Y-55275238D01*
X154057047Y-55275238D01*
X154105428Y-55251047D01*
X154129619Y-55226857D01*
X154153809Y-55178476D01*
X154153809Y-55081714D01*
X154129619Y-55033333D01*
X154105428Y-55009142D01*
X154057047Y-54984952D01*
X153936095Y-54984952D01*
X153887714Y-55009142D01*
X153863523Y-55033333D01*
X153839333Y-55081714D01*
X153839333Y-55178476D01*
X153863523Y-55226857D01*
X153887714Y-55251047D01*
X153936095Y-55275238D01*
X149279428Y-55381071D02*
X149303619Y-55405261D01*
X149327809Y-55477833D01*
X149327809Y-55526214D01*
X149303619Y-55598785D01*
X149255238Y-55647166D01*
X149206857Y-55671357D01*
X149110095Y-55695547D01*
X149037523Y-55695547D01*
X148940761Y-55671357D01*
X148892380Y-55647166D01*
X148844000Y-55598785D01*
X148819809Y-55526214D01*
X148819809Y-55477833D01*
X148844000Y-55405261D01*
X148868190Y-55381071D01*
X148868190Y-55187547D02*
X148844000Y-55163357D01*
X148819809Y-55114976D01*
X148819809Y-54994023D01*
X148844000Y-54945642D01*
X148868190Y-54921452D01*
X148916571Y-54897261D01*
X148964952Y-54897261D01*
X149037523Y-54921452D01*
X149327809Y-55211738D01*
X149327809Y-54897261D01*
X148819809Y-54727928D02*
X148819809Y-54389261D01*
X149327809Y-54606976D01*
X150803428Y-56109809D02*
X150634095Y-55867904D01*
X150513142Y-56109809D02*
X150513142Y-55601809D01*
X150706666Y-55601809D01*
X150755047Y-55626000D01*
X150779238Y-55650190D01*
X150803428Y-55698571D01*
X150803428Y-55771142D01*
X150779238Y-55819523D01*
X150755047Y-55843714D01*
X150706666Y-55867904D01*
X150513142Y-55867904D01*
X150996952Y-55650190D02*
X151021142Y-55626000D01*
X151069523Y-55601809D01*
X151190476Y-55601809D01*
X151238857Y-55626000D01*
X151263047Y-55650190D01*
X151287238Y-55698571D01*
X151287238Y-55746952D01*
X151263047Y-55819523D01*
X150972761Y-56109809D01*
X151287238Y-56109809D01*
X151771047Y-56109809D02*
X151480761Y-56109809D01*
X151625904Y-56109809D02*
X151625904Y-55601809D01*
X151577523Y-55674380D01*
X151529142Y-55722761D01*
X151480761Y-55746952D01*
X144961428Y-54092928D02*
X144937238Y-54117119D01*
X144864666Y-54141309D01*
X144816285Y-54141309D01*
X144743714Y-54117119D01*
X144695333Y-54068738D01*
X144671142Y-54020357D01*
X144646952Y-53923595D01*
X144646952Y-53851023D01*
X144671142Y-53754261D01*
X144695333Y-53705880D01*
X144743714Y-53657500D01*
X144816285Y-53633309D01*
X144864666Y-53633309D01*
X144937238Y-53657500D01*
X144961428Y-53681690D01*
X145130761Y-53633309D02*
X145445238Y-53633309D01*
X145275904Y-53826833D01*
X145348476Y-53826833D01*
X145396857Y-53851023D01*
X145421047Y-53875214D01*
X145445238Y-53923595D01*
X145445238Y-54044547D01*
X145421047Y-54092928D01*
X145396857Y-54117119D01*
X145348476Y-54141309D01*
X145203333Y-54141309D01*
X145154952Y-54117119D01*
X145130761Y-54092928D01*
X145614571Y-53633309D02*
X145929047Y-53633309D01*
X145759714Y-53826833D01*
X145832285Y-53826833D01*
X145880666Y-53851023D01*
X145904857Y-53875214D01*
X145929047Y-53923595D01*
X145929047Y-54044547D01*
X145904857Y-54092928D01*
X145880666Y-54117119D01*
X145832285Y-54141309D01*
X145687142Y-54141309D01*
X145638761Y-54117119D01*
X145614571Y-54092928D01*
D13*
X127852714Y-92437857D02*
X127489857Y-92691857D01*
X127852714Y-92873285D02*
X127090714Y-92873285D01*
X127090714Y-92583000D01*
X127127000Y-92510428D01*
X127163285Y-92474142D01*
X127235857Y-92437857D01*
X127344714Y-92437857D01*
X127417285Y-92474142D01*
X127453571Y-92510428D01*
X127489857Y-92583000D01*
X127489857Y-92873285D01*
X127163285Y-92147571D02*
X127127000Y-92111285D01*
X127090714Y-92038714D01*
X127090714Y-91857285D01*
X127127000Y-91784714D01*
X127163285Y-91748428D01*
X127235857Y-91712142D01*
X127308428Y-91712142D01*
X127417285Y-91748428D01*
X127852714Y-92183857D01*
X127852714Y-91712142D01*
X127090714Y-91022714D02*
X127090714Y-91385571D01*
X127453571Y-91421857D01*
X127417285Y-91385571D01*
X127381000Y-91313000D01*
X127381000Y-91131571D01*
X127417285Y-91059000D01*
X127453571Y-91022714D01*
X127526142Y-90986428D01*
X127707571Y-90986428D01*
X127780142Y-91022714D01*
X127816428Y-91059000D01*
X127852714Y-91131571D01*
X127852714Y-91313000D01*
X127816428Y-91385571D01*
X127780142Y-91421857D01*
M02*
