G04 #@! TF.GenerationSoftware,KiCad,Pcbnew,5.1.5-52549c5~84~ubuntu18.04.1*
G04 #@! TF.CreationDate,2020-02-06T13:36:22+02:00*
G04 #@! TF.ProjectId,USB-gLINK_Rev_C,5553422d-674c-4494-9e4b-5f5265765f43,C*
G04 #@! TF.SameCoordinates,Original*
G04 #@! TF.FileFunction,Soldermask,Bot*
G04 #@! TF.FilePolarity,Negative*
%FSLAX46Y46*%
G04 Gerber Fmt 4.6, Leading zero omitted, Abs format (unit mm)*
G04 Created by KiCad (PCBNEW 5.1.5-52549c5~84~ubuntu18.04.1) date 2020-02-06 13:36:22*
%MOMM*%
%LPD*%
G04 APERTURE LIST*
%ADD10R,0.651600X0.601600*%
%ADD11R,0.601600X0.651600*%
%ADD12R,1.101600X1.501600*%
%ADD13R,1.501600X1.101600*%
%ADD14R,1.801600X2.101600*%
%ADD15C,0.801600*%
%ADD16R,1.901600X0.801600*%
%ADD17R,1.117600X1.117600*%
%ADD18C,1.501600*%
%ADD19R,1.501600X1.501600*%
%ADD20R,1.131600X1.101600*%
%ADD21R,0.651600X1.901600*%
%ADD22R,0.751600X1.401600*%
%ADD23R,1.625600X1.371600*%
%ADD24C,1.254000*%
%ADD25R,1.301600X0.651600*%
%ADD26R,0.863600X0.609600*%
%ADD27R,2.101600X1.801600*%
%ADD28O,1.301600X1.901600*%
%ADD29C,0.701600*%
%ADD30R,0.609600X0.863600*%
G04 APERTURE END LIST*
D10*
X134112000Y-52070000D03*
X134112000Y-53086000D03*
D11*
X136779000Y-56388000D03*
X135763000Y-56388000D03*
D12*
X137220960Y-55082440D03*
X135318500Y-55082440D03*
X136273540Y-52872640D03*
D13*
X132806440Y-51628040D03*
X132806440Y-53530500D03*
X130596640Y-52575460D03*
D14*
X139573000Y-93893000D03*
X139573000Y-98893000D03*
D10*
X133540501Y-61595000D03*
X133540501Y-62611000D03*
D15*
X155575000Y-87630000D03*
D16*
X153543000Y-76835000D03*
X157607000Y-76835000D03*
X153543000Y-78105000D03*
X157607000Y-78105000D03*
X153543000Y-79375000D03*
X157607000Y-79375000D03*
X153543000Y-80645000D03*
X157607000Y-80645000D03*
X153543000Y-81915000D03*
X157607000Y-81915000D03*
X153543000Y-83185000D03*
X157607000Y-83185000D03*
X153543000Y-84455000D03*
X157607000Y-84455000D03*
X153543000Y-85725000D03*
X157607000Y-85725000D03*
X153543000Y-86995000D03*
X157607000Y-86995000D03*
X153543000Y-88265000D03*
X157607000Y-88265000D03*
X157607000Y-75565000D03*
X153543000Y-75565000D03*
X157607000Y-74295000D03*
X153543000Y-74295000D03*
X157607000Y-73025000D03*
X153543000Y-73025000D03*
X157607000Y-71755000D03*
X153543000Y-71755000D03*
X157607000Y-70485000D03*
X153543000Y-70485000D03*
X157607000Y-69215000D03*
X153543000Y-69215000D03*
X157607000Y-67945000D03*
X153543000Y-67945000D03*
X157607000Y-66675000D03*
X153543000Y-66675000D03*
X157607000Y-65405000D03*
X153543000Y-65405000D03*
X157607000Y-64135000D03*
X153543000Y-64135000D03*
D15*
X155575000Y-64770000D03*
X131445000Y-87630000D03*
D16*
X129413000Y-76835000D03*
X133477000Y-76835000D03*
X129413000Y-78105000D03*
X133477000Y-78105000D03*
X129413000Y-79375000D03*
X133477000Y-79375000D03*
X129413000Y-80645000D03*
X133477000Y-80645000D03*
X129413000Y-81915000D03*
X133477000Y-81915000D03*
X129413000Y-83185000D03*
X133477000Y-83185000D03*
X129413000Y-84455000D03*
X133477000Y-84455000D03*
X129413000Y-85725000D03*
X133477000Y-85725000D03*
X129413000Y-86995000D03*
X133477000Y-86995000D03*
X129413000Y-88265000D03*
X133477000Y-88265000D03*
X133477000Y-75565000D03*
X129413000Y-75565000D03*
X133477000Y-74295000D03*
X129413000Y-74295000D03*
X133477000Y-73025000D03*
X129413000Y-73025000D03*
X133477000Y-71755000D03*
X129413000Y-71755000D03*
X133477000Y-70485000D03*
X129413000Y-70485000D03*
X133477000Y-69215000D03*
X129413000Y-69215000D03*
X133477000Y-67945000D03*
X129413000Y-67945000D03*
X133477000Y-66675000D03*
X129413000Y-66675000D03*
X133477000Y-65405000D03*
X129413000Y-65405000D03*
X133477000Y-64135000D03*
X129413000Y-64135000D03*
D15*
X131445000Y-64770000D03*
D17*
X132461000Y-100076000D03*
X130683000Y-100076000D03*
X135636000Y-100076000D03*
X133858000Y-100076000D03*
D18*
X143525240Y-100058220D03*
D19*
X145554700Y-100055680D03*
D20*
X147975000Y-51895000D03*
X139045000Y-51895000D03*
D21*
X148215000Y-63365000D03*
X138805000Y-63365000D03*
X148215000Y-57615000D03*
X138805000Y-57615000D03*
D22*
X144145000Y-63985000D03*
X146685000Y-63985000D03*
X140335000Y-63985000D03*
X141605000Y-63985000D03*
X142875000Y-63985000D03*
X145415000Y-63985000D03*
D12*
X146052540Y-96901000D03*
X147955000Y-96901000D03*
X146999960Y-99110800D03*
D11*
X131699000Y-95377000D03*
X132715000Y-95377000D03*
D17*
X135128000Y-96774000D03*
X136906000Y-96774000D03*
X144780000Y-94869000D03*
X143002000Y-94869000D03*
D10*
X142748000Y-66548000D03*
X142748000Y-65532000D03*
X141732000Y-66548000D03*
X141732000Y-65532000D03*
X139065000Y-66548000D03*
X139065000Y-65532000D03*
X132651501Y-61595000D03*
X132651501Y-62611000D03*
X131762500Y-61595000D03*
X131762500Y-62611000D03*
D23*
X128269999Y-60198000D03*
X128269999Y-62230000D03*
D10*
X132651501Y-59817001D03*
X132651501Y-60833001D03*
X133540499Y-59817000D03*
X133540499Y-60833000D03*
D12*
X135321040Y-91856560D03*
X137223500Y-91856560D03*
X136268460Y-94066360D03*
D24*
X128270000Y-52070000D03*
X158750000Y-100330000D03*
D15*
X156654501Y-53605000D03*
X156654501Y-51805000D03*
X144526000Y-93483000D03*
X144526000Y-91683000D03*
D10*
X133858000Y-94361000D03*
X133858000Y-95377000D03*
X141986000Y-99314000D03*
X141986000Y-100330000D03*
X141732000Y-94615000D03*
X141732000Y-95631000D03*
D11*
X130175000Y-55245000D03*
X131191000Y-55245000D03*
D10*
X134112000Y-55499000D03*
X134112000Y-54483000D03*
D11*
X128651000Y-54038500D03*
X129667000Y-54038500D03*
D10*
X157734000Y-90932000D03*
X157734000Y-91948000D03*
X144526000Y-65532000D03*
X144526000Y-66548000D03*
X143637000Y-65532000D03*
X143637000Y-66548000D03*
X140843000Y-65532000D03*
X140843000Y-66548000D03*
X139954000Y-65532000D03*
X139954000Y-66548000D03*
D12*
X130108960Y-57876440D03*
X128206500Y-57876440D03*
X129161540Y-55666640D03*
X133537960Y-57876440D03*
X131635500Y-57876440D03*
X132590540Y-55666640D03*
D25*
X144683000Y-96456500D03*
X144683000Y-97406500D03*
X144683000Y-98356500D03*
X142083000Y-96456500D03*
X142083000Y-98356500D03*
D26*
X159131000Y-91059000D03*
X159131000Y-91821000D03*
D10*
X137033000Y-100330000D03*
X137033000Y-99314000D03*
D17*
X147955000Y-94869000D03*
X146177000Y-94869000D03*
D10*
X145415000Y-65532000D03*
X145415000Y-66548000D03*
D23*
X137033000Y-62230000D03*
X137033000Y-60198000D03*
X135001000Y-60198000D03*
X135001000Y-62230000D03*
X130301999Y-62230000D03*
X130301999Y-60198000D03*
D10*
X131762502Y-60833000D03*
X131762502Y-59817000D03*
D27*
X133437000Y-91821000D03*
X128437000Y-91821000D03*
D17*
X136906000Y-98298000D03*
X135128000Y-98298000D03*
D25*
X133380100Y-96586000D03*
X133380100Y-97536000D03*
X133380100Y-98486000D03*
X130779900Y-98486000D03*
X130779900Y-97536000D03*
X130779900Y-96586000D03*
D28*
X156635000Y-98294000D03*
X156635000Y-94824000D03*
X149435000Y-94824000D03*
X149435000Y-98294000D03*
D29*
X155035000Y-96144000D03*
X151035000Y-96144000D03*
D24*
X128270000Y-100330000D03*
D10*
X139700000Y-83820000D03*
X139700000Y-84836000D03*
D11*
X144271999Y-83629500D03*
X145287999Y-83629500D03*
X144272000Y-82740501D03*
X145288000Y-82740501D03*
D10*
X136271000Y-86995000D03*
X136271000Y-85979000D03*
D11*
X128079500Y-89916000D03*
X129095500Y-89916000D03*
D10*
X159321500Y-82232500D03*
X159321500Y-81216500D03*
X148526500Y-82677000D03*
X148526500Y-83693000D03*
X136398000Y-88773000D03*
X136398000Y-89789000D03*
X150876000Y-57150000D03*
X150876000Y-58166000D03*
X149606000Y-58166000D03*
X149606000Y-57150000D03*
D17*
X153543000Y-60960000D03*
X153543000Y-59182000D03*
D12*
X153294000Y-57150000D03*
X157094000Y-57150000D03*
X155953460Y-61427360D03*
X156908500Y-59217560D03*
X155006040Y-59217560D03*
D11*
X157734000Y-61849000D03*
X158750000Y-61849000D03*
D10*
X152146000Y-58166000D03*
X152146000Y-57150000D03*
D30*
X151511000Y-61214000D03*
X152273000Y-61214000D03*
M02*
