G04 #@! TF.GenerationSoftware,KiCad,Pcbnew,5.1.5-52549c5~84~ubuntu18.04.1*
G04 #@! TF.CreationDate,2020-02-06T13:36:22+02:00*
G04 #@! TF.ProjectId,USB-gLINK_Rev_C,5553422d-674c-4494-9e4b-5f5265765f43,C*
G04 #@! TF.SameCoordinates,Original*
G04 #@! TF.FileFunction,Paste,Top*
G04 #@! TF.FilePolarity,Positive*
%FSLAX46Y46*%
G04 Gerber Fmt 4.6, Leading zero omitted, Abs format (unit mm)*
G04 Created by KiCad (PCBNEW 5.1.5-52549c5~84~ubuntu18.04.1) date 2020-02-06 13:36:22*
%MOMM*%
%LPD*%
G04 APERTURE LIST*
%ADD10R,0.550000X0.500000*%
%ADD11C,0.100000*%
%ADD12R,2.700000X3.600000*%
%ADD13R,0.800000X0.800000*%
%ADD14R,0.500000X0.550000*%
%ADD15R,1.327000X1.754000*%
%ADD16R,1.202400X2.352400*%
%ADD17R,1.202400X1.202400*%
%ADD18R,1.100000X1.000000*%
%ADD19R,0.500000X1.650000*%
%ADD20R,0.325000X1.650000*%
G04 APERTURE END LIST*
D10*
X140843000Y-55880000D03*
X140843000Y-54864000D03*
X141732000Y-54864000D03*
X141732000Y-55880000D03*
X142621000Y-54864000D03*
X142621000Y-55880000D03*
D11*
G36*
X141946500Y-67660000D02*
G01*
X144946500Y-67660000D01*
X144946500Y-69660000D01*
X141946500Y-69660000D01*
X141946500Y-67660000D01*
G37*
G36*
X141946500Y-64460000D02*
G01*
X144946500Y-64460000D01*
X144946500Y-66460000D01*
X141946500Y-66460000D01*
X141946500Y-64460000D01*
G37*
G36*
X137146500Y-64460000D02*
G01*
X140146500Y-64460000D01*
X140146500Y-66460000D01*
X137146500Y-66460000D01*
X137146500Y-64460000D01*
G37*
G36*
X151546500Y-67660000D02*
G01*
X154546500Y-67660000D01*
X154546500Y-69660000D01*
X151546500Y-69660000D01*
X151546500Y-67660000D01*
G37*
G36*
X146746500Y-67660000D02*
G01*
X149746500Y-67660000D01*
X149746500Y-69660000D01*
X146746500Y-69660000D01*
X146746500Y-67660000D01*
G37*
G36*
X151546500Y-64460000D02*
G01*
X154546500Y-64460000D01*
X154546500Y-66460000D01*
X151546500Y-66460000D01*
X151546500Y-64460000D01*
G37*
G36*
X137146500Y-67660000D02*
G01*
X140146500Y-67660000D01*
X140146500Y-69660000D01*
X137146500Y-69660000D01*
X137146500Y-67660000D01*
G37*
G36*
X146746500Y-64460000D02*
G01*
X149746500Y-64460000D01*
X149746500Y-66460000D01*
X146746500Y-66460000D01*
X146746500Y-64460000D01*
G37*
G36*
X132346500Y-64460000D02*
G01*
X135346500Y-64460000D01*
X135346500Y-66460000D01*
X132346500Y-66460000D01*
X132346500Y-64460000D01*
G37*
G36*
X132346500Y-67660000D02*
G01*
X135346500Y-67660000D01*
X135346500Y-69660000D01*
X132346500Y-69660000D01*
X132346500Y-67660000D01*
G37*
G36*
X146746500Y-74260000D02*
G01*
X149746500Y-74260000D01*
X149746500Y-76260000D01*
X146746500Y-76260000D01*
X146746500Y-74260000D01*
G37*
G36*
X146746500Y-71060000D02*
G01*
X149746500Y-71060000D01*
X149746500Y-73060000D01*
X146746500Y-73060000D01*
X146746500Y-71060000D01*
G37*
G36*
X137146500Y-71060000D02*
G01*
X140146500Y-71060000D01*
X140146500Y-73060000D01*
X137146500Y-73060000D01*
X137146500Y-71060000D01*
G37*
G36*
X151546500Y-74260000D02*
G01*
X154546500Y-74260000D01*
X154546500Y-76260000D01*
X151546500Y-76260000D01*
X151546500Y-74260000D01*
G37*
G36*
X151546500Y-71060000D02*
G01*
X154546500Y-71060000D01*
X154546500Y-73060000D01*
X151546500Y-73060000D01*
X151546500Y-71060000D01*
G37*
G36*
X137146500Y-74260000D02*
G01*
X140146500Y-74260000D01*
X140146500Y-76260000D01*
X137146500Y-76260000D01*
X137146500Y-74260000D01*
G37*
G36*
X132346500Y-71060000D02*
G01*
X135346500Y-71060000D01*
X135346500Y-73060000D01*
X132346500Y-73060000D01*
X132346500Y-71060000D01*
G37*
G36*
X132346500Y-74260000D02*
G01*
X135346500Y-74260000D01*
X135346500Y-76260000D01*
X132346500Y-76260000D01*
X132346500Y-74260000D01*
G37*
G36*
X141946500Y-77660000D02*
G01*
X144946500Y-77660000D01*
X144946500Y-79660000D01*
X141946500Y-79660000D01*
X141946500Y-77660000D01*
G37*
G36*
X146746500Y-77660000D02*
G01*
X149746500Y-77660000D01*
X149746500Y-79660000D01*
X146746500Y-79660000D01*
X146746500Y-77660000D01*
G37*
G36*
X151546500Y-77660000D02*
G01*
X154546500Y-77660000D01*
X154546500Y-79660000D01*
X151546500Y-79660000D01*
X151546500Y-77660000D01*
G37*
G36*
X137146500Y-77660000D02*
G01*
X140146500Y-77660000D01*
X140146500Y-79660000D01*
X137146500Y-79660000D01*
X137146500Y-77660000D01*
G37*
G36*
X132346500Y-77660000D02*
G01*
X135346500Y-77660000D01*
X135346500Y-79660000D01*
X132346500Y-79660000D01*
X132346500Y-77660000D01*
G37*
G36*
X151546500Y-80860000D02*
G01*
X154546500Y-80860000D01*
X154546500Y-82860000D01*
X151546500Y-82860000D01*
X151546500Y-80860000D01*
G37*
G36*
X146746500Y-80860000D02*
G01*
X149746500Y-80860000D01*
X149746500Y-82860000D01*
X146746500Y-82860000D01*
X146746500Y-80860000D01*
G37*
G36*
X141946500Y-80860000D02*
G01*
X144946500Y-80860000D01*
X144946500Y-82860000D01*
X141946500Y-82860000D01*
X141946500Y-80860000D01*
G37*
G36*
X137146500Y-80860000D02*
G01*
X140146500Y-80860000D01*
X140146500Y-82860000D01*
X137146500Y-82860000D01*
X137146500Y-80860000D01*
G37*
G36*
X132346500Y-80860000D02*
G01*
X135346500Y-80860000D01*
X135346500Y-82860000D01*
X132346500Y-82860000D01*
X132346500Y-80860000D01*
G37*
G36*
X143896500Y-84110000D02*
G01*
X144996500Y-84110000D01*
X144996500Y-85210000D01*
X143896500Y-85210000D01*
X143896500Y-84110000D01*
G37*
G36*
X149896500Y-86110000D02*
G01*
X150996500Y-86110000D01*
X150996500Y-87210000D01*
X149896500Y-87210000D01*
X149896500Y-86110000D01*
G37*
G36*
X145896500Y-84110000D02*
G01*
X146996500Y-84110000D01*
X146996500Y-85210000D01*
X145896500Y-85210000D01*
X145896500Y-84110000D01*
G37*
G36*
X151896500Y-84110000D02*
G01*
X152996500Y-84110000D01*
X152996500Y-85210000D01*
X151896500Y-85210000D01*
X151896500Y-84110000D01*
G37*
G36*
X149896500Y-84110000D02*
G01*
X150996500Y-84110000D01*
X150996500Y-85210000D01*
X149896500Y-85210000D01*
X149896500Y-84110000D01*
G37*
G36*
X143896500Y-86110000D02*
G01*
X144996500Y-86110000D01*
X144996500Y-87210000D01*
X143896500Y-87210000D01*
X143896500Y-86110000D01*
G37*
G36*
X147896500Y-84110000D02*
G01*
X148996500Y-84110000D01*
X148996500Y-85210000D01*
X147896500Y-85210000D01*
X147896500Y-84110000D01*
G37*
G36*
X147896500Y-86110000D02*
G01*
X148996500Y-86110000D01*
X148996500Y-87210000D01*
X147896500Y-87210000D01*
X147896500Y-86110000D01*
G37*
G36*
X153896500Y-84110000D02*
G01*
X154996500Y-84110000D01*
X154996500Y-85210000D01*
X153896500Y-85210000D01*
X153896500Y-84110000D01*
G37*
G36*
X153896500Y-86110000D02*
G01*
X154996500Y-86110000D01*
X154996500Y-87210000D01*
X153896500Y-87210000D01*
X153896500Y-86110000D01*
G37*
G36*
X145896500Y-86110000D02*
G01*
X146996500Y-86110000D01*
X146996500Y-87210000D01*
X145896500Y-87210000D01*
X145896500Y-86110000D01*
G37*
G36*
X151896500Y-86110000D02*
G01*
X152996500Y-86110000D01*
X152996500Y-87210000D01*
X151896500Y-87210000D01*
X151896500Y-86110000D01*
G37*
G36*
X141896500Y-84110000D02*
G01*
X142996500Y-84110000D01*
X142996500Y-85210000D01*
X141896500Y-85210000D01*
X141896500Y-84110000D01*
G37*
G36*
X141896500Y-86110000D02*
G01*
X142996500Y-86110000D01*
X142996500Y-87210000D01*
X141896500Y-87210000D01*
X141896500Y-86110000D01*
G37*
G36*
X139896500Y-86110000D02*
G01*
X140996500Y-86110000D01*
X140996500Y-87210000D01*
X139896500Y-87210000D01*
X139896500Y-86110000D01*
G37*
G36*
X139896500Y-84110000D02*
G01*
X140996500Y-84110000D01*
X140996500Y-85210000D01*
X139896500Y-85210000D01*
X139896500Y-84110000D01*
G37*
G36*
X137896500Y-84110000D02*
G01*
X138996500Y-84110000D01*
X138996500Y-85210000D01*
X137896500Y-85210000D01*
X137896500Y-84110000D01*
G37*
G36*
X137896500Y-86110000D02*
G01*
X138996500Y-86110000D01*
X138996500Y-87210000D01*
X137896500Y-87210000D01*
X137896500Y-86110000D01*
G37*
G36*
X135896500Y-84110000D02*
G01*
X136996500Y-84110000D01*
X136996500Y-85210000D01*
X135896500Y-85210000D01*
X135896500Y-84110000D01*
G37*
G36*
X135896500Y-86110000D02*
G01*
X136996500Y-86110000D01*
X136996500Y-87210000D01*
X135896500Y-87210000D01*
X135896500Y-86110000D01*
G37*
G36*
X133896500Y-84110000D02*
G01*
X134996500Y-84110000D01*
X134996500Y-85210000D01*
X133896500Y-85210000D01*
X133896500Y-84110000D01*
G37*
G36*
X133896500Y-86110000D02*
G01*
X134996500Y-86110000D01*
X134996500Y-87210000D01*
X133896500Y-87210000D01*
X133896500Y-86110000D01*
G37*
G36*
X131896500Y-84110000D02*
G01*
X132996500Y-84110000D01*
X132996500Y-85210000D01*
X131896500Y-85210000D01*
X131896500Y-84110000D01*
G37*
G36*
X131896500Y-86110000D02*
G01*
X132996500Y-86110000D01*
X132996500Y-87210000D01*
X131896500Y-87210000D01*
X131896500Y-86110000D01*
G37*
G36*
X127946500Y-70610000D02*
G01*
X127946500Y-69810000D01*
X130446500Y-69810000D01*
X130446500Y-70610000D01*
X127946500Y-70610000D01*
G37*
G36*
X127946500Y-68010000D02*
G01*
X127946500Y-67210000D01*
X130446500Y-67210000D01*
X130446500Y-68010000D01*
X127946500Y-68010000D01*
G37*
G36*
X127946500Y-81010000D02*
G01*
X127946500Y-80210000D01*
X130446500Y-80210000D01*
X130446500Y-81010000D01*
X127946500Y-81010000D01*
G37*
G36*
X127946500Y-78410000D02*
G01*
X127946500Y-77610000D01*
X130446500Y-77610000D01*
X130446500Y-78410000D01*
X127946500Y-78410000D01*
G37*
G36*
X127946500Y-71910000D02*
G01*
X127946500Y-71110000D01*
X130446500Y-71110000D01*
X130446500Y-71910000D01*
X127946500Y-71910000D01*
G37*
G36*
X127946500Y-74510000D02*
G01*
X127946500Y-73710000D01*
X130446500Y-73710000D01*
X130446500Y-74510000D01*
X127946500Y-74510000D01*
G37*
G36*
X127946500Y-75810000D02*
G01*
X127946500Y-75010000D01*
X130446500Y-75010000D01*
X130446500Y-75810000D01*
X127946500Y-75810000D01*
G37*
G36*
X127946500Y-66710000D02*
G01*
X127946500Y-65910000D01*
X130446500Y-65910000D01*
X130446500Y-66710000D01*
X127946500Y-66710000D01*
G37*
G36*
X127946500Y-77110000D02*
G01*
X127946500Y-76310000D01*
X130446500Y-76310000D01*
X130446500Y-77110000D01*
X127946500Y-77110000D01*
G37*
G36*
X127946500Y-84910000D02*
G01*
X127946500Y-84110000D01*
X130446500Y-84110000D01*
X130446500Y-84910000D01*
X127946500Y-84910000D01*
G37*
G36*
X127946500Y-69310000D02*
G01*
X127946500Y-68510000D01*
X130446500Y-68510000D01*
X130446500Y-69310000D01*
X127946500Y-69310000D01*
G37*
G36*
X127946500Y-64110000D02*
G01*
X127946500Y-63310000D01*
X130446500Y-63310000D01*
X130446500Y-64110000D01*
X127946500Y-64110000D01*
G37*
G36*
X127946500Y-83610000D02*
G01*
X127946500Y-82810000D01*
X130446500Y-82810000D01*
X130446500Y-83610000D01*
X127946500Y-83610000D01*
G37*
G36*
X127946500Y-61510000D02*
G01*
X127946500Y-60710000D01*
X130446500Y-60710000D01*
X130446500Y-61510000D01*
X127946500Y-61510000D01*
G37*
G36*
X127946500Y-82310000D02*
G01*
X127946500Y-81510000D01*
X130446500Y-81510000D01*
X130446500Y-82310000D01*
X127946500Y-82310000D01*
G37*
G36*
X127946500Y-73210000D02*
G01*
X127946500Y-72410000D01*
X130446500Y-72410000D01*
X130446500Y-73210000D01*
X127946500Y-73210000D01*
G37*
G36*
X127946500Y-86210000D02*
G01*
X127946500Y-85410000D01*
X130446500Y-85410000D01*
X130446500Y-86210000D01*
X127946500Y-86210000D01*
G37*
G36*
X127946500Y-79710000D02*
G01*
X127946500Y-78910000D01*
X130446500Y-78910000D01*
X130446500Y-79710000D01*
X127946500Y-79710000D01*
G37*
G36*
X127946500Y-62810000D02*
G01*
X127946500Y-62010000D01*
X130446500Y-62010000D01*
X130446500Y-62810000D01*
X127946500Y-62810000D01*
G37*
G36*
X127946500Y-65410000D02*
G01*
X127946500Y-64610000D01*
X130446500Y-64610000D01*
X130446500Y-65410000D01*
X127946500Y-65410000D01*
G37*
G36*
X156446500Y-68010000D02*
G01*
X156446500Y-67210000D01*
X158946500Y-67210000D01*
X158946500Y-68010000D01*
X156446500Y-68010000D01*
G37*
G36*
X156446500Y-65410000D02*
G01*
X156446500Y-64610000D01*
X158946500Y-64610000D01*
X158946500Y-65410000D01*
X156446500Y-65410000D01*
G37*
G36*
X156446500Y-61510000D02*
G01*
X156446500Y-60710000D01*
X158946500Y-60710000D01*
X158946500Y-61510000D01*
X156446500Y-61510000D01*
G37*
G36*
X156446500Y-62810000D02*
G01*
X156446500Y-62010000D01*
X158946500Y-62010000D01*
X158946500Y-62810000D01*
X156446500Y-62810000D01*
G37*
G36*
X156446500Y-64110000D02*
G01*
X156446500Y-63310000D01*
X158946500Y-63310000D01*
X158946500Y-64110000D01*
X156446500Y-64110000D01*
G37*
G36*
X156446500Y-71910000D02*
G01*
X156446500Y-71110000D01*
X158946500Y-71110000D01*
X158946500Y-71910000D01*
X156446500Y-71910000D01*
G37*
G36*
X156446500Y-70610000D02*
G01*
X156446500Y-69810000D01*
X158946500Y-69810000D01*
X158946500Y-70610000D01*
X156446500Y-70610000D01*
G37*
G36*
X156446500Y-69310000D02*
G01*
X156446500Y-68510000D01*
X158946500Y-68510000D01*
X158946500Y-69310000D01*
X156446500Y-69310000D01*
G37*
G36*
X156446500Y-73210000D02*
G01*
X156446500Y-72410000D01*
X158946500Y-72410000D01*
X158946500Y-73210000D01*
X156446500Y-73210000D01*
G37*
G36*
X156446500Y-66710000D02*
G01*
X156446500Y-65910000D01*
X158946500Y-65910000D01*
X158946500Y-66710000D01*
X156446500Y-66710000D01*
G37*
G36*
X156446500Y-74510000D02*
G01*
X156446500Y-73710000D01*
X158946500Y-73710000D01*
X158946500Y-74510000D01*
X156446500Y-74510000D01*
G37*
G36*
X156446500Y-75810000D02*
G01*
X156446500Y-75010000D01*
X158946500Y-75010000D01*
X158946500Y-75810000D01*
X156446500Y-75810000D01*
G37*
G36*
X156446500Y-77110000D02*
G01*
X156446500Y-76310000D01*
X158946500Y-76310000D01*
X158946500Y-77110000D01*
X156446500Y-77110000D01*
G37*
G36*
X156446500Y-78410000D02*
G01*
X156446500Y-77610000D01*
X158946500Y-77610000D01*
X158946500Y-78410000D01*
X156446500Y-78410000D01*
G37*
G36*
X156446500Y-79710000D02*
G01*
X156446500Y-78910000D01*
X158946500Y-78910000D01*
X158946500Y-79710000D01*
X156446500Y-79710000D01*
G37*
G36*
X156446500Y-81010000D02*
G01*
X156446500Y-80210000D01*
X158946500Y-80210000D01*
X158946500Y-81010000D01*
X156446500Y-81010000D01*
G37*
G36*
X156446500Y-82310000D02*
G01*
X156446500Y-81510000D01*
X158946500Y-81510000D01*
X158946500Y-82310000D01*
X156446500Y-82310000D01*
G37*
G36*
X156446500Y-83610000D02*
G01*
X156446500Y-82810000D01*
X158946500Y-82810000D01*
X158946500Y-83610000D01*
X156446500Y-83610000D01*
G37*
G36*
X156446500Y-84910000D02*
G01*
X156446500Y-84110000D01*
X158946500Y-84110000D01*
X158946500Y-84910000D01*
X156446500Y-84910000D01*
G37*
G36*
X156446500Y-86210000D02*
G01*
X156446500Y-85410000D01*
X158946500Y-85410000D01*
X158946500Y-86210000D01*
X156446500Y-86210000D01*
G37*
G36*
X135646500Y-56660000D02*
G01*
X136446500Y-56660000D01*
X136446500Y-59160000D01*
X135646500Y-59160000D01*
X135646500Y-56660000D01*
G37*
G36*
X140046500Y-56660000D02*
G01*
X140846500Y-56660000D01*
X140846500Y-59160000D01*
X140046500Y-59160000D01*
X140046500Y-56660000D01*
G37*
G36*
X141346500Y-56660000D02*
G01*
X142146500Y-56660000D01*
X142146500Y-59160000D01*
X141346500Y-59160000D01*
X141346500Y-56660000D01*
G37*
G36*
X133046500Y-56660000D02*
G01*
X133846500Y-56660000D01*
X133846500Y-59160000D01*
X133046500Y-59160000D01*
X133046500Y-56660000D01*
G37*
G36*
X150446500Y-56660000D02*
G01*
X151246500Y-56660000D01*
X151246500Y-59160000D01*
X150446500Y-59160000D01*
X150446500Y-56660000D01*
G37*
G36*
X147846500Y-56660000D02*
G01*
X148646500Y-56660000D01*
X148646500Y-59160000D01*
X147846500Y-59160000D01*
X147846500Y-56660000D01*
G37*
G36*
X142646500Y-56660000D02*
G01*
X143446500Y-56660000D01*
X143446500Y-59160000D01*
X142646500Y-59160000D01*
X142646500Y-56660000D01*
G37*
G36*
X143946500Y-56660000D02*
G01*
X144746500Y-56660000D01*
X144746500Y-59160000D01*
X143946500Y-59160000D01*
X143946500Y-56660000D01*
G37*
G36*
X136946500Y-56660000D02*
G01*
X137746500Y-56660000D01*
X137746500Y-59160000D01*
X136946500Y-59160000D01*
X136946500Y-56660000D01*
G37*
G36*
X134346500Y-56660000D02*
G01*
X135146500Y-56660000D01*
X135146500Y-59160000D01*
X134346500Y-59160000D01*
X134346500Y-56660000D01*
G37*
G36*
X154346500Y-56660000D02*
G01*
X155146500Y-56660000D01*
X155146500Y-59160000D01*
X154346500Y-59160000D01*
X154346500Y-56660000D01*
G37*
G36*
X155646500Y-56660000D02*
G01*
X156446500Y-56660000D01*
X156446500Y-59160000D01*
X155646500Y-59160000D01*
X155646500Y-56660000D01*
G37*
G36*
X130446500Y-56660000D02*
G01*
X131246500Y-56660000D01*
X131246500Y-59160000D01*
X130446500Y-59160000D01*
X130446500Y-56660000D01*
G37*
G36*
X145246500Y-56660000D02*
G01*
X146046500Y-56660000D01*
X146046500Y-59160000D01*
X145246500Y-59160000D01*
X145246500Y-56660000D01*
G37*
G36*
X131746500Y-56660000D02*
G01*
X132546500Y-56660000D01*
X132546500Y-59160000D01*
X131746500Y-59160000D01*
X131746500Y-56660000D01*
G37*
G36*
X149146500Y-56660000D02*
G01*
X149946500Y-56660000D01*
X149946500Y-59160000D01*
X149146500Y-59160000D01*
X149146500Y-56660000D01*
G37*
G36*
X138246500Y-56660000D02*
G01*
X139046500Y-56660000D01*
X139046500Y-59160000D01*
X138246500Y-59160000D01*
X138246500Y-56660000D01*
G37*
G36*
X151746500Y-56660000D02*
G01*
X152546500Y-56660000D01*
X152546500Y-59160000D01*
X151746500Y-59160000D01*
X151746500Y-56660000D01*
G37*
G36*
X146546500Y-56660000D02*
G01*
X147346500Y-56660000D01*
X147346500Y-59160000D01*
X146546500Y-59160000D01*
X146546500Y-56660000D01*
G37*
G36*
X153046500Y-56660000D02*
G01*
X153846500Y-56660000D01*
X153846500Y-59160000D01*
X153046500Y-59160000D01*
X153046500Y-56660000D01*
G37*
G36*
X155646500Y-88160000D02*
G01*
X156446500Y-88160000D01*
X156446500Y-90660000D01*
X155646500Y-90660000D01*
X155646500Y-88160000D01*
G37*
G36*
X154346500Y-88160000D02*
G01*
X155146500Y-88160000D01*
X155146500Y-90660000D01*
X154346500Y-90660000D01*
X154346500Y-88160000D01*
G37*
G36*
X153046500Y-88160000D02*
G01*
X153846500Y-88160000D01*
X153846500Y-90660000D01*
X153046500Y-90660000D01*
X153046500Y-88160000D01*
G37*
G36*
X151746500Y-88160000D02*
G01*
X152546500Y-88160000D01*
X152546500Y-90660000D01*
X151746500Y-90660000D01*
X151746500Y-88160000D01*
G37*
G36*
X150446500Y-88160000D02*
G01*
X151246500Y-88160000D01*
X151246500Y-90660000D01*
X150446500Y-90660000D01*
X150446500Y-88160000D01*
G37*
G36*
X149146500Y-88160000D02*
G01*
X149946500Y-88160000D01*
X149946500Y-90660000D01*
X149146500Y-90660000D01*
X149146500Y-88160000D01*
G37*
G36*
X147846500Y-88160000D02*
G01*
X148646500Y-88160000D01*
X148646500Y-90660000D01*
X147846500Y-90660000D01*
X147846500Y-88160000D01*
G37*
G36*
X146546500Y-88160000D02*
G01*
X147346500Y-88160000D01*
X147346500Y-90660000D01*
X146546500Y-90660000D01*
X146546500Y-88160000D01*
G37*
G36*
X145246500Y-88160000D02*
G01*
X146046500Y-88160000D01*
X146046500Y-90660000D01*
X145246500Y-90660000D01*
X145246500Y-88160000D01*
G37*
G36*
X143946500Y-88160000D02*
G01*
X144746500Y-88160000D01*
X144746500Y-90660000D01*
X143946500Y-90660000D01*
X143946500Y-88160000D01*
G37*
G36*
X142646500Y-88160000D02*
G01*
X143446500Y-88160000D01*
X143446500Y-90660000D01*
X142646500Y-90660000D01*
X142646500Y-88160000D01*
G37*
G36*
X141346500Y-88160000D02*
G01*
X142146500Y-88160000D01*
X142146500Y-90660000D01*
X141346500Y-90660000D01*
X141346500Y-88160000D01*
G37*
G36*
X140046500Y-88160000D02*
G01*
X140846500Y-88160000D01*
X140846500Y-90660000D01*
X140046500Y-90660000D01*
X140046500Y-88160000D01*
G37*
G36*
X138246500Y-88160000D02*
G01*
X139046500Y-88160000D01*
X139046500Y-90660000D01*
X138246500Y-90660000D01*
X138246500Y-88160000D01*
G37*
G36*
X136946500Y-88160000D02*
G01*
X137746500Y-88160000D01*
X137746500Y-90660000D01*
X136946500Y-90660000D01*
X136946500Y-88160000D01*
G37*
G36*
X135646500Y-88160000D02*
G01*
X136446500Y-88160000D01*
X136446500Y-90660000D01*
X135646500Y-90660000D01*
X135646500Y-88160000D01*
G37*
G36*
X134346500Y-88160000D02*
G01*
X135146500Y-88160000D01*
X135146500Y-90660000D01*
X134346500Y-90660000D01*
X134346500Y-88160000D01*
G37*
G36*
X133046500Y-88160000D02*
G01*
X133846500Y-88160000D01*
X133846500Y-90660000D01*
X133046500Y-90660000D01*
X133046500Y-88160000D01*
G37*
G36*
X131746500Y-88160000D02*
G01*
X132546500Y-88160000D01*
X132546500Y-90660000D01*
X131746500Y-90660000D01*
X131746500Y-88160000D01*
G37*
G36*
X130446500Y-88160000D02*
G01*
X131246500Y-88160000D01*
X131246500Y-90660000D01*
X130446500Y-90660000D01*
X130446500Y-88160000D01*
G37*
D12*
X138905000Y-96393000D03*
X128905000Y-96393000D03*
D13*
X130302000Y-53100899D03*
X130302000Y-51576899D03*
D14*
X155067000Y-92075000D03*
X156083000Y-92075000D03*
X138176000Y-55880000D03*
X139192000Y-55880000D03*
X138176000Y-54864000D03*
X139192000Y-54864000D03*
X144399000Y-55880000D03*
X145415000Y-55880000D03*
X144399000Y-54864000D03*
X145415000Y-54864000D03*
D13*
X143891000Y-96139000D03*
X142367000Y-96139000D03*
D15*
X154264501Y-52705000D03*
X159044501Y-52705000D03*
X142136000Y-92583000D03*
X146916000Y-92583000D03*
D14*
X146304000Y-96139000D03*
X145288000Y-96139000D03*
X155067000Y-93091000D03*
X156083000Y-93091000D03*
X151765000Y-92888500D03*
X150749000Y-92888500D03*
X151765000Y-92011500D03*
X150749000Y-92011500D03*
D10*
X137287000Y-55880000D03*
X137287000Y-54864000D03*
D16*
X142010000Y-52324000D03*
X145010000Y-52324000D03*
D17*
X143510000Y-53824000D03*
X137287000Y-53824000D03*
D16*
X138787000Y-52324000D03*
X135787000Y-52324000D03*
D13*
X132207000Y-51576899D03*
X132207000Y-53100899D03*
X134112000Y-51576899D03*
X134112000Y-53100899D03*
D18*
X154535000Y-99444000D03*
X151535000Y-99444000D03*
D19*
X154422500Y-94894000D03*
D20*
X153685000Y-94894000D03*
X153035000Y-94894000D03*
X152385000Y-94894000D03*
D19*
X151647500Y-94894000D03*
D16*
X148360000Y-52324000D03*
X151360000Y-52324000D03*
D17*
X149860000Y-53824000D03*
D10*
X152654000Y-54864000D03*
X152654000Y-55880000D03*
X149860000Y-55880000D03*
X149860000Y-54864000D03*
D14*
X150749000Y-54864000D03*
X151765000Y-54864000D03*
D10*
X143510000Y-55880000D03*
X143510000Y-54864000D03*
D14*
X127762000Y-90424000D03*
X128778000Y-90424000D03*
M02*
