M48
; DRILL file {KiCad 5.1.5-52549c5~84~ubuntu18.04.1} date  6.02.2020 (чт) 13:36:28 EET
; FORMAT={-:-/ absolute / inch / decimal}
; #@! TF.CreationDate,2020-02-06T13:36:28+02:00
; #@! TF.GenerationSoftware,Kicad,Pcbnew,5.1.5-52549c5~84~ubuntu18.04.1
; #@! TF.FileFunction,Plated,1,4,PTH
FMAT,2
INCH
T1C0.0157
T2C0.0236
T3C0.0354
%
G90
G05
T1
X5.025Y-3.415
X5.025Y-3.45
X5.025Y-3.485
X5.025Y-3.52
X5.0252Y-3.276
X5.0255Y-3.071
X5.0275Y-2.495
X5.0275Y-2.5275
X5.0275Y-2.56
X5.0275Y-2.61
X5.0275Y-2.6618
X5.0275Y-2.7642
X5.0275Y-2.8154
X5.0275Y-2.8665
X5.0275Y-2.9689
X5.0275Y-3.02
X5.0277Y-2.9177
X5.035Y-2.335
X5.065Y-2.335
X5.065Y-3.66
X5.065Y-3.69
X5.09Y-2.37
X5.0932Y-2.3347
X5.1Y-3.63
X5.1Y-3.66
X5.1Y-3.69
X5.1018Y-3.54
X5.115Y-3.5725
X5.1168Y-3.5092
X5.13Y-2.115
X5.155Y-2.485
X5.155Y-2.515
X5.155Y-2.58
X5.155Y-3.29
X5.156Y-2.416
X5.1575Y-3.05
X5.1595Y-2.8227
X5.16Y-2.04
X5.16Y-2.725
X5.16Y-2.775
X5.16Y-2.8837
X5.16Y-2.9163
X5.16Y-2.9837
X5.16Y-3.0163
X5.165Y-2.15
X5.165Y-3.11
X5.165Y-3.19
X5.1675Y-2.455
X5.17Y-2.34
X5.175Y-2.61
X5.175Y-2.645
X5.18Y-3.215
X5.185Y-3.735
X5.185Y-3.7825
X5.1875Y-2.485
X5.1875Y-2.515
X5.1896Y-2.9575
X5.1916Y-2.8663
X5.2Y-3.235
X5.2Y-3.97
X5.205Y-3.075
X5.2052Y-2.34
X5.2052Y-2.4362
X5.2112Y-2.6437
X5.215Y-2.14
X5.2225Y-2.485
X5.235Y-3.91
X5.235Y-3.97
X5.24Y-2.34
X5.2402Y-2.4362
X5.2425Y-2.0725
X5.2537Y-2.146
X5.2575Y-2.485
X5.27Y-3.91
X5.27Y-3.97
X5.275Y-2.34
X5.2775Y-2.215
X5.29Y-2.416
X5.295Y-2.485
X5.305Y-3.6875
X5.305Y-3.7175
X5.3075Y-2.34
X5.31Y-2.64
X5.315Y-2.03
X5.315Y-2.08
X5.32Y-3.285
X5.325Y-2.495
X5.33Y-3.34
X5.33Y-3.405
X5.33Y-3.45
X5.335Y-3.6875
X5.335Y-3.7175
X5.3425Y-2.815
X5.345Y-2.64
X5.345Y-3.075
X5.3475Y-2.71
X5.35Y-2.775
X5.35Y-2.985
X5.35Y-3.225
X5.35Y-3.255
X5.35Y-3.285
X5.355Y-2.34
X5.355Y-2.37
X5.355Y-2.435
X5.355Y-2.465
X5.355Y-2.495
X5.355Y-2.53
X5.355Y-2.57
X5.36Y-3.1437
X5.36Y-3.1763
X5.36Y-3.795
X5.36Y-3.838
X5.3602Y-3.7508
X5.37Y-3.455
X5.37Y-3.625
X5.37Y-3.655
X5.3798Y-2.8512
X5.38Y-2.64
X5.38Y-2.71
X5.38Y-2.775
X5.3803Y-2.9463
X5.3825Y-3.7725
X5.3825Y-3.815
X5.385Y-2.03
X5.385Y-2.99
X5.3862Y-3.3146
X5.3895Y-3.28
X5.4Y-3.655
X5.4Y-2.515
X5.405Y-3.75
X5.405Y-3.795
X5.405Y-3.838
X5.407Y-3.4088
X5.4075Y-3.455
X5.415Y-2.775
X5.425Y-2.03
X5.425Y-2.07
X5.4275Y-3.665
X5.4307Y-2.495
X5.44Y-2.34
X5.44Y-2.37
X5.445Y-3.57
X5.4476Y-2.775
X5.45Y-2.655
X5.4646Y-2.1204
X5.4806Y-2.7744
X5.485Y-3.43
X5.494Y-3.4788
X5.494Y-3.5095
X5.5Y-2.655
X5.5Y-3.3725
X5.5Y-3.59
X5.5Y-3.625
X5.505Y-2.03
X5.505Y-2.16
X5.505Y-3.97
X5.5054Y-2.0746
X5.5294Y-3.3
X5.53Y-2.395
X5.5318Y-2.7032
X5.535Y-3.07
X5.535Y-3.115
X5.535Y-3.225
X5.5365Y-2.9488
X5.54Y-3.2649
X5.545Y-2.03
X5.545Y-2.075
X5.545Y-2.14
X5.545Y-3.97
X5.56Y-2.42
X5.56Y-2.47
X5.56Y-2.77
X5.56Y-2.815
X5.565Y-3.4
X5.565Y-3.59
X5.565Y-3.625
X5.565Y-3.66
X5.57Y-2.985
X5.57Y-3.07
X5.57Y-3.115
X5.57Y-3.16
X5.5701Y-2.9489
X5.575Y-2.7031
X5.58Y-2.14
X5.5812Y-2.6388
X5.6Y-3.59
X5.61Y-2.42
X5.61Y-2.47
X5.61Y-2.77
X5.61Y-2.815
X5.61Y-2.9475
X5.61Y-2.985
X5.62Y-2.64
X5.62Y-3.16
X5.62Y-3.285
X5.63Y-2.03
X5.63Y-2.075
X5.635Y-3.5825
X5.635Y-3.6325
X5.635Y-3.6625
X5.6425Y-3.435
X5.65Y-3.4
X5.65Y-3.6075
X5.66Y-2.42
X5.66Y-2.47
X5.66Y-2.77
X5.66Y-2.815
X5.66Y-2.9475
X5.66Y-2.985
X5.66Y-3.6475
X5.665Y-3.5825
X5.67Y-2.03
X5.67Y-2.075
X5.67Y-3.71
X5.67Y-3.7412
X5.675Y-3.16
X5.7037Y-3.645
X5.71Y-2.12
X5.71Y-2.42
X5.71Y-2.47
X5.71Y-2.77
X5.71Y-2.815
X5.71Y-2.9475
X5.71Y-2.985
X5.7218Y-2.7232
X5.725Y-2.64
X5.7255Y-3.4445
X5.73Y-3.4
X5.7363Y-3.645
X5.755Y-2.03
X5.755Y-2.075
X5.755Y-2.12
X5.755Y-2.16
X5.755Y-2.2
X5.756Y-3.2587
X5.756Y-3.2913
X5.7579Y-3.1821
X5.76Y-2.3712
X5.76Y-2.42
X5.76Y-2.47
X5.76Y-2.77
X5.76Y-2.815
X5.765Y-2.64
X5.765Y-2.7231
X5.7664Y-2.5757
X5.7809Y-3.1591
X5.7824Y-3.8551
X5.7825Y-3.9688
X5.7844Y-3.46
X5.785Y-3.775
X5.79Y-3.605
X5.795Y-2.03
X5.795Y-2.075
X5.795Y-2.12
X5.795Y-2.16
X5.795Y-2.2
X5.795Y-3.03
X5.795Y-3.82
X5.805Y-2.64
X5.81Y-2.3712
X5.81Y-2.42
X5.81Y-2.47
X5.81Y-2.77
X5.812Y-3.3993
X5.815Y-2.52
X5.82Y-3.97
X5.83Y-3.16
X5.835Y-2.64
X5.835Y-3.03
X5.8376Y-3.6
X5.84Y-2.12
X5.84Y-2.16
X5.84Y-2.2
X5.86Y-2.42
X5.86Y-2.47
X5.86Y-2.52
X5.86Y-2.77
X5.86Y-3.785
X5.86Y-3.8175
X5.87Y-3.93
X5.875Y-2.2
X5.875Y-3.03
X5.88Y-2.03
X5.88Y-2.075
X5.885Y-3.6
X5.8855Y-3.4
X5.89Y-2.34
X5.89Y-2.64
X5.9078Y-2.5772
X5.9078Y-2.77
X5.9078Y-2.815
X5.92Y-2.03
X5.92Y-2.075
X5.92Y-2.995
X5.925Y-2.2
X5.925Y-2.65
X5.925Y-2.685
X5.925Y-2.72
X5.93Y-2.96
X5.935Y-2.41
X5.9389Y-3.5762
X5.9394Y-3.235
X5.94Y-2.34
X5.94Y-3.15
X5.94Y-3.2
X5.94Y-3.69
X5.94Y-3.72
X5.94Y-3.75
X5.94Y-3.2712
X5.945Y-2.93
X5.945Y-3.1
X5.945Y-3.83
X5.945Y-3.87
X5.955Y-2.2
X5.9578Y-2.77
X5.9578Y-2.815
X5.96Y-2.12
X5.9646Y-2.3653
X5.9662Y-3.4518
X5.97Y-3.69
X5.9713Y-2.9021
X5.985Y-2.2
X5.985Y-3.025
X5.985Y-3.79
X5.985Y-3.83
X5.985Y-3.87
X5.9884Y-2.45
X5.99Y-3.5762
X6.0Y-2.03
X6.0Y-2.075
X6.0Y-2.12
X6.015Y-3.6
X6.0209Y-2.45
X6.025Y-3.79
X6.025Y-3.83
X6.025Y-3.87
X6.04Y-2.03
X6.04Y-2.075
X6.04Y-2.12
X6.04Y-2.2
X6.0414Y-3.5762
X6.045Y-3.45
X6.045Y-3.625
X6.045Y-3.665
X6.05Y-2.5
X6.055Y-2.45
X6.06Y-3.79
X6.065Y-3.83
X6.065Y-3.87
X6.08Y-2.03
X6.08Y-2.12
X6.08Y-2.2
X6.08Y-3.625
X6.08Y-3.665
X6.0924Y-3.5775
X6.1012Y-2.4611
X6.105Y-3.225
X6.105Y-3.69
X6.105Y-3.72
X6.105Y-3.75
X6.105Y-3.83
X6.105Y-3.87
X6.11Y-2.585
X6.11Y-2.635
X6.11Y-2.685
X6.11Y-2.735
X6.12Y-2.03
X6.12Y-2.075
X6.12Y-2.12
X6.12Y-2.2
X6.12Y-3.075
X6.12Y-3.125
X6.125Y-3.405
X6.13Y-2.845
X6.135Y-2.47
X6.135Y-3.275
X6.135Y-3.375
X6.135Y-3.59
X6.136Y-3.331
X6.14Y-3.175
X6.145Y-2.51
X6.145Y-2.62
X6.145Y-2.67
X6.145Y-2.72
X6.145Y-2.775
X6.1488Y-2.8738
X6.1488Y-2.9238
X6.1488Y-2.9738
X6.1488Y-3.0238
X6.1496Y-2.8154
X6.15Y-3.425
X6.1533Y-2.5717
X6.17Y-2.075
X6.17Y-2.2
X6.185Y-3.45
X6.185Y-3.505
X6.185Y-3.535
X6.21Y-3.645
X6.215Y-2.03
X6.215Y-2.075
X6.215Y-2.12
X6.215Y-2.2
X6.22Y-2.235
X6.22Y-2.305
X6.22Y-2.34
X6.22Y-2.375
X6.25Y-3.645
X6.255Y-2.125
X6.255Y-3.435
X6.255Y-3.475
X6.255Y-3.515
X6.265Y-3.1736
X6.2725Y-3.26
X6.2725Y-3.29
X6.2725Y-3.3275
X6.275Y-3.415
X6.275Y-3.455
X6.275Y-3.495
X6.275Y-3.535
T2
X5.145Y-3.74
X5.145Y-3.78
X5.175Y-3.695
X5.2Y-3.84
X5.2Y-3.89
X5.215Y-3.695
X5.31Y-3.7602
X5.46Y-3.965
X5.545Y-3.795
X5.5949Y-3.834
X5.63Y-3.705
X5.645Y-3.834
X5.825Y-3.775
X5.8325Y-3.855
X5.8325Y-3.895
X5.8325Y-3.935
T3
X5.6506Y-3.9393
X5.7305Y-3.9392
T2
G00X5.8833Y-3.7214
M15
G01X5.8833Y-3.745
M16
G05
G00X5.8833Y-3.858
M15
G01X5.8833Y-3.8817
M16
G05
G00X6.1667Y-3.7214
M15
G01X6.1667Y-3.745
M16
G05
G00X6.1667Y-3.858
M15
G01X6.1667Y-3.8817
M16
G05
T0
M30
